%FSLAX25Y25*%
%MOIN*%
G70*
G01*
G75*
G04 Layer_Physical_Order=1*
G04 Layer_Color=255*
%ADD10R,0.02165X0.07087*%
%ADD11R,0.06102X0.05315*%
%ADD12R,0.04134X0.05315*%
%ADD13R,0.05315X0.04134*%
%ADD14R,0.09843X0.09843*%
%ADD15R,0.05315X0.06102*%
%ADD16R,0.11417X0.12795*%
%ADD17O,0.02756X0.10236*%
%ADD18R,0.29134X0.15354*%
%ADD19R,0.03347X0.08661*%
%ADD20R,0.08661X0.03347*%
%ADD21O,0.08465X0.03937*%
%ADD22R,0.03228X0.02047*%
%ADD23C,0.01181*%
%ADD24C,0.03150*%
%ADD25C,0.01969*%
%ADD26C,0.07874*%
%ADD27C,0.06299*%
%ADD28R,0.07874X0.07874*%
%ADD29R,0.07087X0.07087*%
%ADD30C,0.07087*%
%ADD31C,0.09843*%
%ADD32R,0.06299X0.06299*%
%ADD33C,0.55118*%
%ADD34C,0.04331*%
G36*
X552Y423228D02*
X80018D01*
Y0D01*
X433102D01*
X433936Y837D01*
X432346Y423228D01*
X512462D01*
Y610236D01*
X552D01*
Y423228D01*
D02*
G37*
%LPC*%
G36*
X354080Y237417D02*
X356253D01*
Y232587D01*
X354080D01*
Y237417D01*
D02*
G37*
G36*
X376938Y238402D02*
X382360D01*
Y232980D01*
X376938D01*
Y238402D01*
D02*
G37*
G36*
X352029Y269488D02*
X385100D01*
Y250197D01*
X352029D01*
Y255912D01*
X350938Y256364D01*
X345886Y251312D01*
Y229003D01*
X347863Y227026D01*
X354080D01*
Y231587D01*
X359427D01*
Y227026D01*
X368368D01*
X368368Y227026D01*
X369328Y226835D01*
X369520Y226797D01*
X370517Y228290D01*
Y231980D01*
X375938D01*
Y226559D01*
X371625D01*
X371173Y225468D01*
X373806Y222835D01*
X383328D01*
Y209055D01*
X381845D01*
X381393Y207964D01*
X384772Y204585D01*
X388913D01*
X389662Y205498D01*
X389522Y206201D01*
Y213681D01*
X389782Y214987D01*
X390522Y216094D01*
X391629Y216833D01*
X392934Y217093D01*
X394240Y216833D01*
X395347Y216094D01*
X395522D01*
X396629Y216833D01*
X397934Y217093D01*
X399240Y216833D01*
X400347Y216094D01*
X400522D01*
X401629Y216833D01*
X402934Y217093D01*
X404240Y216833D01*
X405347Y216094D01*
X405522D01*
X406629Y216833D01*
X407934Y217093D01*
X409240Y216833D01*
X410347Y216094D01*
X410522D01*
X411629Y216833D01*
X412934Y217093D01*
X414240Y216833D01*
X415347Y216094D01*
X415522D01*
X416629Y216833D01*
X417934Y217093D01*
X419240Y216833D01*
X420347Y216094D01*
X420522D01*
X421629Y216833D01*
X422934Y217093D01*
X424240Y216833D01*
X425347Y216094D01*
X426087Y214987D01*
X426346Y213681D01*
Y206201D01*
X426087Y204895D01*
X425347Y203788D01*
X424240Y203048D01*
X422934Y202789D01*
X421629Y203048D01*
X420522Y203788D01*
X420347D01*
X419240Y203048D01*
X417934Y202789D01*
X416858Y203003D01*
X415945Y202254D01*
Y200866D01*
X415945Y200866D01*
X415754Y199905D01*
X415716Y199714D01*
X415090Y198778D01*
X415647Y197736D01*
X420435D01*
Y196768D01*
X423183D01*
Y192717D01*
Y188665D01*
X420435D01*
Y187697D01*
X411183D01*
Y189104D01*
X408623D01*
Y188091D01*
X400553D01*
Y188091D01*
X400553D01*
X400553Y188091D01*
X399568D01*
D01*
X399146Y188091D01*
Y173524D01*
X404194D01*
Y156791D01*
X393260D01*
X385292Y148823D01*
X384120Y148040D01*
X382738Y147765D01*
X380180D01*
X380128Y147688D01*
X378435Y146557D01*
X376438Y146160D01*
X374441Y146557D01*
X372748Y147688D01*
X371617Y149381D01*
X371220Y151378D01*
X371617Y153375D01*
X372748Y155068D01*
X374441Y156199D01*
X376438Y156596D01*
X378435Y156199D01*
X380128Y155068D01*
X380180Y154991D01*
X381241D01*
X388840Y162590D01*
Y173524D01*
X391920D01*
Y188091D01*
X391497D01*
Y195218D01*
X374864D01*
X374864Y195218D01*
X373903Y195409D01*
X373711Y195447D01*
X372735Y196099D01*
X358795Y210039D01*
X353112D01*
Y221005D01*
X346616D01*
X346616Y221005D01*
X345655Y221196D01*
X345463Y221234D01*
X344487Y221887D01*
X340747Y225627D01*
X340747Y225627D01*
X340094Y226604D01*
X339865Y227756D01*
Y252559D01*
X339865Y252559D01*
X340056Y253520D01*
X340094Y253711D01*
X340747Y254688D01*
X340747Y254688D01*
X347932Y261873D01*
X348908Y262526D01*
X349099Y262563D01*
X350060Y262755D01*
X350061Y262755D01*
X352029D01*
Y269488D01*
D02*
G37*
G36*
X357253Y237417D02*
X359427D01*
Y232587D01*
X357253D01*
Y237417D01*
D02*
G37*
G36*
X133842Y238575D02*
X136470D01*
Y235947D01*
X135735Y236093D01*
X134688Y236793D01*
X133988Y237840D01*
X133842Y238575D01*
D02*
G37*
G36*
X184124Y238673D02*
X188814D01*
X188684Y238015D01*
X188028Y237033D01*
X187046Y236377D01*
X185887Y236147D01*
X184124D01*
Y238673D01*
D02*
G37*
G36*
X370517Y238402D02*
X375938D01*
Y232980D01*
X370517D01*
Y238402D01*
D02*
G37*
G36*
X137470Y238575D02*
X140098D01*
X139952Y237840D01*
X139252Y236793D01*
X138205Y236093D01*
X137470Y235947D01*
Y238575D01*
D02*
G37*
G36*
X376938Y231980D02*
X382360D01*
Y226559D01*
X376938D01*
Y231980D01*
D02*
G37*
G36*
X308917Y210140D02*
X311544D01*
X311398Y209405D01*
X310699Y208358D01*
X309652Y207659D01*
X308917Y207512D01*
Y210140D01*
D02*
G37*
G36*
X215026Y213758D02*
X215761Y213612D01*
X216808Y212912D01*
X217508Y211865D01*
X217654Y211130D01*
X215026D01*
Y213758D01*
D02*
G37*
G36*
Y210130D02*
X217654D01*
X217508Y209395D01*
X216808Y208348D01*
X215761Y207648D01*
X215026Y207502D01*
Y210130D01*
D02*
G37*
G36*
X211398D02*
X214026D01*
Y207502D01*
X213291Y207648D01*
X212244Y208348D01*
X211544Y209395D01*
X211398Y210130D01*
D02*
G37*
G36*
X331260Y217424D02*
X333888D01*
X333742Y216689D01*
X333042Y215642D01*
X331995Y214942D01*
X331260Y214796D01*
Y217424D01*
D02*
G37*
G36*
X141005Y230002D02*
X142618Y229681D01*
X143986Y228768D01*
X144899Y227400D01*
X145220Y225787D01*
X145133Y225350D01*
X146192Y224291D01*
X146238Y224295D01*
X147540Y225165D01*
X149076Y225471D01*
X153604D01*
X155140Y225165D01*
X156442Y224295D01*
X156595Y224066D01*
X178368D01*
X178521Y224295D01*
X179824Y225165D01*
X181360Y225471D01*
X185887D01*
X187423Y225165D01*
X188726Y224295D01*
X189596Y222993D01*
X189901Y221457D01*
X189596Y219920D01*
X188726Y218618D01*
X187423Y217748D01*
X185887Y217442D01*
X181360D01*
X179824Y217748D01*
X178521Y218618D01*
X178368Y218847D01*
X156595D01*
X156442Y218618D01*
X155140Y217748D01*
X153604Y217442D01*
X149076D01*
X147540Y217748D01*
X146238Y218618D01*
X146084Y218847D01*
X145336D01*
X144338Y219046D01*
X143491Y219612D01*
X141443Y221660D01*
X141005Y221573D01*
X139392Y221893D01*
X138025Y222807D01*
X137111Y224174D01*
X136791Y225787D01*
X137111Y227400D01*
X138025Y228768D01*
X139392Y229681D01*
X141005Y230002D01*
D02*
G37*
G36*
X214026Y213758D02*
Y211130D01*
X211398D01*
X211544Y211865D01*
X212244Y212912D01*
X213291Y213612D01*
X214026Y213758D01*
D02*
G37*
G36*
X308917Y213768D02*
X309652Y213622D01*
X310699Y212922D01*
X311398Y211875D01*
X311544Y211140D01*
X308917D01*
Y213768D01*
D02*
G37*
G36*
X408434Y252424D02*
X408862Y252339D01*
X409649Y251813D01*
X409844Y251521D01*
X411025D01*
X411220Y251813D01*
X412007Y252339D01*
X412434Y252424D01*
Y246358D01*
Y240293D01*
X412007Y240378D01*
X411220Y240904D01*
X411025Y241196D01*
X409844D01*
X409649Y240904D01*
X408862Y240378D01*
X408434Y240293D01*
Y246358D01*
Y252424D01*
D02*
G37*
G36*
X195033Y260930D02*
X197661D01*
X197515Y260195D01*
X196815Y259148D01*
X195768Y258448D01*
X195033Y258302D01*
Y260930D01*
D02*
G37*
G36*
X422934Y253510D02*
X424240Y253251D01*
X425347Y252511D01*
X426087Y251404D01*
X426346Y250098D01*
Y242618D01*
X426087Y241313D01*
X425347Y240206D01*
X424240Y239466D01*
X422934Y239206D01*
X421629Y239466D01*
X420522Y240206D01*
X420394Y240397D01*
X419235Y240628D01*
X418862Y240378D01*
X418434Y240293D01*
Y246358D01*
Y252424D01*
X418862Y252339D01*
X419235Y252089D01*
X420394Y252320D01*
X420522Y252511D01*
X421629Y253251D01*
X422934Y253510D01*
D02*
G37*
G36*
X413434Y252424D02*
X413862Y252339D01*
X414649Y251813D01*
X414844Y251521D01*
X416025D01*
X416220Y251813D01*
X417006Y252339D01*
X417434Y252424D01*
Y246358D01*
Y240293D01*
X417006Y240378D01*
X416220Y240904D01*
X416025Y241196D01*
X414844D01*
X414649Y240904D01*
X413862Y240378D01*
X413434Y240293D01*
Y246358D01*
Y252424D01*
D02*
G37*
G36*
X194033Y264558D02*
Y261930D01*
X191405D01*
X191551Y262665D01*
X192251Y263712D01*
X193298Y264412D01*
X194033Y264558D01*
D02*
G37*
G36*
X312076Y270661D02*
X314704D01*
X314558Y269926D01*
X313858Y268879D01*
X312811Y268180D01*
X312076Y268034D01*
Y270661D01*
D02*
G37*
G36*
X191405Y260930D02*
X194033D01*
Y258302D01*
X193298Y258448D01*
X192251Y259148D01*
X191551Y260195D01*
X191405Y260930D01*
D02*
G37*
G36*
X195033Y264558D02*
X195768Y264412D01*
X196815Y263712D01*
X197515Y262665D01*
X197661Y261930D01*
X195033D01*
Y264558D01*
D02*
G37*
G36*
X149076Y242200D02*
X150840D01*
Y239673D01*
X146149D01*
X146280Y240332D01*
X146936Y241313D01*
X147918Y241969D01*
X149076Y242200D01*
D02*
G37*
G36*
X146149Y238673D02*
X150840D01*
Y236147D01*
X149076D01*
X147918Y236377D01*
X146936Y237033D01*
X146280Y238015D01*
X146149Y238673D01*
D02*
G37*
G36*
X137470Y242203D02*
X138205Y242056D01*
X139252Y241357D01*
X139952Y240310D01*
X140098Y239575D01*
X137470D01*
Y242203D01*
D02*
G37*
G36*
X178433Y238673D02*
X183124D01*
Y236147D01*
X181360D01*
X180201Y236377D01*
X179220Y237033D01*
X178563Y238015D01*
X178433Y238673D01*
D02*
G37*
G36*
X151840D02*
X156531D01*
X156400Y238015D01*
X155744Y237033D01*
X154762Y236377D01*
X153604Y236147D01*
X151840D01*
Y238673D01*
D02*
G37*
G36*
X181360Y242200D02*
X183124D01*
Y239673D01*
X178433D01*
X178563Y240332D01*
X179220Y241313D01*
X180201Y241969D01*
X181360Y242200D01*
D02*
G37*
G36*
X151840D02*
X153604D01*
X154762Y241969D01*
X155744Y241313D01*
X156400Y240332D01*
X156531Y239673D01*
X151840D01*
Y242200D01*
D02*
G37*
G36*
X136470Y242203D02*
Y239575D01*
X133842D01*
X133988Y240310D01*
X134688Y241357D01*
X135735Y242056D01*
X136470Y242203D01*
D02*
G37*
G36*
X184124Y242200D02*
X185887D01*
X187046Y241969D01*
X188028Y241313D01*
X188684Y240332D01*
X188814Y239673D01*
X184124D01*
Y242200D01*
D02*
G37*
G36*
X329481Y240053D02*
X331094Y239732D01*
X332461Y238819D01*
X333375Y237451D01*
X333696Y235838D01*
X333375Y234225D01*
X332461Y232858D01*
X332090Y232610D01*
Y221655D01*
X331943Y220916D01*
X331995Y220906D01*
X333042Y220206D01*
X333742Y219159D01*
X333888Y218424D01*
X330760D01*
Y217924D01*
X330260D01*
Y214796D01*
X329525Y214942D01*
X328478Y215642D01*
X328466Y215660D01*
X327453Y215760D01*
X326578Y214966D01*
Y205699D01*
X326949Y205451D01*
X327863Y204083D01*
X328183Y202470D01*
X327863Y200858D01*
X326949Y199490D01*
X325582Y198576D01*
X323969Y198256D01*
X322356Y198576D01*
X320988Y199490D01*
X320075Y200858D01*
X319754Y202470D01*
X320075Y204083D01*
X320988Y205451D01*
X321359Y205699D01*
Y216143D01*
X321558Y217142D01*
X322124Y217988D01*
X326871Y222736D01*
Y232610D01*
X326500Y232858D01*
X325587Y234225D01*
X325266Y235838D01*
X325587Y237451D01*
X326500Y238819D01*
X327868Y239732D01*
X329481Y240053D01*
D02*
G37*
G36*
X363257Y100426D02*
X365068Y100066D01*
X367026Y98757D01*
X368335Y96799D01*
X368695Y94988D01*
X363257D01*
Y100426D01*
D02*
G37*
G36*
X362257D02*
Y94988D01*
X356819D01*
X357179Y96799D01*
X358488Y98757D01*
X360447Y100066D01*
X362257Y100426D01*
D02*
G37*
G36*
X394753D02*
X396564Y100066D01*
X398522Y98757D01*
X399831Y96799D01*
X400191Y94988D01*
X394753D01*
Y100426D01*
D02*
G37*
G36*
X393753D02*
Y94988D01*
X388316D01*
X388676Y96799D01*
X389984Y98757D01*
X391943Y100066D01*
X393753Y100426D01*
D02*
G37*
G36*
X393158Y127256D02*
X397592D01*
Y122822D01*
X396166Y123105D01*
X394532Y124197D01*
X393441Y125830D01*
X393158Y127256D01*
D02*
G37*
G36*
X383131Y140030D02*
X409116D01*
X410498Y139755D01*
X411670Y138972D01*
X417016Y133626D01*
X417777Y133777D01*
X420081Y133319D01*
X422035Y132014D01*
X423340Y130060D01*
X423798Y127756D01*
X423340Y125452D01*
X422035Y123498D01*
X421390Y123067D01*
Y102264D01*
X421115Y100881D01*
X420331Y99709D01*
X416708Y96086D01*
X417026Y94488D01*
X416491Y91800D01*
X414969Y89521D01*
X412690Y87998D01*
X410001Y87463D01*
X408404Y87781D01*
X402517Y81894D01*
X401344Y81111D01*
X399962Y80836D01*
X388545D01*
X387162Y81111D01*
X385990Y81894D01*
X380103Y87781D01*
X378505Y87463D01*
X375817Y87998D01*
X373538Y89521D01*
X372015Y91800D01*
X371481Y94488D01*
X372015Y97176D01*
X373538Y99455D01*
X375817Y100978D01*
X378505Y101513D01*
X381194Y100978D01*
X383473Y99455D01*
X384995Y97176D01*
X385530Y94488D01*
X385212Y92890D01*
X390041Y88061D01*
X391179D01*
X391522Y89192D01*
X389984Y90219D01*
X388676Y92178D01*
X388316Y93988D01*
X400191D01*
X399831Y92178D01*
X398522Y90219D01*
X396985Y89192D01*
X397328Y88061D01*
X398466D01*
X403295Y92890D01*
X402977Y94488D01*
X403511Y97176D01*
X405034Y99455D01*
X407313Y100978D01*
X410001Y101513D01*
X411599Y101195D01*
X414164Y103760D01*
Y123067D01*
X413519Y123498D01*
X412214Y125452D01*
X411756Y127756D01*
X411907Y128517D01*
X407619Y132805D01*
X401457D01*
X401114Y131674D01*
X401651Y131315D01*
X402742Y129682D01*
X403026Y128256D01*
X393158D01*
X393441Y129682D01*
X394532Y131315D01*
X395070Y131674D01*
X394727Y132805D01*
X384628D01*
X381639Y129815D01*
X381657Y129724D01*
X381259Y127727D01*
X380128Y126034D01*
X378435Y124903D01*
X376438Y124506D01*
X374441Y124903D01*
X372748Y126034D01*
X371617Y127727D01*
X371220Y129724D01*
X371617Y131721D01*
X372748Y133414D01*
X374441Y134546D01*
X376438Y134943D01*
X376530Y134925D01*
X380577Y138972D01*
X381749Y139755D01*
X383131Y140030D01*
D02*
G37*
G36*
X294647Y146144D02*
X296260Y145823D01*
X297627Y144910D01*
X298541Y143542D01*
X298862Y141929D01*
X298541Y140316D01*
X297627Y138949D01*
X296666Y138306D01*
Y103819D01*
X297037Y103571D01*
X297951Y102204D01*
X298271Y100591D01*
X297951Y98978D01*
X297037Y97610D01*
X295669Y96697D01*
X294057Y96376D01*
X292443Y96697D01*
X291076Y97610D01*
X290162Y98978D01*
X289842Y100591D01*
X290162Y102204D01*
X291076Y103571D01*
X291447Y103819D01*
Y139277D01*
X290753Y140316D01*
X290432Y141929D01*
X290753Y143542D01*
X291667Y144910D01*
X293034Y145823D01*
X294647Y146144D01*
D02*
G37*
G36*
X398592Y127256D02*
X403026D01*
X402742Y125830D01*
X401651Y124197D01*
X400018Y123105D01*
X398592Y122822D01*
Y127256D01*
D02*
G37*
G36*
X356819Y93988D02*
X362257D01*
Y88550D01*
X360447Y88911D01*
X358488Y90219D01*
X357179Y92178D01*
X356819Y93988D01*
D02*
G37*
G36*
X410001Y66080D02*
X412690Y65545D01*
X414969Y64022D01*
X416491Y61743D01*
X417026Y59055D01*
X416491Y56367D01*
X414969Y54088D01*
X412690Y52565D01*
X410001Y52030D01*
X407313Y52565D01*
X405034Y54088D01*
X403511Y56367D01*
X402977Y59055D01*
X403511Y61743D01*
X405034Y64022D01*
X407313Y65545D01*
X410001Y66080D01*
D02*
G37*
G36*
X394253D02*
X396942Y65545D01*
X399221Y64022D01*
X400743Y61743D01*
X401278Y59055D01*
X400743Y56367D01*
X399221Y54088D01*
X396942Y52565D01*
X394253Y52030D01*
X391565Y52565D01*
X389286Y54088D01*
X387763Y56367D01*
X387229Y59055D01*
X387763Y61743D01*
X389286Y64022D01*
X391565Y65545D01*
X394253Y66080D01*
D02*
G37*
G36*
X323657Y30996D02*
X327690D01*
Y26963D01*
X326418Y27216D01*
X324915Y28220D01*
X323911Y29723D01*
X323657Y30996D01*
D02*
G37*
G36*
X304314Y54126D02*
X306942D01*
Y51498D01*
X306207Y51644D01*
X305160Y52344D01*
X304461Y53391D01*
X304314Y54126D01*
D02*
G37*
G36*
X306942Y57754D02*
Y55126D01*
X304314D01*
X304461Y55861D01*
X305160Y56908D01*
X306207Y57608D01*
X306942Y57754D01*
D02*
G37*
G36*
X363257Y93988D02*
X368695D01*
X368335Y92178D01*
X367026Y90219D01*
X365068Y88911D01*
X363257Y88550D01*
Y93988D01*
D02*
G37*
G36*
X378505Y66080D02*
X381194Y65545D01*
X383473Y64022D01*
X384995Y61743D01*
X385530Y59055D01*
X384995Y56367D01*
X383473Y54088D01*
X381194Y52565D01*
X378505Y52030D01*
X375817Y52565D01*
X373538Y54088D01*
X372015Y56367D01*
X371481Y59055D01*
X372015Y61743D01*
X373538Y64022D01*
X375817Y65545D01*
X378505Y66080D01*
D02*
G37*
G36*
X362757D02*
X365445Y65545D01*
X367724Y64022D01*
X369247Y61743D01*
X369782Y59055D01*
X369247Y56367D01*
X367724Y54088D01*
X365445Y52565D01*
X362757Y52030D01*
X360069Y52565D01*
X357790Y54088D01*
X356267Y56367D01*
X355732Y59055D01*
X356267Y61743D01*
X357790Y64022D01*
X360069Y65545D01*
X362757Y66080D01*
D02*
G37*
G36*
X310998Y183564D02*
X313626D01*
Y180936D01*
X312891Y181082D01*
X311843Y181782D01*
X311144Y182829D01*
X310998Y183564D01*
D02*
G37*
G36*
X314626Y187192D02*
X315361Y187046D01*
X316408Y186346D01*
X317107Y185299D01*
X317253Y184564D01*
X314626D01*
Y187192D01*
D02*
G37*
G36*
X412643Y172555D02*
X418852D01*
Y165658D01*
X412643D01*
Y172555D01*
D02*
G37*
G36*
X314626Y183564D02*
X317253D01*
X317107Y182829D01*
X316408Y181782D01*
X315361Y181082D01*
X314626Y180936D01*
Y183564D01*
D02*
G37*
G36*
X424183Y196768D02*
X427340D01*
Y193217D01*
X424183D01*
Y196768D01*
D02*
G37*
G36*
X213702Y205234D02*
X216006Y204776D01*
X217960Y203470D01*
X219265Y201517D01*
X219723Y199213D01*
X219265Y196908D01*
X217960Y194955D01*
X216006Y193650D01*
X213702Y193191D01*
X211398Y193650D01*
X210649Y194150D01*
X209608Y193593D01*
Y193307D01*
X197797D01*
Y205118D01*
X209608D01*
Y204832D01*
X210649Y204275D01*
X211398Y204776D01*
X213702Y205234D01*
D02*
G37*
G36*
X313626Y187192D02*
Y184564D01*
X310998D01*
X311144Y185299D01*
X311843Y186346D01*
X312891Y187046D01*
X313626Y187192D01*
D02*
G37*
G36*
X424183Y192217D02*
X427340D01*
Y188665D01*
X424183D01*
Y192217D01*
D02*
G37*
G36*
X419852Y172555D02*
X426060D01*
Y165658D01*
X419852D01*
Y172555D01*
D02*
G37*
G36*
X224562Y149986D02*
X225297Y149839D01*
X226344Y149140D01*
X227044Y148093D01*
X227190Y147358D01*
X224562D01*
Y149986D01*
D02*
G37*
G36*
X223562D02*
Y147358D01*
X220934D01*
X221080Y148093D01*
X221780Y149140D01*
X222827Y149839D01*
X223562Y149986D01*
D02*
G37*
G36*
X224562Y146358D02*
X227190D01*
X227044Y145623D01*
X226344Y144576D01*
X225297Y143876D01*
X224562Y143730D01*
Y146358D01*
D02*
G37*
G36*
X220934D02*
X223562D01*
Y143730D01*
X222827Y143876D01*
X221780Y144576D01*
X221080Y145623D01*
X220934Y146358D01*
D02*
G37*
G36*
X419852Y164658D02*
X426060D01*
Y157760D01*
X419852D01*
Y164658D01*
D02*
G37*
G36*
X412643D02*
X418852D01*
Y157760D01*
X412643D01*
Y164658D01*
D02*
G37*
G36*
X213046Y153543D02*
X215674D01*
X215528Y152808D01*
X214828Y151761D01*
X213781Y151061D01*
X213046Y150915D01*
Y153543D01*
D02*
G37*
G36*
Y157171D02*
X213781Y157025D01*
X214828Y156325D01*
X215528Y155278D01*
X215674Y154543D01*
X213046D01*
Y157171D01*
D02*
G37*
G36*
X420246Y270957D02*
X425076D01*
Y268783D01*
X420246D01*
Y270957D01*
D02*
G37*
G36*
X219655Y472236D02*
X222283D01*
X222137Y471501D01*
X221437Y470454D01*
X220390Y469755D01*
X219655Y469608D01*
Y472236D01*
D02*
G37*
G36*
X230383Y474523D02*
X233011D01*
Y471895D01*
X232276Y472042D01*
X231229Y472741D01*
X230530Y473788D01*
X230383Y474523D01*
D02*
G37*
G36*
X171919Y468201D02*
X176610D01*
X176479Y467543D01*
X175823Y466561D01*
X174841Y465905D01*
X173683Y465674D01*
X171919D01*
Y468201D01*
D02*
G37*
G36*
X166228D02*
X170919D01*
Y465674D01*
X169155D01*
X167997Y465905D01*
X167015Y466561D01*
X166359Y467543D01*
X166228Y468201D01*
D02*
G37*
G36*
X191470Y501548D02*
Y497114D01*
X187036D01*
X187319Y498540D01*
X188411Y500174D01*
X190044Y501265D01*
X191470Y501548D01*
D02*
G37*
G36*
X133730Y502650D02*
X136358D01*
X136212Y501915D01*
X135512Y500868D01*
X134465Y500168D01*
X133730Y500022D01*
Y502650D01*
D02*
G37*
G36*
X219655Y475864D02*
X220390Y475718D01*
X221437Y475018D01*
X222137Y473971D01*
X222283Y473236D01*
X219655D01*
Y475864D01*
D02*
G37*
G36*
X233011Y478151D02*
Y475523D01*
X230383D01*
X230530Y476258D01*
X231229Y477305D01*
X232276Y478005D01*
X233011Y478151D01*
D02*
G37*
G36*
X297903Y456414D02*
X300470D01*
Y453256D01*
X297903D01*
Y456414D01*
D02*
G37*
G36*
X294336D02*
X296903D01*
Y453256D01*
X294336D01*
Y456414D01*
D02*
G37*
G36*
X204383Y441711D02*
Y439083D01*
X201755D01*
X201902Y439818D01*
X202601Y440865D01*
X203648Y441564D01*
X204383Y441711D01*
D02*
G37*
G36*
X213446Y458053D02*
X215059Y457733D01*
X216427Y456819D01*
X217340Y455451D01*
X217661Y453839D01*
X217340Y452226D01*
X216427Y450858D01*
X215059Y449945D01*
X213446Y449624D01*
X211833Y449945D01*
X210899Y450569D01*
X209808Y450117D01*
X209675Y449448D01*
X208804Y448146D01*
X207502Y447276D01*
X205966Y446970D01*
X201438D01*
X199902Y447276D01*
X198858Y447974D01*
X176263D01*
X175219Y447276D01*
X173683Y446970D01*
X169155D01*
X167619Y447276D01*
X166317Y448146D01*
X165446Y449448D01*
X165141Y450984D01*
X165446Y452520D01*
X166317Y453823D01*
X167619Y454693D01*
X169155Y454998D01*
X173683D01*
X175219Y454693D01*
X176263Y453995D01*
X198858D01*
X199902Y454693D01*
X201438Y454998D01*
X204026D01*
X204712Y455684D01*
X205558Y456249D01*
X206557Y456448D01*
X210218D01*
X210466Y456819D01*
X211833Y457733D01*
X213446Y458053D01*
D02*
G37*
G36*
X204202Y468201D02*
X208893D01*
X208762Y467543D01*
X208106Y466561D01*
X207124Y465905D01*
X205966Y465674D01*
X204202D01*
Y468201D01*
D02*
G37*
G36*
X198511D02*
X203202D01*
Y465674D01*
X201438D01*
X200280Y465905D01*
X199298Y466561D01*
X198642Y467543D01*
X198511Y468201D01*
D02*
G37*
G36*
X160108Y468004D02*
X162735D01*
X162589Y467269D01*
X161890Y466222D01*
X160843Y465522D01*
X160108Y465376D01*
Y468004D01*
D02*
G37*
G36*
X156480D02*
X159108D01*
Y465376D01*
X158372Y465522D01*
X157325Y466222D01*
X156626Y467269D01*
X156480Y468004D01*
D02*
G37*
G36*
X51930Y601968D02*
X167679D01*
Y574803D01*
X51930D01*
Y601968D01*
D02*
G37*
G36*
X44517Y584146D02*
X48951D01*
X48668Y582719D01*
X47577Y581086D01*
X45943Y579995D01*
X44517Y579711D01*
Y584146D01*
D02*
G37*
G36*
X148584Y567964D02*
X148584Y567964D01*
X148584Y567964D01*
X156458D01*
X157457Y567765D01*
X158303Y567199D01*
X163027Y562475D01*
X163593Y561628D01*
X163792Y560630D01*
Y553364D01*
X198799Y518357D01*
X214726D01*
X215268Y518249D01*
X215724Y518159D01*
X215724Y518159D01*
X215724Y518159D01*
X216150Y517874D01*
X216571Y517593D01*
X218619Y515545D01*
X219057Y515632D01*
X220670Y515311D01*
X222037Y514398D01*
X222285Y514027D01*
X227746D01*
X228745Y513828D01*
X229591Y513262D01*
X237051Y505802D01*
X237489Y505890D01*
X239102Y505569D01*
X240469Y504655D01*
X241383Y503288D01*
X241704Y501675D01*
X241383Y500062D01*
X240499Y498740D01*
Y441584D01*
X279765D01*
Y441772D01*
X283388D01*
X283786Y442884D01*
X283203Y443363D01*
X283120Y443346D01*
X281507Y443667D01*
X280140Y444581D01*
X279226Y445948D01*
X278905Y447561D01*
X279226Y449174D01*
X280140Y450542D01*
X281507Y451455D01*
X283120Y451776D01*
X283438Y451713D01*
X284312Y452587D01*
Y457382D01*
X292383D01*
Y448130D01*
X292186D01*
Y444637D01*
X294139D01*
Y445563D01*
X297206D01*
Y446563D01*
X294139D01*
Y449720D01*
X294336D01*
Y452256D01*
X300470D01*
Y449098D01*
X300470D01*
X300310Y448905D01*
X300451Y448174D01*
X301609Y447940D01*
X301814Y448247D01*
X302861Y448946D01*
X303596Y449092D01*
Y445965D01*
X304596D01*
Y449092D01*
X305331Y448946D01*
X306378Y448247D01*
X307078Y447200D01*
X307200Y446583D01*
X307531Y446362D01*
X307531Y446362D01*
Y446362D01*
X309144Y446042D01*
X310511Y445128D01*
X311425Y443760D01*
X311746Y442148D01*
X311425Y440535D01*
X310511Y439167D01*
X309144Y438254D01*
X307531Y437933D01*
X305918Y438254D01*
X304550Y439167D01*
X304383Y439418D01*
X292362D01*
X291616Y438672D01*
Y435787D01*
X279765D01*
Y436366D01*
X238899D01*
X238641Y436193D01*
X238641Y436193D01*
X238641Y436193D01*
D01*
X238641Y436193D01*
X238641Y436193D01*
X237489Y435964D01*
X219524D01*
X218202Y435081D01*
X216589Y434760D01*
X214976Y435081D01*
X213608Y435994D01*
X212695Y437362D01*
X212374Y438975D01*
X212695Y440588D01*
X213608Y441955D01*
X214976Y442869D01*
X216589Y443190D01*
X218202Y442869D01*
X219524Y441985D01*
X234478D01*
Y471057D01*
X234011Y471440D01*
Y475023D01*
Y478606D01*
X234478Y478989D01*
Y498740D01*
X233595Y500062D01*
X233274Y501675D01*
X233361Y502113D01*
X226665Y508808D01*
X222285D01*
X222037Y508437D01*
X220670Y507523D01*
X219057Y507203D01*
X217444Y507523D01*
X216076Y508437D01*
X215163Y509804D01*
X214842Y511417D01*
X214929Y511855D01*
X213645Y513139D01*
X197718D01*
X196720Y513337D01*
X195873Y513903D01*
X195873Y513903D01*
X159337Y550439D01*
X159337D01*
X158304Y550439D01*
X158490Y550495D01*
X158033Y550356D01*
Y544390D01*
X152521D01*
Y536811D01*
X156261D01*
Y526083D01*
X158033D01*
Y516831D01*
X149962D01*
Y516831D01*
X149962D01*
X149962Y516831D01*
X148978D01*
Y516831D01*
X147552D01*
Y492911D01*
X164625Y475838D01*
X208741D01*
X208989Y476209D01*
X210357Y477122D01*
X211970Y477443D01*
X213583Y477122D01*
X214950Y476209D01*
X215864Y474841D01*
X215864Y474841D01*
Y474841D01*
X216873Y475018D01*
X217920Y475718D01*
X218655Y475864D01*
Y472736D01*
Y469608D01*
X217920Y469755D01*
X216873Y470454D01*
X216571Y470906D01*
X215390D01*
X214950Y470248D01*
X213583Y469334D01*
X211970Y469014D01*
X210357Y469334D01*
X209921Y469625D01*
X209286Y469201D01*
X198511D01*
X198612Y469706D01*
X197862Y470619D01*
X177259D01*
X176509Y469706D01*
X176610Y469201D01*
X166228D01*
X166328Y469706D01*
X165579Y470619D01*
X163545D01*
X162546Y470818D01*
X162546Y470818D01*
X162589Y469739D01*
X162589Y469739D01*
X162589Y469739D01*
X162735Y469004D01*
X156480D01*
X156626Y469739D01*
X157325Y470786D01*
X158372Y471486D01*
X159608Y471731D01*
X159790Y471695D01*
X160346Y472737D01*
X143097Y489986D01*
X142532Y490832D01*
X142333Y491831D01*
X142333Y491831D01*
X142333Y491831D01*
Y491831D01*
Y509775D01*
X141203Y510118D01*
X140738Y509421D01*
X139370Y508508D01*
X137757Y508187D01*
X136144Y508508D01*
X134777Y509421D01*
X134529Y509792D01*
X122994D01*
X121995Y509991D01*
X121149Y510557D01*
X117507Y514198D01*
X116941Y515045D01*
X116743Y516043D01*
Y516831D01*
X115316D01*
Y526083D01*
X117383D01*
X118056Y526756D01*
X118056Y526918D01*
X118056Y526918D01*
X118056D01*
Y530799D01*
X120139D01*
Y531299D01*
X120639D01*
Y535843D01*
X120828D01*
Y544390D01*
X115316D01*
Y553642D01*
D01*
Y553642D01*
X115316Y553642D01*
X115316Y553838D01*
X115316D01*
Y563878D01*
X132442D01*
Y561467D01*
X140907D01*
Y563878D01*
X143507D01*
X143688Y564148D01*
X146739Y567199D01*
X146739Y567199D01*
X146739Y567199D01*
X147128Y567459D01*
X147585Y567765D01*
X147585Y567765D01*
X147585Y567765D01*
X148025Y567852D01*
X148584Y567964D01*
D02*
G37*
G36*
X468464Y604638D02*
X470077Y604317D01*
X471444Y603403D01*
X471692Y603032D01*
X477393D01*
X478392Y602834D01*
X479238Y602268D01*
X501315Y580191D01*
X501880Y579345D01*
X502079Y578346D01*
Y490172D01*
X502079Y490172D01*
X502079D01*
X501880Y489174D01*
X501315Y488327D01*
X464807Y451819D01*
X463960Y451253D01*
X462962Y451055D01*
X337926D01*
X337678Y450683D01*
X336310Y449770D01*
X334697Y449449D01*
X333085Y449770D01*
X331717Y450683D01*
X330803Y452051D01*
X330586Y453144D01*
X329353Y453390D01*
X327986Y454303D01*
X327072Y455670D01*
X326751Y457283D01*
D01*
D01*
X326143Y457498D01*
X326143Y457498D01*
Y457498D01*
X324530Y457819D01*
X323163Y458732D01*
X322249Y460100D01*
X322065Y461026D01*
X321083Y461682D01*
X320828Y461632D01*
X319215Y461952D01*
X317848Y462866D01*
X316934Y464233D01*
X316613Y465846D01*
X316934Y467459D01*
X317848Y468827D01*
X319215Y469740D01*
X320828Y470061D01*
X322441Y469740D01*
X323809Y468827D01*
X324057Y468456D01*
X465712D01*
X490857Y493600D01*
Y571557D01*
X482269Y580145D01*
X481094Y580029D01*
X480187Y578672D01*
X478494Y577541D01*
X476497Y577144D01*
X474500Y577541D01*
X472807Y578672D01*
X472088Y579749D01*
X470907D01*
X470187Y578672D01*
X468494Y577541D01*
X466497Y577144D01*
X464500Y577541D01*
X462807Y578672D01*
X462088Y579749D01*
X460907D01*
X460187Y578672D01*
X458494Y577541D01*
X456497Y577144D01*
X454500Y577541D01*
X452807Y578672D01*
X452088Y579749D01*
X450907D01*
X450187Y578672D01*
X449275Y578063D01*
X449275Y576882D01*
X449399Y576799D01*
X450313Y575432D01*
X450634Y573819D01*
X450551Y573404D01*
X451300Y572491D01*
X453033D01*
X453281Y572862D01*
X454648Y573776D01*
X456261Y574097D01*
X457874Y573776D01*
X459241Y572862D01*
X460155Y571495D01*
X460476Y569882D01*
X460198Y568483D01*
X460947Y567570D01*
X462875D01*
X463123Y567941D01*
X464491Y568855D01*
X466104Y569175D01*
X467717Y568855D01*
X469084Y567941D01*
X469998Y566573D01*
X470319Y564961D01*
X470236Y564546D01*
X470985Y563633D01*
X472718D01*
X472966Y564004D01*
X474333Y564918D01*
X475946Y565238D01*
X477559Y564918D01*
X478927Y564004D01*
X479840Y562637D01*
X480161Y561024D01*
X479840Y559411D01*
X478927Y558043D01*
X477559Y557130D01*
X475946Y556809D01*
X474333Y557130D01*
X472966Y558043D01*
X472718Y558414D01*
X420119D01*
X419872Y558043D01*
X418504Y557130D01*
X416891Y556809D01*
X415278Y557130D01*
X413911Y558043D01*
X413663Y558414D01*
X389608D01*
X389360Y558043D01*
X387992Y557130D01*
X386379Y556809D01*
X384766Y557130D01*
X383399Y558043D01*
X383151Y558414D01*
X329568D01*
X329320Y558043D01*
X327953Y557130D01*
X326340Y556809D01*
X324727Y557130D01*
X323360Y558043D01*
X322446Y559411D01*
X322125Y561024D01*
X322446Y562637D01*
X323360Y564004D01*
X324727Y564918D01*
X326340Y565238D01*
X327953Y564918D01*
X329320Y564004D01*
X329568Y563633D01*
X371851D01*
X372600Y564546D01*
X372322Y565945D01*
X372404Y566359D01*
X371655Y567272D01*
X369922D01*
X369675Y566901D01*
X368307Y565988D01*
X366694Y565667D01*
X365081Y565988D01*
X363714Y566901D01*
X363466Y567273D01*
X319726D01*
X319478Y566901D01*
X318110Y565988D01*
X316497Y565667D01*
X314884Y565988D01*
X313517Y566901D01*
X312603Y568269D01*
X312282Y569882D01*
X312365Y570297D01*
X311616Y571210D01*
X309883D01*
X309635Y570839D01*
X308268Y569925D01*
X306655Y569604D01*
X305042Y569925D01*
X303675Y570839D01*
X302761Y572206D01*
X302440Y573819D01*
X302761Y575432D01*
X303675Y576799D01*
X303759Y576856D01*
Y578037D01*
X302807Y578672D01*
X301676Y580365D01*
X301279Y582362D01*
X301676Y584359D01*
X302807Y586052D01*
X304500Y587183D01*
X306497Y587581D01*
X308494Y587183D01*
X310187Y586052D01*
X310907Y584975D01*
X312088D01*
X312807Y586052D01*
X314500Y587183D01*
X316497Y587581D01*
X318494Y587183D01*
X320187Y586052D01*
X320907Y584975D01*
X322088D01*
X322807Y586052D01*
X324500Y587183D01*
X326497Y587581D01*
X328494Y587183D01*
X330187Y586052D01*
X330907Y584975D01*
X332088D01*
X332807Y586052D01*
X334500Y587183D01*
X336497Y587581D01*
X338494Y587183D01*
X340187Y586052D01*
X340907Y584975D01*
X342088D01*
X342807Y586052D01*
X343153Y586283D01*
Y587464D01*
X342257Y588063D01*
X341344Y589430D01*
X341023Y591043D01*
X341344Y592656D01*
X342257Y594024D01*
X343625Y594937D01*
X345238Y595258D01*
X346851Y594937D01*
X348037Y594145D01*
X376793D01*
X377542Y595058D01*
X377532Y595108D01*
X377853Y596721D01*
X378767Y598088D01*
X380134Y599002D01*
X381747Y599323D01*
X383360Y599002D01*
X384727Y598088D01*
X385126Y597491D01*
X428173D01*
X428923Y598404D01*
X428913Y598454D01*
X429233Y600067D01*
X430147Y601435D01*
X431515Y602348D01*
X433127Y602669D01*
X434740Y602348D01*
X436108Y601435D01*
X437021Y600067D01*
X437142Y599460D01*
X463510D01*
X464259Y600373D01*
X464249Y600423D01*
X464570Y602036D01*
X465484Y603403D01*
X466851Y604317D01*
X468464Y604638D01*
D02*
G37*
G36*
X502521Y606415D02*
X504825Y605957D01*
X506779Y604651D01*
X508084Y602698D01*
X508542Y600394D01*
X508084Y598090D01*
X506779Y596136D01*
X504825Y594831D01*
X502521Y594373D01*
X500217Y594831D01*
X498263Y596136D01*
X496958Y598090D01*
X496500Y600394D01*
X496958Y602698D01*
X498263Y604651D01*
X500217Y605957D01*
X502521Y606415D01*
D02*
G37*
G36*
X10395D02*
X12699Y605957D01*
X14653Y604651D01*
X15958Y602698D01*
X16416Y600394D01*
X15958Y598090D01*
X14653Y596136D01*
X12699Y594831D01*
X10395Y594373D01*
X8091Y594831D01*
X6137Y596136D01*
X4832Y598090D01*
X4374Y600394D01*
X4832Y602698D01*
X6137Y604651D01*
X8091Y605957D01*
X10395Y606415D01*
D02*
G37*
G36*
X44517Y589580D02*
X45943Y589296D01*
X47577Y588205D01*
X48668Y586572D01*
X48951Y585146D01*
X44517D01*
Y589580D01*
D02*
G37*
G36*
X28112Y590551D02*
X39923D01*
Y589100D01*
X40964Y588543D01*
X42091Y589296D01*
X43517Y589580D01*
Y584646D01*
Y579711D01*
X42091Y579995D01*
X40964Y580748D01*
X39923Y580191D01*
Y578740D01*
X28112D01*
Y590551D01*
D02*
G37*
G36*
X133730Y506278D02*
X134465Y506131D01*
X135512Y505432D01*
X136212Y504385D01*
X136358Y503650D01*
X133730D01*
Y506278D01*
D02*
G37*
G36*
X132730D02*
Y503650D01*
X130102D01*
X130248Y504385D01*
X130948Y505432D01*
X131995Y506131D01*
X132730Y506278D01*
D02*
G37*
G36*
X130102Y502650D02*
X132730D01*
Y500022D01*
X131995Y500168D01*
X130948Y500868D01*
X130248Y501915D01*
X130102Y502650D01*
D02*
G37*
G36*
X201970Y502635D02*
X204274Y502177D01*
X206228Y500872D01*
X206379Y500645D01*
X207560D01*
X207712Y500872D01*
X209666Y502177D01*
X211970Y502635D01*
X214274Y502177D01*
X216228Y500872D01*
X217533Y498918D01*
X217991Y496614D01*
X217533Y494310D01*
X217033Y493561D01*
X217589Y492520D01*
X217876D01*
Y480709D01*
X206065D01*
Y480995D01*
X205023Y481552D01*
X204274Y481051D01*
X201970Y480593D01*
X199666Y481051D01*
X197712Y482357D01*
X197561Y482584D01*
X196379D01*
X196228Y482357D01*
X194274Y481051D01*
X191970Y480593D01*
X189666Y481051D01*
X187712Y482357D01*
X186407Y484310D01*
X185949Y486614D01*
X186407Y488918D01*
X187712Y490872D01*
X188811Y491606D01*
X188811Y492787D01*
X188411Y493055D01*
X187319Y494688D01*
X187036Y496114D01*
X191970D01*
Y496614D01*
X192470D01*
Y501548D01*
X193896Y501265D01*
X195529Y500174D01*
X195797Y499773D01*
X196978Y499773D01*
X197712Y500872D01*
X199666Y502177D01*
X201970Y502635D01*
D02*
G37*
G36*
X118056Y535843D02*
X119639D01*
Y531799D01*
X118056D01*
Y535843D01*
D02*
G37*
G36*
X327324Y552443D02*
X328937Y552122D01*
X330305Y551209D01*
X330553Y550838D01*
X373308D01*
X373556Y551209D01*
X374924Y552122D01*
X376537Y552443D01*
X378150Y552122D01*
X379517Y551209D01*
X379765Y550838D01*
X412679D01*
X412927Y551209D01*
X414294Y552122D01*
X415907Y552443D01*
X417520Y552122D01*
X418887Y551209D01*
X419801Y549841D01*
X420122Y548228D01*
X420039Y547814D01*
X420789Y546901D01*
X433348D01*
X433596Y547272D01*
X434963Y548185D01*
X436576Y548506D01*
X438189Y548185D01*
X439557Y547272D01*
X439805Y546901D01*
X473702D01*
X473950Y547272D01*
X475318Y548185D01*
X476931Y548506D01*
X478544Y548185D01*
X479911Y547272D01*
X480825Y545904D01*
X481145Y544291D01*
X480825Y542678D01*
X479911Y541311D01*
X478544Y540397D01*
X476931Y540077D01*
X475318Y540397D01*
X473950Y541311D01*
X473702Y541682D01*
X470790D01*
X470040Y540769D01*
X470319Y539370D01*
X469998Y537757D01*
X469084Y536390D01*
X467717Y535476D01*
X466104Y535155D01*
X464491Y535476D01*
X463123Y536390D01*
X462875Y536761D01*
X461143D01*
X460393Y535848D01*
X460476Y535433D01*
X460155Y533820D01*
X459241Y532453D01*
X457874Y531539D01*
X456261Y531218D01*
X454648Y531539D01*
X453281Y532453D01*
X453033Y532824D01*
X451300D01*
X450551Y531911D01*
X450634Y531496D01*
X450313Y529883D01*
X449399Y528516D01*
X448834Y528138D01*
Y526957D01*
X450187Y526052D01*
X450907Y524975D01*
X452088D01*
X452807Y526052D01*
X454500Y527183D01*
X456497Y527581D01*
X458494Y527183D01*
X460187Y526052D01*
X460907Y524975D01*
X462088D01*
X462807Y526052D01*
X464500Y527183D01*
X466497Y527581D01*
X468494Y527183D01*
X470187Y526052D01*
X470249Y525960D01*
X471379Y526303D01*
Y527480D01*
X481615D01*
Y517244D01*
X471379D01*
Y518422D01*
X470249Y518765D01*
X470187Y518672D01*
X468494Y517541D01*
X466497Y517144D01*
X464500Y517541D01*
X462807Y518672D01*
X462088Y519749D01*
X460907D01*
X460187Y518672D01*
X458494Y517541D01*
X456497Y517144D01*
X454500Y517541D01*
X452807Y518672D01*
X452088Y519749D01*
X450907D01*
X450187Y518672D01*
X448494Y517541D01*
X446497Y517144D01*
X444500Y517541D01*
X442807Y518672D01*
X442088Y519749D01*
X440907D01*
X440187Y518672D01*
X438494Y517541D01*
X436497Y517144D01*
X434500Y517541D01*
X432807Y518672D01*
X432088Y519749D01*
X430907D01*
X430187Y518672D01*
X428494Y517541D01*
X426497Y517144D01*
X424500Y517541D01*
X422807Y518672D01*
X422088Y519749D01*
X420907D01*
X420187Y518672D01*
X418494Y517541D01*
X416497Y517144D01*
X414500Y517541D01*
X412807Y518672D01*
X412088Y519749D01*
X410907D01*
X410187Y518672D01*
X408494Y517541D01*
X406497Y517144D01*
X404500Y517541D01*
X402807Y518672D01*
X402088Y519749D01*
X400907D01*
X400187Y518672D01*
X398494Y517541D01*
X396497Y517144D01*
X394500Y517541D01*
X392807Y518672D01*
X392088Y519749D01*
X390907D01*
X390187Y518672D01*
X388494Y517541D01*
X386497Y517144D01*
X384500Y517541D01*
X382807Y518672D01*
X382088Y519749D01*
X380907D01*
X380187Y518672D01*
X378494Y517541D01*
X376497Y517144D01*
X374500Y517541D01*
X372807Y518672D01*
X372088Y519749D01*
X370907D01*
X370187Y518672D01*
X368494Y517541D01*
X366497Y517144D01*
X364500Y517541D01*
X362807Y518672D01*
X362088Y519749D01*
X360907D01*
X360187Y518672D01*
X358494Y517541D01*
X356497Y517144D01*
X354500Y517541D01*
X352807Y518672D01*
X352088Y519749D01*
X350907D01*
X350187Y518672D01*
X348494Y517541D01*
X346497Y517144D01*
X344500Y517541D01*
X342807Y518672D01*
X342088Y519749D01*
X340907D01*
X340187Y518672D01*
X338494Y517541D01*
X336497Y517144D01*
X334500Y517541D01*
X332807Y518672D01*
X332088Y519749D01*
X330907D01*
X330187Y518672D01*
X328494Y517541D01*
X326497Y517144D01*
X324500Y517541D01*
X322807Y518672D01*
X322088Y519749D01*
X320907D01*
X320187Y518672D01*
X318494Y517541D01*
X316497Y517144D01*
X314500Y517541D01*
X312807Y518672D01*
X312088Y519749D01*
X310907D01*
X310187Y518672D01*
X308494Y517541D01*
X306497Y517144D01*
X304500Y517541D01*
X302807Y518672D01*
X301676Y520365D01*
X301279Y522362D01*
X301676Y524359D01*
X302807Y526052D01*
X304201Y526983D01*
Y528164D01*
X303675Y528516D01*
X302761Y529883D01*
X302440Y531496D01*
X302761Y533109D01*
X303675Y534476D01*
X305042Y535390D01*
X306655Y535711D01*
X308268Y535390D01*
X309635Y534476D01*
X309883Y534105D01*
X311616D01*
X312365Y535018D01*
X312282Y535433D01*
X312603Y537046D01*
X313517Y538413D01*
X314884Y539327D01*
X316497Y539648D01*
X318110Y539327D01*
X319478Y538413D01*
X319726Y538042D01*
X332285D01*
X333034Y538955D01*
X332952Y539370D01*
X333273Y540983D01*
X334186Y542350D01*
X335554Y543264D01*
X337167Y543585D01*
X338780Y543264D01*
X340147Y542350D01*
X340395Y541979D01*
X342323D01*
X343073Y542892D01*
X342794Y544291D01*
X342877Y544706D01*
X342128Y545619D01*
X330553D01*
X330305Y545248D01*
X328937Y544334D01*
X327324Y544014D01*
X325711Y544334D01*
X324344Y545248D01*
X323430Y546615D01*
X323109Y548228D01*
X323430Y549841D01*
X324344Y551209D01*
X325711Y552122D01*
X327324Y552443D01*
D02*
G37*
G36*
X260789Y589648D02*
X262402Y589327D01*
X263769Y588413D01*
X264683Y587046D01*
X265004Y585433D01*
X264683Y583820D01*
X263769Y582453D01*
X263398Y582205D01*
Y566221D01*
X263769Y565973D01*
X264683Y564605D01*
X265004Y562992D01*
X264683Y561379D01*
X263769Y560012D01*
X263398Y559764D01*
Y544960D01*
X263769Y544712D01*
X264683Y543345D01*
X265004Y541732D01*
X264683Y540119D01*
X263769Y538752D01*
X263398Y538504D01*
Y528640D01*
X285548Y506490D01*
X285986Y506577D01*
X287598Y506256D01*
X288966Y505342D01*
X289214Y504971D01*
X333151D01*
X333399Y505342D01*
X334766Y506256D01*
X336379Y506577D01*
X337992Y506256D01*
X339360Y505342D01*
X339608Y504971D01*
X370159D01*
X370407Y505342D01*
X371774Y506256D01*
X373387Y506577D01*
X375000Y506256D01*
X376367Y505342D01*
X376616Y504971D01*
X451261D01*
X451509Y505342D01*
X452877Y506256D01*
X454490Y506577D01*
X456103Y506256D01*
X457470Y505342D01*
X458384Y503975D01*
X458704Y502362D01*
X458384Y500749D01*
X457470Y499382D01*
X456103Y498468D01*
X454490Y498147D01*
X452877Y498468D01*
X451509Y499382D01*
X451261Y499753D01*
X376616D01*
X376367Y499382D01*
X375000Y498468D01*
X373387Y498147D01*
X371774Y498468D01*
X370407Y499382D01*
X370159Y499753D01*
X339608D01*
X339360Y499382D01*
X337992Y498468D01*
X336379Y498147D01*
X334766Y498468D01*
X333399Y499382D01*
X333151Y499753D01*
X289214D01*
X288966Y499382D01*
X287598Y498468D01*
X285986Y498147D01*
X284373Y498468D01*
X283005Y499382D01*
X282092Y500749D01*
X281771Y502362D01*
X281858Y502800D01*
X258944Y525714D01*
X258378Y526560D01*
X258180Y527559D01*
X258180Y527559D01*
X258180Y527559D01*
Y527559D01*
Y538504D01*
X257808Y538752D01*
X256895Y540119D01*
X256574Y541732D01*
X256895Y543345D01*
X257808Y544712D01*
X258180Y544960D01*
Y559764D01*
X257808Y560012D01*
X256895Y561379D01*
X256574Y562992D01*
X256895Y564605D01*
X257808Y565973D01*
X258180Y566221D01*
Y582205D01*
X257808Y582453D01*
X256895Y583820D01*
X256574Y585433D01*
X256895Y587046D01*
X257808Y588413D01*
X259176Y589327D01*
X260789Y589648D01*
D02*
G37*
G36*
X217088Y580852D02*
X222876Y580281D01*
X228442Y578593D01*
X233572Y575851D01*
X238068Y572161D01*
X241758Y567665D01*
X244500Y562536D01*
X246188Y556970D01*
X246758Y551181D01*
X246188Y545393D01*
X244500Y539827D01*
X241758Y534697D01*
X238068Y530201D01*
X233572Y526511D01*
X228442Y523769D01*
X222876Y522081D01*
X217088Y521511D01*
X211300Y522081D01*
X205734Y523769D01*
X200604Y526511D01*
X196108Y530201D01*
X192418Y534697D01*
X189676Y539827D01*
X187988Y545393D01*
X187418Y551181D01*
X187988Y556970D01*
X189676Y562536D01*
X192418Y567665D01*
X196108Y572161D01*
X200604Y575851D01*
X205734Y578593D01*
X211300Y580281D01*
X217088Y580852D01*
D02*
G37*
G36*
X138665Y293988D02*
X141293D01*
Y291360D01*
X140558Y291507D01*
X139511Y292206D01*
X138811Y293253D01*
X138665Y293988D01*
D02*
G37*
G36*
X142293Y297616D02*
X143028Y297470D01*
X144075Y296770D01*
X144774Y295723D01*
X144921Y294988D01*
X142293D01*
Y297616D01*
D02*
G37*
G36*
X163271Y293988D02*
X165899D01*
Y291360D01*
X165164Y291507D01*
X164117Y292206D01*
X163417Y293253D01*
X163271Y293988D01*
D02*
G37*
G36*
X142293D02*
X144921D01*
X144774Y293253D01*
X144075Y292206D01*
X143028Y291507D01*
X142293Y291360D01*
Y293988D01*
D02*
G37*
G36*
X153391Y315961D02*
X154974D01*
Y311917D01*
X153391D01*
Y315961D01*
D02*
G37*
G36*
X204286Y347745D02*
X206913D01*
X206767Y347010D01*
X206068Y345963D01*
X205021Y345264D01*
X204286Y345117D01*
Y347745D01*
D02*
G37*
G36*
X141293Y297616D02*
Y294988D01*
X138665D01*
X138811Y295723D01*
X139511Y296770D01*
X140558Y297470D01*
X141293Y297616D01*
D02*
G37*
G36*
X175045Y315961D02*
X176627D01*
Y311917D01*
X175045D01*
Y315961D01*
D02*
G37*
G36*
X420246Y274130D02*
X425076D01*
Y271957D01*
X420246D01*
Y274130D01*
D02*
G37*
G36*
X414415D02*
X419246D01*
Y271957D01*
X414415D01*
Y274130D01*
D02*
G37*
G36*
Y270957D02*
X419246D01*
Y268783D01*
X414415D01*
Y270957D01*
D02*
G37*
G36*
X312076Y274289D02*
X312811Y274143D01*
X313858Y273444D01*
X314558Y272396D01*
X314704Y271661D01*
X312076D01*
Y274289D01*
D02*
G37*
G36*
X352029Y292717D02*
X385100D01*
Y286082D01*
X392383D01*
X392383Y286082D01*
X393344Y285890D01*
X393535Y285852D01*
X394512Y285200D01*
X404613Y275098D01*
X410297D01*
Y267815D01*
X405945D01*
Y252882D01*
X406987Y252325D01*
X407007Y252339D01*
X407434Y252424D01*
Y246358D01*
Y240293D01*
X407007Y240378D01*
X406633Y240628D01*
X405475Y240397D01*
X405347Y240206D01*
X404240Y239466D01*
X402934Y239206D01*
X401629Y239466D01*
X400522Y240206D01*
X400347D01*
X399240Y239466D01*
X397934Y239206D01*
X396629Y239466D01*
X395522Y240206D01*
X395347D01*
X394240Y239466D01*
X392934Y239206D01*
X391629Y239466D01*
X390522Y240206D01*
X389782Y241313D01*
X389522Y242618D01*
Y250098D01*
X389782Y251404D01*
X390522Y252511D01*
X391629Y253251D01*
X392934Y253510D01*
X394240Y253251D01*
X395347Y252511D01*
X395522D01*
X396629Y253251D01*
X397934Y253510D01*
X399011Y253296D01*
X399924Y254046D01*
Y267815D01*
X397698D01*
Y273498D01*
X391136Y280060D01*
X385100D01*
Y273425D01*
X352029D01*
Y280462D01*
X317238D01*
X317045Y279489D01*
X316131Y278122D01*
X314764Y277208D01*
X313151Y276887D01*
X311538Y277208D01*
X310171Y278122D01*
X309257Y279489D01*
X308936Y281102D01*
X309257Y282715D01*
X310171Y284083D01*
X311538Y284996D01*
X313151Y285317D01*
X313709Y285206D01*
X314121Y285482D01*
X315120Y285680D01*
X352029D01*
Y292717D01*
D02*
G37*
G36*
X166899Y293988D02*
X169527D01*
X169381Y293253D01*
X168681Y292206D01*
X167634Y291507D01*
X166899Y291360D01*
Y293988D01*
D02*
G37*
G36*
X146982Y286588D02*
Y282154D01*
X142548D01*
X142831Y283580D01*
X143922Y285213D01*
X145555Y286304D01*
X146982Y286588D01*
D02*
G37*
G36*
X157482Y287675D02*
X159786Y287216D01*
X161739Y285911D01*
X161891Y285684D01*
X163072D01*
X163224Y285911D01*
X165178Y287216D01*
X167482Y287675D01*
X169786Y287216D01*
X171739Y285911D01*
X173045Y283958D01*
X173503Y281653D01*
X173045Y279349D01*
X172544Y278601D01*
X173101Y277559D01*
X173387D01*
Y265748D01*
X161576D01*
Y266034D01*
X160535Y266591D01*
X159786Y266091D01*
X157482Y265632D01*
X155177Y266091D01*
X153224Y267396D01*
X153072Y267623D01*
X151891D01*
X151739Y267396D01*
X149786Y266091D01*
X147482Y265632D01*
X145177Y266091D01*
X143224Y267396D01*
X141919Y269349D01*
X141461Y271654D01*
X141919Y273958D01*
X143224Y275911D01*
X144323Y276645D01*
X144323Y277826D01*
X143922Y278094D01*
X142831Y279727D01*
X142548Y281153D01*
X147482D01*
Y281653D01*
X147982D01*
Y286588D01*
X149408Y286304D01*
X151041Y285213D01*
X151309Y284812D01*
X152490Y284812D01*
X153224Y285911D01*
X155177Y287216D01*
X157482Y287675D01*
D02*
G37*
G36*
X219057Y379636D02*
X221207Y379208D01*
X223030Y377990D01*
X224249Y376166D01*
X224372Y375548D01*
X225553D01*
X225676Y376166D01*
X226894Y377990D01*
X228717Y379208D01*
X230868Y379636D01*
X233018Y379208D01*
X234841Y377990D01*
X236060Y376166D01*
X236487Y374016D01*
X236060Y371865D01*
X234841Y370042D01*
X233018Y368824D01*
X230868Y368396D01*
X228717Y368824D01*
X226894Y370042D01*
X225676Y371865D01*
X225553Y372483D01*
X224372D01*
X224249Y371865D01*
X223030Y370042D01*
X221207Y368824D01*
X219057Y368396D01*
X216906Y368824D01*
X215083Y370042D01*
X213865Y371865D01*
X213437Y374016D01*
X213865Y376166D01*
X215083Y377990D01*
X216906Y379208D01*
X219057Y379636D01*
D02*
G37*
G36*
X207310Y394372D02*
X208923Y394052D01*
X210290Y393138D01*
X210538Y392767D01*
X245749D01*
X245997Y393138D01*
X247365Y394052D01*
X248978Y394372D01*
X250591Y394052D01*
X251958Y393138D01*
X252206Y392767D01*
X291596D01*
X292594Y392568D01*
X293441Y392002D01*
X307497Y377947D01*
X307934Y378034D01*
X309547Y377713D01*
X310915Y376799D01*
X311828Y375432D01*
X312149Y373819D01*
X311828Y372206D01*
X310915Y370839D01*
X309547Y369925D01*
X307934Y369604D01*
X306322Y369925D01*
X304954Y370839D01*
X304041Y372206D01*
X303720Y373819D01*
X303807Y374257D01*
X290515Y387548D01*
X252206D01*
X251958Y387177D01*
X250591Y386263D01*
X248978Y385943D01*
X247365Y386263D01*
X245997Y387177D01*
X245749Y387548D01*
X210538D01*
X210290Y387177D01*
X208923Y386263D01*
X207310Y385943D01*
X206872Y386030D01*
X188719Y367877D01*
X188806Y367439D01*
X188486Y365826D01*
X187572Y364459D01*
X187201Y364211D01*
Y353921D01*
X187002Y352923D01*
X186437Y352076D01*
X186388Y352027D01*
X186840Y350936D01*
X188446D01*
X189445Y350737D01*
X190291Y350172D01*
X195114Y345349D01*
X195680Y344502D01*
X195878Y343504D01*
Y311205D01*
X195939Y311165D01*
X196852Y309797D01*
X197173Y308184D01*
X196852Y306571D01*
X195939Y305204D01*
X195878Y305164D01*
Y300295D01*
X195680Y299297D01*
X195114Y298450D01*
X188928Y292264D01*
X188081Y291698D01*
X187083Y291500D01*
X185950D01*
X185702Y291128D01*
X184335Y290215D01*
X182721Y289894D01*
X181109Y290215D01*
X179741Y291128D01*
D01*
X179741Y291128D01*
X179123Y290819D01*
X179123Y290819D01*
Y290819D01*
X177756Y289905D01*
X176143Y289584D01*
X174530Y289905D01*
X173163Y290819D01*
X172249Y292186D01*
X171928Y293799D01*
X172249Y295412D01*
X172305Y295495D01*
X172305Y296949D01*
X172305D01*
Y306201D01*
X175045D01*
Y306874D01*
X175045D01*
Y310917D01*
X177127D01*
Y311417D01*
X177627D01*
Y315961D01*
X177816D01*
Y323968D01*
X177276Y324508D01*
X172305D01*
Y333760D01*
D01*
Y333760D01*
X172305Y333760D01*
X172304Y334350D01*
X172304D01*
Y344390D01*
X174321D01*
Y345718D01*
X168127D01*
X167471Y344736D01*
X167777Y343996D01*
X167777D01*
X167777Y343996D01*
Y333957D01*
D01*
D01*
X167777Y333957D01*
X167777Y333760D01*
X167777D01*
Y324508D01*
X162806D01*
X162265Y323967D01*
Y316929D01*
X166005D01*
Y306201D01*
X167777D01*
Y297374D01*
X168681Y296770D01*
X169381Y295723D01*
X169527Y294988D01*
X163271D01*
X163417Y295723D01*
X163540Y295907D01*
X162983Y296949D01*
X159706D01*
Y296949D01*
X159706D01*
X159706Y296949D01*
X158722D01*
Y296949D01*
X150651D01*
Y298966D01*
X149864D01*
X148865Y299164D01*
X148019Y299730D01*
X146266Y301483D01*
X145828Y301395D01*
X144215Y301716D01*
X142848Y302630D01*
X141934Y303997D01*
X141613Y305610D01*
X141934Y307223D01*
X142848Y308591D01*
X144215Y309504D01*
X145828Y309825D01*
X147441Y309504D01*
X148809Y308591D01*
X149722Y307223D01*
X149925Y306201D01*
X150651D01*
Y306201D01*
X152718D01*
X153391Y306874D01*
X153391Y307036D01*
X153391Y307036D01*
X153391D01*
Y310917D01*
X155474D01*
Y311417D01*
X155974D01*
Y315961D01*
X156163D01*
Y324508D01*
X150651D01*
Y333760D01*
D01*
Y333760D01*
X150651Y333760D01*
X150651Y333957D01*
X150651D01*
Y343996D01*
X160542D01*
Y344587D01*
X160740Y345585D01*
X161306Y346432D01*
X165046Y350172D01*
X165893Y350737D01*
X166891Y350936D01*
X177917D01*
X181983Y355002D01*
Y364211D01*
X181611Y364459D01*
X180698Y365826D01*
X180377Y367439D01*
X180698Y369052D01*
X181611Y370420D01*
X182979Y371333D01*
X184592Y371654D01*
X185029Y371567D01*
X203182Y389720D01*
X203095Y390158D01*
X203416Y391770D01*
X204330Y393138D01*
X205697Y394052D01*
X207310Y394372D01*
D02*
G37*
G36*
X282049Y379636D02*
X284199Y379208D01*
X286022Y377990D01*
X287241Y376166D01*
X287364Y375548D01*
X288545D01*
X288668Y376166D01*
X289886Y377990D01*
X291709Y379208D01*
X293860Y379636D01*
X296010Y379208D01*
X297833Y377990D01*
X299052Y376166D01*
X299479Y374016D01*
X299052Y371865D01*
X297833Y370042D01*
X296010Y368824D01*
X293860Y368396D01*
X291709Y368824D01*
X289886Y370042D01*
X288668Y371865D01*
X288545Y372483D01*
X287364D01*
X287241Y371865D01*
X286022Y370042D01*
X284199Y368824D01*
X282049Y368396D01*
X279898Y368824D01*
X278075Y370042D01*
X276857Y371865D01*
X276429Y374016D01*
X276857Y376166D01*
X278075Y377990D01*
X279898Y379208D01*
X282049Y379636D01*
D02*
G37*
G36*
X315210Y353620D02*
Y350992D01*
X312582D01*
X312728Y351727D01*
X313428Y352774D01*
X314475Y353474D01*
X315210Y353620D01*
D02*
G37*
G36*
X192678Y364845D02*
X194291Y364524D01*
X195659Y363610D01*
X195907Y363239D01*
X291793D01*
X292791Y363040D01*
X293638Y362475D01*
X306630Y349483D01*
X307195Y348636D01*
X307394Y347638D01*
Y272386D01*
X308569Y272270D01*
X308594Y272396D01*
X309294Y273444D01*
X310341Y274143D01*
X311076Y274289D01*
Y271161D01*
Y268034D01*
X310341Y268180D01*
X309294Y268879D01*
X308594Y269926D01*
X308569Y270052D01*
X307394Y269937D01*
Y214595D01*
X307917Y214166D01*
Y210640D01*
Y207114D01*
X307394Y206685D01*
Y202371D01*
X307195Y201372D01*
X306630Y200526D01*
X301408Y195304D01*
X301297Y194745D01*
X300383Y193378D01*
X299016Y192464D01*
X297403Y192143D01*
X295790Y192464D01*
X294423Y193378D01*
X293509Y194745D01*
X293188Y196358D01*
X293509Y197971D01*
X294423Y199339D01*
X295790Y200252D01*
X296272Y200348D01*
X296724Y201439D01*
X296659Y201537D01*
X296338Y203150D01*
X296659Y204763D01*
X296722Y204858D01*
X296053Y205860D01*
X294440Y205539D01*
X292827Y205860D01*
X291459Y206774D01*
X290546Y208141D01*
X290225Y209754D01*
X290312Y210192D01*
X286601Y213903D01*
X286036Y214749D01*
X285837Y215748D01*
Y270240D01*
X284795Y270797D01*
X284199Y270399D01*
X282049Y269971D01*
X279898Y270399D01*
X278075Y271617D01*
X276857Y273440D01*
X276429Y275591D01*
X276857Y277741D01*
X278075Y279564D01*
X279898Y280783D01*
X282049Y281210D01*
X284199Y280783D01*
X284795Y280384D01*
X285837Y280941D01*
Y337303D01*
X286036Y338302D01*
X286601Y339148D01*
X291307Y343853D01*
X291220Y344291D01*
X291541Y345904D01*
X292454Y347272D01*
X293822Y348185D01*
X295434Y348506D01*
X297047Y348185D01*
X298415Y347272D01*
X299328Y345904D01*
X299649Y344291D01*
X299328Y342678D01*
X298415Y341311D01*
X297047Y340397D01*
X295434Y340076D01*
X294997Y340164D01*
X291055Y336222D01*
Y281583D01*
X291968Y280834D01*
X293860Y281210D01*
X296010Y280783D01*
X297833Y279564D01*
X299052Y277741D01*
X299479Y275591D01*
X299052Y273440D01*
X297833Y271617D01*
X296010Y270399D01*
X293860Y269971D01*
X291968Y270347D01*
X291055Y269598D01*
Y246820D01*
X292186Y246477D01*
X292651Y247173D01*
X294018Y248087D01*
X295631Y248408D01*
X297244Y248087D01*
X298612Y247173D01*
X299525Y245806D01*
X299846Y244193D01*
X299525Y242580D01*
X298612Y241213D01*
X297244Y240299D01*
X295631Y239978D01*
X295386Y239777D01*
Y219289D01*
X301084Y213591D01*
X302176Y214043D01*
Y346557D01*
X290712Y358021D01*
X265060D01*
X264311Y357108D01*
X264413Y356594D01*
X264326Y356157D01*
X266460Y354022D01*
X267026Y353176D01*
X267224Y352177D01*
Y175789D01*
X268400Y175674D01*
X268410Y175727D01*
X269324Y177094D01*
X270692Y178008D01*
X272305Y178329D01*
X273918Y178008D01*
X275285Y177094D01*
X275298Y177075D01*
X276457Y177305D01*
X276857Y179316D01*
X278075Y181139D01*
X279898Y182357D01*
X282049Y182785D01*
X284199Y182357D01*
X286022Y181139D01*
X287241Y179316D01*
X287364Y178698D01*
X288545D01*
X288668Y179316D01*
X289886Y181139D01*
X291709Y182357D01*
X293860Y182785D01*
X296010Y182357D01*
X297833Y181139D01*
X299052Y179316D01*
X299479Y177165D01*
X299052Y175015D01*
X297833Y173192D01*
X296010Y171973D01*
X293860Y171546D01*
X291709Y171973D01*
X289886Y173192D01*
X288668Y175015D01*
X288545Y175633D01*
X287364D01*
X287241Y175015D01*
X286022Y173192D01*
X284199Y171973D01*
X282049Y171546D01*
X279898Y171973D01*
X278075Y173192D01*
X277592Y173914D01*
X276434Y173684D01*
X276199Y172501D01*
X275285Y171134D01*
X275209Y171083D01*
Y94764D01*
X275580Y94516D01*
X276494Y93148D01*
X276815Y91535D01*
X276494Y89922D01*
X275580Y88555D01*
X274213Y87641D01*
X272600Y87321D01*
X270987Y87641D01*
X269619Y88555D01*
X268706Y89922D01*
X268385Y91535D01*
X268706Y93148D01*
X268819Y93317D01*
X267984Y94152D01*
X267225Y93645D01*
X265612Y93325D01*
X265591Y93329D01*
X264678Y92579D01*
Y70667D01*
X275520Y59825D01*
X276650Y60168D01*
X276857Y61206D01*
X278075Y63029D01*
X279898Y64247D01*
X282049Y64675D01*
X284199Y64247D01*
X286022Y63029D01*
X287241Y61206D01*
X287364Y60588D01*
X288545D01*
X288668Y61206D01*
X289886Y63029D01*
X291709Y64247D01*
X293860Y64675D01*
X296010Y64247D01*
X297833Y63029D01*
X299052Y61206D01*
X299479Y59055D01*
X299052Y56905D01*
X297833Y55081D01*
X296010Y53863D01*
X293860Y53435D01*
X291709Y53863D01*
X289886Y55081D01*
X288668Y56905D01*
X288545Y57523D01*
X287364D01*
X287241Y56905D01*
X286022Y55081D01*
X284199Y53863D01*
X283161Y53657D01*
X282818Y52526D01*
X287460Y47885D01*
X308919D01*
Y49902D01*
X311659D01*
Y50575D01*
X311659D01*
Y53574D01*
X310484Y53690D01*
X310424Y53391D01*
X309724Y52344D01*
X308677Y51644D01*
X307942Y51498D01*
Y54626D01*
Y57754D01*
X308677Y57608D01*
X309724Y56908D01*
X310424Y55861D01*
X310484Y55562D01*
X311659Y55678D01*
Y59662D01*
X313242D01*
Y55118D01*
X314242D01*
Y59662D01*
X314430D01*
Y68209D01*
X312856D01*
Y76279D01*
D01*
Y76279D01*
X312856Y76279D01*
Y77264D01*
X312856D01*
Y85335D01*
X322108D01*
D01*
D01*
X322108Y85335D01*
X322305Y85335D01*
Y85335D01*
X342186D01*
D01*
D01*
X342186Y85335D01*
X342383Y85335D01*
Y85335D01*
X351635D01*
Y77264D01*
X351635Y77264D01*
X351635Y76279D01*
X351635D01*
Y68209D01*
X350060D01*
Y60630D01*
X353801D01*
Y49902D01*
X355572D01*
Y40650D01*
X347501D01*
Y40650D01*
X347501D01*
X347501Y40650D01*
X346517D01*
Y40650D01*
X338446D01*
Y40915D01*
X337533Y41664D01*
X336478Y41454D01*
X334883Y41772D01*
X329977Y36865D01*
X330092Y35689D01*
X331466Y34771D01*
X332017Y33946D01*
X333198D01*
X334217Y35470D01*
X336040Y36688D01*
X338190Y37116D01*
X340341Y36688D01*
X342164Y35470D01*
X342600Y34818D01*
X343781D01*
X344217Y35470D01*
X346040Y36688D01*
X348190Y37116D01*
X350341Y36688D01*
X352164Y35470D01*
X352600Y34818D01*
X353781D01*
X354217Y35470D01*
X356040Y36688D01*
X358190Y37116D01*
X360341Y36688D01*
X362164Y35470D01*
X362600Y34818D01*
X363781D01*
X364217Y35470D01*
X366040Y36688D01*
X368190Y37116D01*
X370341Y36688D01*
X372164Y35470D01*
X372600Y34818D01*
X373781D01*
X374217Y35470D01*
X376040Y36688D01*
X378190Y37116D01*
X380341Y36688D01*
X382164Y35470D01*
X382600Y34818D01*
X383781D01*
X384217Y35470D01*
X386040Y36688D01*
X388190Y37116D01*
X390341Y36688D01*
X391637Y35822D01*
X392679Y36379D01*
Y37008D01*
X403702D01*
Y25984D01*
X392679D01*
Y26613D01*
X391637Y27170D01*
X390341Y26304D01*
X388190Y25876D01*
X386040Y26304D01*
X384217Y27522D01*
X383781Y28174D01*
X382600D01*
X382164Y27522D01*
X380341Y26304D01*
X378190Y25876D01*
X376040Y26304D01*
X374217Y27522D01*
X373781Y28174D01*
X372600D01*
X372164Y27522D01*
X370341Y26304D01*
X368190Y25876D01*
X366040Y26304D01*
X364217Y27522D01*
X363781Y28174D01*
X362600D01*
X362164Y27522D01*
X360341Y26304D01*
X358190Y25876D01*
X356040Y26304D01*
X354217Y27522D01*
X353781Y28174D01*
X352600D01*
X352164Y27522D01*
X350341Y26304D01*
X348190Y25876D01*
X346040Y26304D01*
X344217Y27522D01*
X343781Y28174D01*
X342600D01*
X342164Y27522D01*
X340341Y26304D01*
X338190Y25876D01*
X336040Y26304D01*
X334217Y27522D01*
X333198Y29046D01*
X332017D01*
X331466Y28220D01*
X329963Y27216D01*
X328690Y26963D01*
Y31496D01*
X328190D01*
Y31996D01*
X323657D01*
X323911Y33269D01*
X324915Y34771D01*
X324178Y35875D01*
X290387D01*
X289388Y36074D01*
X288542Y36639D01*
X258255Y66926D01*
X257689Y67773D01*
X257491Y68771D01*
Y141656D01*
X256387Y142394D01*
X255020Y141480D01*
X253407Y141159D01*
X251794Y141480D01*
X250427Y142394D01*
X249513Y143761D01*
X249192Y145374D01*
X249279Y145812D01*
X247527Y147564D01*
X246961Y148411D01*
X246762Y149409D01*
X246762Y149409D01*
X246762Y149409D01*
Y149409D01*
Y153465D01*
X246391Y153713D01*
X245477Y155080D01*
X245157Y156693D01*
X245477Y158306D01*
X246391Y159673D01*
X247759Y160587D01*
X249372Y160908D01*
X250984Y160587D01*
X252352Y159673D01*
X253266Y158306D01*
X253586Y156693D01*
X253266Y155080D01*
X252352Y153713D01*
X251981Y153465D01*
Y150490D01*
X252969Y149502D01*
X253407Y149589D01*
X255020Y149268D01*
X255346Y149050D01*
X256377Y149606D01*
Y149606D01*
X256377D01*
D01*
X256698Y151219D01*
X257612Y152587D01*
X257983Y152835D01*
Y347935D01*
X253812Y352106D01*
X253702Y352084D01*
X252089Y352405D01*
X250722Y353319D01*
X249808Y354686D01*
X249487Y356299D01*
X249648Y357108D01*
X248899Y358021D01*
X246133D01*
X245384Y357108D01*
X245404Y357006D01*
X245083Y355393D01*
X244169Y354025D01*
X243798Y353777D01*
Y188990D01*
X244703Y187637D01*
X245023Y186024D01*
X244703Y184411D01*
X243789Y183043D01*
X243418Y182795D01*
Y24998D01*
X253602Y14814D01*
X361086D01*
X364043Y17771D01*
X363956Y18209D01*
X364277Y19822D01*
X365190Y21189D01*
X366558Y22103D01*
X368171Y22423D01*
X369784Y22103D01*
X371151Y21189D01*
X372065Y19822D01*
X372386Y18209D01*
X372350Y18031D01*
X372447Y17979D01*
X372917Y18073D01*
X373643Y18416D01*
X373922Y19822D01*
X374836Y21189D01*
X376203Y22103D01*
X377816Y22423D01*
X379429Y22103D01*
X380797Y21189D01*
X381710Y19822D01*
X382031Y18209D01*
X381710Y16596D01*
X380797Y15228D01*
X379429Y14315D01*
X377816Y13994D01*
X377379Y14081D01*
X369228Y5931D01*
X368382Y5365D01*
X367383Y5166D01*
X251537D01*
X250538Y5365D01*
X249692Y5931D01*
X233944Y21679D01*
X233378Y22525D01*
X233180Y23524D01*
X233180Y23524D01*
X233180Y23524D01*
Y23524D01*
Y52964D01*
X232267Y53714D01*
X230868Y53435D01*
X228717Y53863D01*
X226894Y55081D01*
X225676Y56905D01*
X225553Y57523D01*
X224372D01*
X224249Y56905D01*
X223030Y55081D01*
X221207Y53863D01*
X219057Y53435D01*
X216906Y53863D01*
X215083Y55081D01*
X213865Y56905D01*
X213437Y59055D01*
X213865Y61206D01*
X215083Y63029D01*
X216906Y64247D01*
X219057Y64675D01*
X221207Y64247D01*
X223030Y63029D01*
X224249Y61206D01*
X224372Y60588D01*
X225553D01*
X225676Y61206D01*
X226894Y63029D01*
X228717Y64247D01*
X230868Y64675D01*
X232267Y64397D01*
X233180Y65146D01*
Y171075D01*
X232267Y171824D01*
X230868Y171546D01*
X228717Y171973D01*
X226894Y173192D01*
X225676Y175015D01*
X225553Y175633D01*
X224372D01*
X224249Y175015D01*
X223030Y173192D01*
X221207Y171973D01*
X219057Y171546D01*
X217447Y171866D01*
X210347Y164766D01*
Y157540D01*
X211311Y157025D01*
X212046Y157171D01*
Y154043D01*
Y150915D01*
X211311Y151061D01*
X210347Y150546D01*
Y144468D01*
X210718Y144220D01*
X211632Y142853D01*
X211952Y141240D01*
X211632Y139627D01*
X210718Y138260D01*
X209351Y137346D01*
X207738Y137025D01*
X206125Y137346D01*
X204757Y138260D01*
X203844Y139627D01*
X203523Y141240D01*
X203844Y142853D01*
X204757Y144220D01*
X205128Y144468D01*
Y165846D01*
X205128Y165846D01*
X205327Y166845D01*
X205893Y167691D01*
X213757Y175556D01*
X213437Y177165D01*
X213865Y179316D01*
X215083Y181139D01*
X216906Y182357D01*
X219057Y182785D01*
X221207Y182357D01*
X223030Y181139D01*
X224249Y179316D01*
X224372Y178698D01*
X225553D01*
X225676Y179316D01*
X226894Y181139D01*
X228717Y182357D01*
X230868Y182785D01*
X231451Y182669D01*
X232107Y183651D01*
X231599Y184411D01*
X231279Y186024D01*
X231599Y187637D01*
X232513Y189004D01*
X233180Y189449D01*
Y269500D01*
X232267Y270249D01*
X230868Y269971D01*
X228717Y270399D01*
X226894Y271617D01*
X225676Y273440D01*
X225553Y274058D01*
X224372D01*
X224249Y273440D01*
X223030Y271617D01*
X221207Y270399D01*
X219057Y269971D01*
X217447Y270291D01*
X206887Y259731D01*
Y247335D01*
X207258Y247087D01*
X208172Y245719D01*
X208492Y244106D01*
X208172Y242493D01*
X207258Y241126D01*
X205891Y240212D01*
X204278Y239892D01*
X202665Y240212D01*
X201297Y241126D01*
X200384Y242493D01*
X200063Y244106D01*
X200384Y245719D01*
X201297Y247087D01*
X201669Y247335D01*
Y260812D01*
X201867Y261810D01*
X202433Y262657D01*
X213757Y273981D01*
X213437Y275591D01*
X213865Y277741D01*
X215083Y279564D01*
X216906Y280783D01*
X219057Y281210D01*
X221207Y280783D01*
X223030Y279564D01*
X224249Y277741D01*
X224372Y277123D01*
X225553D01*
X225676Y277741D01*
X226894Y279564D01*
X228717Y280783D01*
X230868Y281210D01*
X232267Y280932D01*
X233180Y281681D01*
Y353629D01*
X232907Y353811D01*
X231993Y355178D01*
X231672Y356791D01*
X231735Y357108D01*
X230986Y358021D01*
X195907D01*
X195659Y357650D01*
X194291Y356736D01*
X192678Y356415D01*
X191066Y356736D01*
X189698Y357650D01*
X188785Y359017D01*
X188464Y360630D01*
X188785Y362243D01*
X189698Y363610D01*
X191066Y364524D01*
X192678Y364845D01*
D02*
G37*
G36*
X201755Y438083D02*
X204383D01*
Y435455D01*
X203648Y435601D01*
X202601Y436301D01*
X201902Y437348D01*
X201755Y438083D01*
D02*
G37*
G36*
X205383Y441711D02*
X206118Y441564D01*
X207165Y440865D01*
X207865Y439818D01*
X208011Y439083D01*
X205383D01*
Y441711D01*
D02*
G37*
G36*
Y438083D02*
X208011D01*
X207865Y437348D01*
X207165Y436301D01*
X206118Y435601D01*
X205383Y435455D01*
Y438083D01*
D02*
G37*
G36*
X264627Y415140D02*
X266240Y414819D01*
X267608Y413905D01*
X268521Y412538D01*
X268842Y410925D01*
X268521Y409312D01*
X267611Y407949D01*
X268017Y407341D01*
X268338Y405728D01*
X268017Y404115D01*
X267104Y402748D01*
X265736Y401834D01*
X264123Y401514D01*
X262510Y401834D01*
X261143Y402748D01*
X260895Y403119D01*
X255286D01*
X249042Y396876D01*
X248196Y396310D01*
X247197Y396111D01*
X244262D01*
X243264Y396310D01*
X242417Y396876D01*
X241777Y397516D01*
X240598Y397281D01*
X238985Y397602D01*
X237618Y398516D01*
X236704Y399883D01*
X236384Y401496D01*
X236704Y403109D01*
X237618Y404476D01*
X238985Y405390D01*
X240598Y405711D01*
X242211Y405390D01*
X242651Y405096D01*
X242749Y405244D01*
X244117Y406158D01*
X245730Y406479D01*
X246167Y406391D01*
X252546Y412770D01*
X253393Y413336D01*
X254391Y413534D01*
X261399D01*
X261647Y413905D01*
X263014Y414819D01*
X264627Y415140D01*
D02*
G37*
G36*
X215671Y427675D02*
X217975Y427216D01*
X219928Y425911D01*
X221233Y423958D01*
X221692Y421654D01*
X221233Y419349D01*
X219928Y417396D01*
X217975Y416091D01*
X215671Y415632D01*
X213366Y416091D01*
X212618Y416591D01*
X211576Y416034D01*
Y415748D01*
X199765D01*
Y427559D01*
X211576D01*
Y427273D01*
X212618Y426716D01*
X213366Y427216D01*
X215671Y427675D01*
D02*
G37*
G36*
X204286Y351373D02*
X205021Y351227D01*
X206068Y350527D01*
X206767Y349480D01*
X206913Y348745D01*
X204286D01*
Y351373D01*
D02*
G37*
G36*
X203286D02*
Y348745D01*
X200658D01*
X200804Y349480D01*
X201503Y350527D01*
X202551Y351227D01*
X203286Y351373D01*
D02*
G37*
G36*
X316210Y353620D02*
X316945Y353474D01*
X317992Y352774D01*
X318692Y351727D01*
X318838Y350992D01*
X316210D01*
Y353620D01*
D02*
G37*
G36*
X200658Y347745D02*
X203286D01*
Y345117D01*
X202551Y345264D01*
X201503Y345963D01*
X200804Y347010D01*
X200658Y347745D01*
D02*
G37*
G36*
X316210Y349992D02*
X318838D01*
X318692Y349257D01*
X317992Y348210D01*
X316945Y347511D01*
X316210Y347364D01*
Y349992D01*
D02*
G37*
G36*
X312582D02*
X315210D01*
Y347364D01*
X314475Y347511D01*
X313428Y348210D01*
X312728Y349257D01*
X312582Y349992D01*
D02*
G37*
%LPD*%
G36*
X143596Y584798D02*
X143469D01*
X143331Y584786D01*
X143193Y584774D01*
X143066Y584752D01*
X143054D01*
X143008Y584740D01*
X142950Y584728D01*
X142858Y584717D01*
X142766Y584694D01*
X142662Y584671D01*
X142455Y584625D01*
Y583460D01*
X142466Y583472D01*
X142512Y583483D01*
X142570Y583518D01*
X142651Y583541D01*
X142754Y583587D01*
X142870Y583622D01*
X143123Y583691D01*
X143135D01*
X143181Y583702D01*
X143250Y583725D01*
X143342Y583737D01*
X143446Y583760D01*
X143561Y583771D01*
X143804Y583783D01*
X143919D01*
X144000Y583771D01*
X144092Y583760D01*
X144196Y583737D01*
X144403Y583668D01*
X144415D01*
X144449Y583645D01*
X144495Y583622D01*
X144553Y583587D01*
X144703Y583483D01*
X144853Y583345D01*
X144864Y583333D01*
X144887Y583310D01*
X144911Y583264D01*
X144957Y583207D01*
X145003Y583137D01*
X145049Y583057D01*
X145130Y582861D01*
Y582849D01*
X145141Y582815D01*
X145153Y582757D01*
X145176Y582676D01*
X145187Y582584D01*
X145210Y582469D01*
X145222Y582226D01*
Y582215D01*
Y582169D01*
Y582100D01*
X145210Y582007D01*
X145199Y581904D01*
X145187Y581788D01*
X145130Y581569D01*
Y581558D01*
X145106Y581523D01*
X145083Y581465D01*
X145049Y581408D01*
X144968Y581246D01*
X144841Y581085D01*
X144830Y581073D01*
X144807Y581050D01*
X144761Y581016D01*
X144714Y580970D01*
X144645Y580924D01*
X144565Y580877D01*
X144380Y580785D01*
X144369D01*
X144334Y580774D01*
X144276Y580751D01*
X144196Y580739D01*
X144115Y580716D01*
X144011Y580693D01*
X143781Y580681D01*
X143585D01*
X143458Y580693D01*
X143423D01*
X143389Y580704D01*
X143342Y580716D01*
X143227Y580727D01*
X143100Y580762D01*
X143089D01*
X143066Y580774D01*
X143031Y580785D01*
X142997Y580797D01*
X142881Y580820D01*
X142754Y580854D01*
X142743D01*
X142720Y580866D01*
X142697Y580877D01*
X142651Y580889D01*
X142547Y580935D01*
X142432Y580981D01*
Y579909D01*
X142443Y579897D01*
X142489Y579886D01*
X142570Y579863D01*
X142662Y579828D01*
X142766Y579794D01*
X142893Y579759D01*
X143169Y579701D01*
X143181D01*
X143239Y579690D01*
X143308Y579678D01*
X143412Y579667D01*
X143527Y579655D01*
X143665Y579644D01*
X143965Y579632D01*
X144069D01*
X144184Y579644D01*
X144323Y579655D01*
X144495Y579667D01*
X144668Y579701D01*
X144853Y579736D01*
X145037Y579794D01*
X145060Y579805D01*
X145118Y579828D01*
X145199Y579863D01*
X145314Y579909D01*
X145441Y579978D01*
X145579Y580059D01*
X145718Y580163D01*
X145844Y580266D01*
X145856Y580278D01*
X145902Y580324D01*
X145960Y580393D01*
X146029Y580485D01*
X146110Y580601D01*
X146190Y580739D01*
X146271Y580889D01*
X146340Y581062D01*
X146352Y581085D01*
X146363Y581143D01*
X146398Y581246D01*
X146421Y581373D01*
X146456Y581535D01*
X146490Y581719D01*
X146502Y581927D01*
X146513Y582157D01*
Y582169D01*
Y582180D01*
Y582215D01*
Y582261D01*
X146502Y582376D01*
X146490Y582515D01*
X146467Y582688D01*
X146432Y582872D01*
X146386Y583057D01*
X146329Y583241D01*
Y583253D01*
X146317Y583264D01*
X146294Y583322D01*
X146248Y583414D01*
X146190Y583529D01*
X146121Y583668D01*
X146029Y583806D01*
X145925Y583944D01*
X145798Y584083D01*
X145787Y584094D01*
X145741Y584140D01*
X145660Y584198D01*
X145568Y584279D01*
X145441Y584360D01*
X145302Y584452D01*
X145141Y584532D01*
X144968Y584613D01*
X144957D01*
X144945Y584625D01*
X144876Y584648D01*
X144784Y584671D01*
X144645Y584717D01*
X144484Y584752D01*
X144299Y584774D01*
X144103Y584798D01*
X143884Y584809D01*
X143711D01*
X143596Y584798D01*
D02*
G37*
G36*
X58412Y593899D02*
Y593888D01*
Y593876D01*
Y593841D01*
Y593795D01*
X58424Y593680D01*
X58435Y593530D01*
X58459Y593357D01*
X58482Y593184D01*
X58528Y593000D01*
X58585Y592815D01*
X58597Y592792D01*
X58620Y592735D01*
X58655Y592654D01*
X58701Y592550D01*
X58770Y592423D01*
X58851Y592296D01*
X58943Y592170D01*
X59058Y592043D01*
X59070Y592031D01*
X59116Y591997D01*
X59185Y591939D01*
X59266Y591870D01*
X59381Y591789D01*
X59508Y591708D01*
X59658Y591639D01*
X59819Y591570D01*
X59842Y591559D01*
X59900Y591547D01*
X59981Y591524D01*
X60107Y591501D01*
X60246Y591466D01*
X60419Y591443D01*
X60603Y591432D01*
X60799Y591420D01*
X60903D01*
X61018Y591432D01*
X61168Y591443D01*
X61330Y591455D01*
X61514Y591489D01*
X61699Y591524D01*
X61871Y591570D01*
X61895Y591581D01*
X61941Y591605D01*
X62021Y591639D01*
X62125Y591685D01*
X62240Y591754D01*
X62356Y591824D01*
X62471Y591916D01*
X62586Y592020D01*
X62598Y592031D01*
X62632Y592077D01*
X62679Y592135D01*
X62736Y592227D01*
X62805Y592331D01*
X62875Y592458D01*
X62932Y592596D01*
X62990Y592746D01*
Y592769D01*
X63013Y592827D01*
X63024Y592907D01*
X63047Y593023D01*
X63071Y593161D01*
X63082Y593323D01*
X63105Y593507D01*
Y593691D01*
Y597969D01*
X61895D01*
Y593772D01*
Y593761D01*
Y593715D01*
Y593657D01*
X61883Y593576D01*
Y593496D01*
X61871Y593392D01*
X61848Y593196D01*
Y593184D01*
X61837Y593150D01*
X61825Y593104D01*
X61802Y593046D01*
X61745Y592907D01*
X61652Y592769D01*
X61641Y592758D01*
X61629Y592746D01*
X61595Y592711D01*
X61549Y592677D01*
X61433Y592585D01*
X61295Y592504D01*
X61283D01*
X61260Y592492D01*
X61214Y592481D01*
X61145Y592469D01*
X61064Y592446D01*
X60984Y592435D01*
X60880Y592423D01*
X60649D01*
X60580Y592435D01*
X60419Y592458D01*
X60246Y592492D01*
X60234D01*
X60211Y592504D01*
X60177Y592527D01*
X60119Y592550D01*
X60015Y592631D01*
X59900Y592735D01*
X59888Y592746D01*
X59877Y592769D01*
X59854Y592804D01*
X59819Y592850D01*
X59785Y592919D01*
X59750Y592988D01*
X59692Y593173D01*
Y593184D01*
X59681Y593219D01*
X59669Y593277D01*
X59658Y593357D01*
X59646Y593449D01*
X59635Y593553D01*
X59623Y593680D01*
Y593818D01*
Y597969D01*
X58412D01*
Y593899D01*
D02*
G37*
G36*
X93982Y593369D02*
X93844Y593334D01*
X93694Y593265D01*
X93683D01*
X93660Y593242D01*
X93625Y593219D01*
X93579Y593184D01*
X93475Y593081D01*
X93371Y592954D01*
X93360Y592942D01*
X93348Y592919D01*
X93325Y592884D01*
X93291Y592827D01*
X93221Y592700D01*
X93164Y592527D01*
Y592516D01*
X93152Y592481D01*
X93141Y592435D01*
X93129Y592377D01*
X93118Y592296D01*
X93106Y592216D01*
X93095Y592020D01*
Y591997D01*
Y591939D01*
X93106Y591858D01*
X93118Y591743D01*
X93141Y591605D01*
X93164Y591466D01*
X93210Y591316D01*
X93268Y591166D01*
X93279Y591143D01*
X93302Y591097D01*
X93337Y591028D01*
X93395Y590924D01*
X93464Y590821D01*
X93556Y590705D01*
X93660Y590578D01*
X93775Y590463D01*
X93787Y590452D01*
X93833Y590417D01*
X93902Y590359D01*
X94006Y590290D01*
X94121Y590221D01*
X94271Y590140D01*
X94432Y590060D01*
X94605Y589990D01*
X94628Y589979D01*
X94697Y589967D01*
X94801Y589933D01*
X94940Y589898D01*
X95113Y589864D01*
X95309Y589841D01*
X95527Y589817D01*
X95770Y589806D01*
Y590590D01*
X95666D01*
X95597Y590601D01*
X95516D01*
X95424Y590613D01*
X95228Y590636D01*
X95216D01*
X95182Y590648D01*
X95135D01*
X95066Y590671D01*
X94928Y590705D01*
X94778Y590774D01*
X94767D01*
X94744Y590786D01*
X94709Y590809D01*
X94663Y590844D01*
X94571Y590913D01*
X94478Y591017D01*
Y591028D01*
X94455Y591040D01*
X94444Y591074D01*
X94421Y591120D01*
X94386Y591224D01*
X94363Y591362D01*
Y591374D01*
Y591386D01*
Y591455D01*
X94386Y591524D01*
X94409Y591605D01*
X94421Y591616D01*
X94444Y591662D01*
X94478Y591720D01*
X94524Y591778D01*
X94536Y591789D01*
X94559Y591824D01*
X94605Y591881D01*
X94651Y591939D01*
X94663Y591951D01*
X94697Y591985D01*
X94744Y592043D01*
X94790Y592100D01*
X94801Y592112D01*
X94824Y592158D01*
X94859Y592216D01*
X94893Y592296D01*
Y592319D01*
X94905Y592377D01*
X94916Y592458D01*
X94928Y592562D01*
Y592573D01*
Y592585D01*
X94916Y592665D01*
X94905Y592758D01*
X94882Y592861D01*
Y592873D01*
X94870Y592884D01*
X94836Y592954D01*
X94790Y593034D01*
X94720Y593127D01*
X94697Y593150D01*
X94651Y593196D01*
X94571Y593253D01*
X94467Y593311D01*
X94455D01*
X94444Y593323D01*
X94363Y593346D01*
X94259Y593369D01*
X94132Y593380D01*
X94040D01*
X93982Y593369D01*
D02*
G37*
G36*
X149765Y586873D02*
X149672Y586862D01*
X149569Y586815D01*
X149557D01*
X149546Y586804D01*
X149476Y586769D01*
X149396Y586723D01*
X149315Y586642D01*
X149292Y586619D01*
X149257Y586573D01*
X149200Y586492D01*
X149154Y586389D01*
Y586377D01*
X149142Y586366D01*
X149119Y586297D01*
X149096Y586204D01*
X149084Y586089D01*
Y586077D01*
Y586066D01*
X149096Y585985D01*
X149107Y585893D01*
X149154Y585778D01*
Y585766D01*
X149165Y585755D01*
X149200Y585697D01*
X149246Y585616D01*
X149315Y585535D01*
X149338Y585524D01*
X149384Y585478D01*
X149465Y585420D01*
X149569Y585374D01*
X149580D01*
X149592Y585363D01*
X149661Y585351D01*
X149753Y585328D01*
X149868Y585317D01*
X149926D01*
X149972Y585328D01*
X150076Y585339D01*
X150191Y585374D01*
X150203D01*
X150214Y585386D01*
X150272Y585420D01*
X150353Y585466D01*
X150433Y585535D01*
X150445Y585559D01*
X150491Y585605D01*
X150549Y585685D01*
X150595Y585778D01*
Y585789D01*
X150606Y585801D01*
X150618Y585870D01*
X150641Y585974D01*
X150653Y586089D01*
Y586100D01*
Y586112D01*
X150641Y586193D01*
X150629Y586285D01*
X150595Y586389D01*
Y586400D01*
X150583Y586412D01*
X150549Y586481D01*
X150503Y586562D01*
X150433Y586642D01*
X150410Y586665D01*
X150364Y586712D01*
X150284Y586769D01*
X150191Y586815D01*
X150180D01*
X150168Y586827D01*
X150099Y586850D01*
X149995Y586873D01*
X149868Y586884D01*
X149845D01*
X149765Y586873D01*
D02*
G37*
G36*
X59369Y585028D02*
X61975D01*
Y583714D01*
X61330D01*
X61214Y583702D01*
X61064Y583691D01*
X60903Y583679D01*
X60569Y583622D01*
X60545D01*
X60488Y583599D01*
X60407Y583575D01*
X60303Y583552D01*
X60177Y583506D01*
X60038Y583449D01*
X59911Y583391D01*
X59773Y583310D01*
X59762Y583299D01*
X59715Y583276D01*
X59658Y583218D01*
X59577Y583149D01*
X59485Y583068D01*
X59392Y582964D01*
X59300Y582849D01*
X59220Y582711D01*
X59208Y582699D01*
X59185Y582642D01*
X59150Y582561D01*
X59116Y582457D01*
X59081Y582319D01*
X59047Y582157D01*
X59024Y581984D01*
X59012Y581777D01*
Y581754D01*
Y581684D01*
X59024Y581592D01*
X59035Y581465D01*
X59070Y581327D01*
X59104Y581166D01*
X59162Y581016D01*
X59231Y580854D01*
X59243Y580831D01*
X59266Y580785D01*
X59323Y580716D01*
X59392Y580624D01*
X59473Y580508D01*
X59577Y580393D01*
X59704Y580278D01*
X59842Y580174D01*
X59854Y580163D01*
X59911Y580128D01*
X59992Y580082D01*
X60096Y580024D01*
X60234Y579955D01*
X60384Y579886D01*
X60557Y579817D01*
X60753Y579759D01*
X60776D01*
X60845Y579736D01*
X60949Y579713D01*
X61087Y579690D01*
X61260Y579667D01*
X61445Y579644D01*
X61664Y579632D01*
X61883Y579621D01*
X62079D01*
X62206Y579632D01*
X62275D01*
X62310Y579644D01*
X62425Y579655D01*
X62563Y579667D01*
X62632D01*
X62667Y579678D01*
X62782Y579690D01*
X62909Y579701D01*
X62932D01*
X63001Y579713D01*
X63105Y579724D01*
X63209Y579736D01*
Y580785D01*
X63197D01*
X63163Y580774D01*
X63105Y580762D01*
X63024Y580751D01*
X62932Y580727D01*
X62828Y580704D01*
X62702Y580693D01*
X62575Y580670D01*
X62506D01*
X62436Y580658D01*
X62344D01*
X62229Y580647D01*
X62102D01*
X61825Y580635D01*
X61699D01*
X61572Y580647D01*
X61410Y580670D01*
X61226Y580704D01*
X61041Y580751D01*
X60857Y580820D01*
X60695Y580912D01*
X60684Y580924D01*
X60638Y580970D01*
X60569Y581027D01*
X60499Y581119D01*
X60430Y581235D01*
X60361Y581362D01*
X60315Y581523D01*
X60303Y581696D01*
Y581708D01*
Y581719D01*
Y581788D01*
X60326Y581881D01*
X60350Y581996D01*
X60396Y582123D01*
X60453Y582249D01*
X60545Y582376D01*
X60672Y582480D01*
X60684Y582492D01*
X60742Y582515D01*
X60822Y582561D01*
X60949Y582607D01*
X61111Y582653D01*
X61318Y582699D01*
X61560Y582722D01*
X61837Y582734D01*
X63094D01*
Y586158D01*
X59369D01*
Y585028D01*
D02*
G37*
G36*
X158043Y591535D02*
X159116D01*
X159231Y595167D01*
X159277Y596620D01*
X159588Y595640D01*
X160303Y593449D01*
X161064D01*
X161710Y595640D01*
X161975Y596620D01*
X162010Y595202D01*
X162125Y591535D01*
X163151D01*
X162828Y597969D01*
X161468D01*
X160903Y596136D01*
X160626Y595098D01*
X160349Y596067D01*
X159750Y597969D01*
X158354D01*
X158043Y591535D01*
D02*
G37*
G36*
X115878Y579724D02*
X117481D01*
X119441Y586158D01*
X118080D01*
X116985Y582284D01*
X116639Y581004D01*
X116270Y582353D01*
X115198Y586158D01*
X113906D01*
X115878Y579724D01*
D02*
G37*
G36*
X71061Y591535D02*
X72663D01*
X74624Y597969D01*
X73263D01*
X72168Y594095D01*
X71822Y592815D01*
X71453Y594164D01*
X70381Y597969D01*
X69089D01*
X71061Y591535D01*
D02*
G37*
G36*
X66311Y597958D02*
X66161D01*
X65988Y597935D01*
X65803Y597912D01*
X65619Y597877D01*
X65434Y597831D01*
X65411Y597819D01*
X65354Y597808D01*
X65261Y597773D01*
X65146Y597727D01*
X65019Y597669D01*
X64892Y597600D01*
X64754Y597519D01*
X64627Y597427D01*
X64616Y597416D01*
X64569Y597381D01*
X64512Y597324D01*
X64443Y597254D01*
X64350Y597162D01*
X64270Y597047D01*
X64189Y596920D01*
X64120Y596782D01*
X64108Y596770D01*
X64097Y596712D01*
X64062Y596632D01*
X64028Y596528D01*
X64004Y596401D01*
X63970Y596251D01*
X63958Y596090D01*
X63947Y595917D01*
Y595894D01*
Y595836D01*
X63958Y595732D01*
X63970Y595606D01*
X63993Y595467D01*
X64016Y595306D01*
X64062Y595144D01*
X64120Y594983D01*
X64131Y594960D01*
X64154Y594914D01*
X64189Y594833D01*
X64247Y594729D01*
X64316Y594614D01*
X64397Y594487D01*
X64500Y594372D01*
X64616Y594245D01*
X64627Y594233D01*
X64673Y594199D01*
X64742Y594141D01*
X64846Y594072D01*
X64961Y593991D01*
X65111Y593911D01*
X65273Y593830D01*
X65446Y593761D01*
X65469Y593749D01*
X65526Y593738D01*
X65630Y593715D01*
X65769Y593680D01*
X65930Y593645D01*
X66126Y593622D01*
X66345Y593611D01*
X66576Y593599D01*
X67187D01*
Y591535D01*
X68409D01*
Y597969D01*
X66426D01*
X66311Y597958D01*
D02*
G37*
G36*
X102734Y596954D02*
X104498D01*
Y591535D01*
X105743D01*
Y596954D01*
X107507D01*
Y597969D01*
X102734D01*
Y596954D01*
D02*
G37*
G36*
X99586Y597958D02*
X99436D01*
X99263Y597935D01*
X99079Y597912D01*
X98894Y597877D01*
X98710Y597831D01*
X98687Y597819D01*
X98629Y597808D01*
X98537Y597773D01*
X98422Y597727D01*
X98295Y597669D01*
X98168Y597600D01*
X98030Y597519D01*
X97903Y597427D01*
X97891Y597416D01*
X97845Y597381D01*
X97787Y597324D01*
X97718Y597254D01*
X97626Y597162D01*
X97545Y597047D01*
X97465Y596920D01*
X97395Y596782D01*
X97384Y596770D01*
X97372Y596712D01*
X97338Y596632D01*
X97303Y596528D01*
X97280Y596401D01*
X97246Y596251D01*
X97234Y596090D01*
X97223Y595917D01*
Y595894D01*
Y595836D01*
X97234Y595732D01*
X97246Y595606D01*
X97269Y595467D01*
X97292Y595306D01*
X97338Y595144D01*
X97395Y594983D01*
X97407Y594960D01*
X97430Y594914D01*
X97465Y594833D01*
X97522Y594729D01*
X97591Y594614D01*
X97672Y594487D01*
X97776Y594372D01*
X97891Y594245D01*
X97903Y594233D01*
X97949Y594199D01*
X98018Y594141D01*
X98122Y594072D01*
X98237Y593991D01*
X98387Y593911D01*
X98548Y593830D01*
X98721Y593761D01*
X98744Y593749D01*
X98802Y593738D01*
X98906Y593715D01*
X99044Y593680D01*
X99206Y593645D01*
X99402Y593622D01*
X99621Y593611D01*
X99851Y593599D01*
X100462D01*
Y591535D01*
X101685D01*
Y597969D01*
X99701D01*
X99586Y597958D01*
D02*
G37*
G36*
X132101Y592469D02*
X130659D01*
Y591535D01*
X134914D01*
Y592469D01*
X133334D01*
Y595606D01*
X134741D01*
Y596539D01*
X132101D01*
Y592469D01*
D02*
G37*
G36*
X116789Y592573D02*
X114068D01*
Y591535D01*
X118023D01*
Y597969D01*
X116789D01*
Y592573D01*
D02*
G37*
G36*
X143677Y596632D02*
X143550Y596620D01*
X143400Y596597D01*
X143239Y596574D01*
X143077Y596528D01*
X142927Y596470D01*
X142904Y596459D01*
X142858Y596436D01*
X142778Y596401D01*
X142685Y596355D01*
X142570Y596286D01*
X142455Y596205D01*
X142339Y596113D01*
X142236Y596009D01*
X142224Y595997D01*
X142190Y595963D01*
X142143Y595894D01*
X142074Y595813D01*
X142016Y595709D01*
X141947Y595594D01*
X141878Y595456D01*
X141821Y595306D01*
X141809Y595283D01*
X141797Y595237D01*
X141774Y595156D01*
X141740Y595041D01*
X141717Y594914D01*
X141694Y594752D01*
X141682Y594591D01*
X141671Y594406D01*
Y594383D01*
Y594326D01*
Y594222D01*
X141682Y594084D01*
Y594072D01*
Y594049D01*
Y594014D01*
X141694Y593968D01*
Y593853D01*
X141705Y593726D01*
X144991D01*
Y593715D01*
Y593669D01*
Y593611D01*
X144980Y593530D01*
X144968Y593438D01*
X144957Y593334D01*
X144899Y593138D01*
Y593127D01*
X144876Y593092D01*
X144853Y593046D01*
X144818Y592988D01*
X144738Y592850D01*
X144611Y592711D01*
X144599Y592700D01*
X144576Y592688D01*
X144542Y592654D01*
X144484Y592619D01*
X144426Y592585D01*
X144346Y592538D01*
X144173Y592458D01*
X144161D01*
X144126Y592446D01*
X144069Y592435D01*
X144000Y592423D01*
X143907Y592400D01*
X143815Y592389D01*
X143585Y592377D01*
X143446D01*
X143354Y592389D01*
X143239D01*
X143112Y592400D01*
X142962Y592412D01*
X142812Y592423D01*
X142789D01*
X142743Y592435D01*
X142651Y592446D01*
X142547Y592469D01*
X142409Y592492D01*
X142259Y592527D01*
X142097Y592573D01*
X141936Y592619D01*
Y591662D01*
X141947D01*
X141970Y591651D01*
X142005Y591639D01*
X142063Y591628D01*
X142201Y591593D01*
X142362Y591559D01*
X142397D01*
X142443Y591547D01*
X142512Y591535D01*
X142662Y591512D01*
X142835Y591489D01*
X142870D01*
X142916Y591478D01*
X142985Y591466D01*
X143135Y591455D01*
X143308Y591443D01*
X143354D01*
X143400Y591432D01*
X143458D01*
X143608Y591420D01*
X143861D01*
X143977Y591432D01*
X144115Y591443D01*
X144276Y591455D01*
X144449Y591489D01*
X144634Y591524D01*
X144807Y591581D01*
X144830Y591593D01*
X144876Y591616D01*
X144968Y591651D01*
X145072Y591697D01*
X145187Y591766D01*
X145314Y591847D01*
X145441Y591951D01*
X145568Y592054D01*
X145579Y592066D01*
X145614Y592112D01*
X145671Y592181D01*
X145741Y592273D01*
X145821Y592389D01*
X145902Y592527D01*
X145983Y592677D01*
X146052Y592838D01*
X146063Y592861D01*
X146075Y592919D01*
X146098Y593023D01*
X146133Y593150D01*
X146167Y593311D01*
X146190Y593496D01*
X146202Y593703D01*
X146213Y593922D01*
Y593934D01*
Y593945D01*
Y593980D01*
Y594026D01*
X146202Y594141D01*
X146190Y594291D01*
X146179Y594464D01*
X146144Y594649D01*
X146110Y594844D01*
X146052Y595029D01*
Y595041D01*
X146040Y595052D01*
X146017Y595110D01*
X145983Y595214D01*
X145925Y595329D01*
X145856Y595467D01*
X145775Y595606D01*
X145683Y595755D01*
X145579Y595894D01*
X145568Y595905D01*
X145522Y595951D01*
X145452Y596021D01*
X145372Y596101D01*
X145256Y596182D01*
X145141Y596274D01*
X144991Y596367D01*
X144841Y596447D01*
X144818Y596459D01*
X144761Y596482D01*
X144668Y596505D01*
X144553Y596551D01*
X144415Y596586D01*
X144242Y596609D01*
X144057Y596632D01*
X143861Y596643D01*
X143769D01*
X143677Y596632D01*
D02*
G37*
G36*
X82891Y597958D02*
X82741Y597946D01*
X82579Y597935D01*
X82245Y597877D01*
X82222D01*
X82176Y597854D01*
X82095Y597831D01*
X81991Y597808D01*
X81876Y597762D01*
X81749Y597704D01*
X81622Y597646D01*
X81507Y597566D01*
X81495Y597554D01*
X81461Y597531D01*
X81403Y597485D01*
X81334Y597416D01*
X81253Y597335D01*
X81173Y597243D01*
X81103Y597139D01*
X81034Y597012D01*
X81023Y597001D01*
X81011Y596954D01*
X80977Y596885D01*
X80942Y596782D01*
X80919Y596666D01*
X80884Y596516D01*
X80873Y596355D01*
X80861Y596182D01*
Y596171D01*
Y596124D01*
Y596055D01*
X80873Y595974D01*
X80884Y595882D01*
X80907Y595779D01*
X80965Y595559D01*
Y595548D01*
X80988Y595513D01*
X81011Y595456D01*
X81046Y595398D01*
X81138Y595237D01*
X81265Y595075D01*
X81277Y595064D01*
X81300Y595041D01*
X81334Y595006D01*
X81392Y594960D01*
X81461Y594914D01*
X81530Y594856D01*
X81715Y594752D01*
X81726D01*
X81761Y594729D01*
X81807Y594718D01*
X81876Y594695D01*
X81957Y594660D01*
X82049Y594637D01*
X82268Y594591D01*
X82257D01*
X82234Y594579D01*
X82187Y594556D01*
X82130Y594533D01*
X82060Y594499D01*
X81991Y594452D01*
X81911Y594395D01*
X81841Y594314D01*
X81830Y594303D01*
X81807Y594280D01*
X81772Y594222D01*
X81715Y594153D01*
X81657Y594061D01*
X81588Y593957D01*
X81519Y593830D01*
X81449Y593691D01*
X80412Y591535D01*
X81830D01*
X82741Y593599D01*
Y593611D01*
X82764Y593645D01*
X82798Y593703D01*
X82833Y593761D01*
X82948Y593911D01*
X83017Y593980D01*
X83098Y594037D01*
X83110Y594049D01*
X83144Y594061D01*
X83190Y594084D01*
X83248Y594118D01*
X83329Y594153D01*
X83421Y594176D01*
X83525Y594187D01*
X83640Y594199D01*
X83871D01*
Y591535D01*
X85081D01*
Y597969D01*
X83017D01*
X82891Y597958D01*
D02*
G37*
G36*
X154757Y596632D02*
X154607Y596620D01*
X154446Y596597D01*
X154284Y596562D01*
X154135Y596528D01*
X154112D01*
X154065Y596505D01*
X153996Y596482D01*
X153904Y596447D01*
X153800Y596401D01*
X153685Y596343D01*
X153581Y596286D01*
X153477Y596205D01*
X153466Y596194D01*
X153431Y596171D01*
X153385Y596124D01*
X153327Y596067D01*
X153270Y595986D01*
X153201Y595894D01*
X153143Y595790D01*
X153085Y595675D01*
X153074Y595663D01*
X153062Y595617D01*
X153039Y595559D01*
X153016Y595467D01*
X152993Y595363D01*
X152981Y595237D01*
X152959Y595098D01*
Y594948D01*
Y591535D01*
X153996D01*
X154019Y592181D01*
X154031Y592170D01*
X154042Y592158D01*
X154077Y592124D01*
X154123Y592077D01*
X154227Y591985D01*
X154354Y591870D01*
X154365Y591858D01*
X154388Y591847D01*
X154423Y591824D01*
X154469Y591789D01*
X154584Y591708D01*
X154734Y591628D01*
X154746D01*
X154769Y591616D01*
X154815Y591593D01*
X154873Y591570D01*
X155011Y591524D01*
X155184Y591478D01*
X155195D01*
X155230Y591466D01*
X155276Y591455D01*
X155345D01*
X155414Y591443D01*
X155507Y591432D01*
X155714Y591420D01*
X155783D01*
X155852Y591432D01*
X155945D01*
X156049Y591443D01*
X156164Y591466D01*
X156394Y591535D01*
X156406D01*
X156440Y591559D01*
X156498Y591581D01*
X156567Y591616D01*
X156717Y591708D01*
X156879Y591835D01*
X156890Y591847D01*
X156913Y591870D01*
X156948Y591916D01*
X156994Y591974D01*
X157040Y592043D01*
X157086Y592135D01*
X157178Y592331D01*
Y592343D01*
X157190Y592377D01*
X157202Y592446D01*
X157225Y592516D01*
X157236Y592608D01*
X157259Y592723D01*
X157271Y592965D01*
Y592977D01*
Y593023D01*
X157259Y593092D01*
X157248Y593173D01*
X157236Y593277D01*
X157202Y593380D01*
X157167Y593496D01*
X157121Y593611D01*
X157109Y593622D01*
X157098Y593669D01*
X157052Y593726D01*
X157006Y593795D01*
X156948Y593876D01*
X156867Y593957D01*
X156775Y594049D01*
X156671Y594130D01*
X156660Y594141D01*
X156614Y594164D01*
X156544Y594210D01*
X156452Y594256D01*
X156348Y594314D01*
X156210Y594372D01*
X156060Y594429D01*
X155899Y594476D01*
X155876Y594487D01*
X155818Y594499D01*
X155714Y594522D01*
X155587Y594545D01*
X155426Y594568D01*
X155241Y594579D01*
X155045Y594602D01*
X154158D01*
Y594891D01*
Y594902D01*
Y594925D01*
Y594960D01*
X154169Y595006D01*
X154181Y595121D01*
X154215Y595237D01*
Y595248D01*
X154227Y595260D01*
X154261Y595329D01*
X154319Y595421D01*
X154400Y595502D01*
X154423Y595525D01*
X154480Y595559D01*
X154584Y595617D01*
X154711Y595663D01*
X154723D01*
X154746Y595675D01*
X154780Y595686D01*
X154838Y595698D01*
X154907Y595709D01*
X154988Y595721D01*
X155172Y595732D01*
X155334D01*
X155449Y595721D01*
X155587Y595709D01*
X155726Y595686D01*
X156049Y595629D01*
X156072D01*
X156118Y595606D01*
X156210Y595582D01*
X156314Y595559D01*
X156440Y595513D01*
X156579Y595467D01*
X156879Y595352D01*
Y596309D01*
X156867Y596320D01*
X156809Y596332D01*
X156740Y596355D01*
X156637Y596390D01*
X156521Y596424D01*
X156383Y596470D01*
X156233Y596505D01*
X156060Y596539D01*
X156037D01*
X155979Y596551D01*
X155887Y596574D01*
X155760Y596597D01*
X155610Y596609D01*
X155449Y596632D01*
X155264Y596643D01*
X154884D01*
X154757Y596632D01*
D02*
G37*
G36*
X110413D02*
X110286Y596620D01*
X110125Y596597D01*
X109963Y596574D01*
X109790Y596528D01*
X109617Y596470D01*
X109594Y596459D01*
X109548Y596436D01*
X109467Y596401D01*
X109363Y596355D01*
X109248Y596286D01*
X109121Y596194D01*
X108995Y596101D01*
X108879Y595986D01*
X108868Y595974D01*
X108833Y595928D01*
X108775Y595859D01*
X108706Y595767D01*
X108626Y595652D01*
X108545Y595513D01*
X108476Y595352D01*
X108406Y595179D01*
X108395Y595156D01*
X108384Y595098D01*
X108360Y594994D01*
X108326Y594856D01*
X108291Y594695D01*
X108268Y594510D01*
X108257Y594303D01*
X108245Y594072D01*
Y594061D01*
Y594049D01*
Y594014D01*
Y593968D01*
X108257Y593853D01*
X108268Y593715D01*
X108291Y593542D01*
X108314Y593357D01*
X108360Y593161D01*
X108418Y592977D01*
X108430Y592954D01*
X108453Y592896D01*
X108487Y592804D01*
X108545Y592688D01*
X108614Y592562D01*
X108695Y592423D01*
X108787Y592285D01*
X108902Y592146D01*
X108914Y592135D01*
X108960Y592089D01*
X109029Y592031D01*
X109110Y591951D01*
X109225Y591858D01*
X109363Y591778D01*
X109513Y591685D01*
X109675Y591605D01*
X109698Y591593D01*
X109756Y591581D01*
X109848Y591547D01*
X109975Y591512D01*
X110136Y591478D01*
X110309Y591455D01*
X110505Y591432D01*
X110724Y591420D01*
X110816D01*
X110920Y591432D01*
X111058Y591443D01*
X111208Y591455D01*
X111370Y591489D01*
X111543Y591524D01*
X111716Y591581D01*
X111739Y591593D01*
X111785Y591616D01*
X111866Y591651D01*
X111969Y591708D01*
X112096Y591766D01*
X112211Y591858D01*
X112338Y591951D01*
X112465Y592066D01*
X112477Y592077D01*
X112511Y592124D01*
X112569Y592193D01*
X112638Y592285D01*
X112707Y592400D01*
X112788Y592538D01*
X112857Y592700D01*
X112926Y592873D01*
X112938Y592896D01*
X112949Y592954D01*
X112972Y593057D01*
X113007Y593196D01*
X113042Y593357D01*
X113065Y593553D01*
X113076Y593772D01*
X113088Y594003D01*
Y594014D01*
Y594026D01*
Y594061D01*
Y594107D01*
X113076Y594210D01*
X113065Y594360D01*
X113053Y594522D01*
X113019Y594706D01*
X112984Y594891D01*
X112926Y595075D01*
Y595087D01*
X112915Y595098D01*
X112892Y595156D01*
X112857Y595248D01*
X112800Y595363D01*
X112730Y595502D01*
X112650Y595640D01*
X112557Y595779D01*
X112442Y595917D01*
X112431Y595928D01*
X112384Y595974D01*
X112315Y596032D01*
X112223Y596113D01*
X112108Y596194D01*
X111969Y596286D01*
X111819Y596367D01*
X111658Y596447D01*
X111635Y596459D01*
X111577Y596482D01*
X111485Y596505D01*
X111358Y596551D01*
X111197Y596586D01*
X111024Y596609D01*
X110828Y596632D01*
X110620Y596643D01*
X110528D01*
X110413Y596632D01*
D02*
G37*
G36*
X127708Y586147D02*
X127558Y586135D01*
X127397Y586124D01*
X127062Y586066D01*
X127039D01*
X126993Y586043D01*
X126912Y586020D01*
X126808Y585997D01*
X126693Y585951D01*
X126566Y585893D01*
X126439Y585835D01*
X126324Y585755D01*
X126313Y585743D01*
X126278Y585720D01*
X126220Y585674D01*
X126151Y585605D01*
X126070Y585524D01*
X125990Y585432D01*
X125921Y585328D01*
X125851Y585201D01*
X125840Y585190D01*
X125828Y585144D01*
X125794Y585074D01*
X125759Y584971D01*
X125736Y584855D01*
X125701Y584705D01*
X125690Y584544D01*
X125679Y584371D01*
Y584360D01*
Y584313D01*
Y584244D01*
X125690Y584164D01*
X125701Y584071D01*
X125725Y583967D01*
X125782Y583748D01*
Y583737D01*
X125805Y583702D01*
X125828Y583645D01*
X125863Y583587D01*
X125955Y583426D01*
X126082Y583264D01*
X126094Y583253D01*
X126117Y583229D01*
X126151Y583195D01*
X126209Y583149D01*
X126278Y583103D01*
X126347Y583045D01*
X126532Y582941D01*
X126543D01*
X126578Y582918D01*
X126624Y582907D01*
X126693Y582884D01*
X126774Y582849D01*
X126866Y582826D01*
X127085Y582780D01*
X127074D01*
X127051Y582768D01*
X127004Y582745D01*
X126947Y582722D01*
X126878Y582688D01*
X126808Y582642D01*
X126728Y582584D01*
X126658Y582503D01*
X126647Y582492D01*
X126624Y582469D01*
X126589Y582411D01*
X126532Y582342D01*
X126474Y582249D01*
X126405Y582146D01*
X126336Y582019D01*
X126267Y581881D01*
X125229Y579724D01*
X126647D01*
X127558Y581788D01*
Y581800D01*
X127581Y581834D01*
X127615Y581892D01*
X127650Y581950D01*
X127765Y582100D01*
X127835Y582169D01*
X127915Y582226D01*
X127927Y582238D01*
X127961Y582249D01*
X128007Y582272D01*
X128065Y582307D01*
X128146Y582342D01*
X128238Y582365D01*
X128342Y582376D01*
X128457Y582388D01*
X128688D01*
Y579724D01*
X129899D01*
Y586158D01*
X127835D01*
X127708Y586147D01*
D02*
G37*
G36*
X139687Y582607D02*
X137946Y584728D01*
X136448D01*
X138465Y582445D01*
X136275Y579724D01*
X137843D01*
X139687Y582226D01*
Y579724D01*
X140887D01*
Y586689D01*
X139687D01*
Y582607D01*
D02*
G37*
G36*
X120202Y585132D02*
X122842D01*
Y583541D01*
X120329D01*
Y582538D01*
X122842D01*
Y580751D01*
X120202D01*
Y579724D01*
X124076D01*
Y586158D01*
X120202D01*
Y585132D01*
D02*
G37*
G36*
X111035Y581523D02*
X110909Y581500D01*
X110782Y581454D01*
X110770D01*
X110747Y581442D01*
X110713Y581419D01*
X110678Y581396D01*
X110574Y581327D01*
X110470Y581246D01*
X110459D01*
X110447Y581223D01*
X110390Y581166D01*
X110320Y581062D01*
X110263Y580935D01*
Y580924D01*
X110251Y580900D01*
X110240Y580866D01*
X110217Y580820D01*
X110194Y580704D01*
X110182Y580566D01*
Y580555D01*
Y580532D01*
Y580497D01*
X110194Y580451D01*
X110217Y580324D01*
X110263Y580186D01*
Y580174D01*
X110274Y580163D01*
X110309Y580082D01*
X110378Y579990D01*
X110470Y579886D01*
X110494Y579863D01*
X110551Y579817D01*
X110655Y579747D01*
X110782Y579690D01*
X110793D01*
X110816Y579678D01*
X110851Y579667D01*
X110897Y579655D01*
X111012Y579621D01*
X111162Y579609D01*
X111231D01*
X111277Y579621D01*
X111404Y579644D01*
X111531Y579690D01*
X111543D01*
X111554Y579701D01*
X111623Y579736D01*
X111727Y579805D01*
X111831Y579886D01*
Y579897D01*
X111854Y579909D01*
X111900Y579966D01*
X111969Y580070D01*
X112027Y580186D01*
Y580197D01*
X112039Y580220D01*
X112050Y580255D01*
X112062Y580301D01*
X112085Y580428D01*
X112096Y580566D01*
Y580578D01*
Y580601D01*
Y580635D01*
X112085Y580681D01*
X112062Y580808D01*
X112027Y580935D01*
Y580947D01*
X112015Y580970D01*
X111992Y581004D01*
X111981Y581039D01*
X111912Y581143D01*
X111831Y581246D01*
X111819Y581258D01*
X111808Y581269D01*
X111739Y581316D01*
X111646Y581385D01*
X111531Y581454D01*
X111520D01*
X111497Y581465D01*
X111462Y581477D01*
X111416Y581500D01*
X111301Y581523D01*
X111162Y581535D01*
X111082D01*
X111035Y581523D01*
D02*
G37*
G36*
X72029Y586262D02*
X71903Y586250D01*
X71753Y586227D01*
X71591Y586193D01*
X71418Y586147D01*
X71245Y586077D01*
X71222Y586066D01*
X71165Y586043D01*
X71084Y585997D01*
X70980Y585939D01*
X70853Y585858D01*
X70727Y585755D01*
X70600Y585628D01*
X70473Y585489D01*
X70461Y585466D01*
X70415Y585420D01*
X70358Y585328D01*
X70288Y585213D01*
X70208Y585063D01*
X70127Y584890D01*
X70035Y584694D01*
X69965Y584463D01*
Y584452D01*
X69954Y584440D01*
X69942Y584406D01*
X69931Y584348D01*
X69919Y584290D01*
X69908Y584221D01*
X69873Y584048D01*
X69839Y583829D01*
X69804Y583564D01*
X69793Y583276D01*
X69781Y582964D01*
Y582953D01*
Y582930D01*
Y582884D01*
Y582826D01*
Y582757D01*
X69793Y582676D01*
X69804Y582492D01*
X69827Y582272D01*
X69850Y582030D01*
X69896Y581788D01*
X69954Y581546D01*
Y581535D01*
X69965Y581523D01*
X69977Y581489D01*
X69989Y581442D01*
X70023Y581327D01*
X70081Y581177D01*
X70150Y581016D01*
X70242Y580831D01*
X70346Y580658D01*
X70461Y580485D01*
X70473Y580462D01*
X70519Y580416D01*
X70588Y580336D01*
X70692Y580243D01*
X70807Y580139D01*
X70946Y580024D01*
X71107Y579920D01*
X71280Y579828D01*
X71303Y579817D01*
X71361Y579794D01*
X71464Y579759D01*
X71591Y579724D01*
X71753Y579678D01*
X71937Y579644D01*
X72145Y579621D01*
X72364Y579609D01*
X72456D01*
X72560Y579621D01*
X72687Y579632D01*
X72848Y579655D01*
X73010Y579690D01*
X73182Y579736D01*
X73355Y579794D01*
X73378Y579805D01*
X73425Y579828D01*
X73517Y579874D01*
X73620Y579932D01*
X73736Y580024D01*
X73863Y580116D01*
X74001Y580243D01*
X74128Y580382D01*
X74139Y580405D01*
X74186Y580451D01*
X74243Y580543D01*
X74312Y580658D01*
X74393Y580808D01*
X74474Y580981D01*
X74555Y581189D01*
X74635Y581408D01*
Y581419D01*
X74647Y581442D01*
Y581477D01*
X74658Y581523D01*
X74670Y581581D01*
X74693Y581650D01*
X74716Y581834D01*
X74751Y582054D01*
X74785Y582307D01*
X74797Y582595D01*
X74808Y582907D01*
Y582918D01*
Y582941D01*
Y582987D01*
Y583045D01*
Y583114D01*
X74797Y583195D01*
X74785Y583379D01*
X74762Y583599D01*
X74739Y583841D01*
X74693Y584083D01*
X74635Y584325D01*
Y584336D01*
X74624Y584348D01*
X74612Y584382D01*
X74601Y584429D01*
X74566Y584544D01*
X74508Y584694D01*
X74439Y584855D01*
X74347Y585028D01*
X74255Y585201D01*
X74139Y585374D01*
X74128Y585397D01*
X74082Y585443D01*
X74013Y585524D01*
X73909Y585628D01*
X73794Y585732D01*
X73655Y585847D01*
X73494Y585951D01*
X73321Y586043D01*
X73298Y586054D01*
X73240Y586077D01*
X73136Y586112D01*
X72998Y586158D01*
X72837Y586204D01*
X72652Y586239D01*
X72444Y586262D01*
X72225Y586273D01*
X72133D01*
X72029Y586262D01*
D02*
G37*
G36*
X155668Y586147D02*
X155495Y586135D01*
X155288Y586112D01*
X155080Y586077D01*
X154861Y586031D01*
X154642Y585962D01*
X154630D01*
X154619Y585951D01*
X154550Y585927D01*
X154446Y585881D01*
X154319Y585824D01*
X154169Y585743D01*
X154019Y585651D01*
X153869Y585535D01*
X153719Y585397D01*
X153708Y585386D01*
X153662Y585328D01*
X153593Y585247D01*
X153512Y585132D01*
X153420Y584994D01*
X153327Y584821D01*
X153247Y584636D01*
X153166Y584417D01*
Y584406D01*
X153155Y584394D01*
X153143Y584360D01*
X153131Y584313D01*
X153120Y584256D01*
X153108Y584187D01*
X153062Y584025D01*
X153028Y583818D01*
X153005Y583575D01*
X152981Y583310D01*
X152970Y583022D01*
Y583010D01*
Y582987D01*
Y582953D01*
Y582895D01*
Y582826D01*
X152981Y582757D01*
X152993Y582572D01*
X153016Y582365D01*
X153051Y582134D01*
X153097Y581892D01*
X153166Y581661D01*
Y581650D01*
X153177Y581638D01*
X153189Y581604D01*
X153201Y581558D01*
X153247Y581442D01*
X153304Y581304D01*
X153385Y581143D01*
X153489Y580958D01*
X153604Y580785D01*
X153743Y580612D01*
X153766Y580589D01*
X153812Y580543D01*
X153904Y580462D01*
X154019Y580370D01*
X154158Y580266D01*
X154331Y580151D01*
X154526Y580047D01*
X154746Y579955D01*
X154757D01*
X154769Y579944D01*
X154803Y579932D01*
X154849Y579920D01*
X154919Y579897D01*
X154988Y579886D01*
X155161Y579840D01*
X155368Y579794D01*
X155622Y579759D01*
X155899Y579736D01*
X156210Y579724D01*
X157836D01*
Y586158D01*
X155749D01*
X155668Y586147D01*
D02*
G37*
G36*
X149188Y580658D02*
X147747D01*
Y579724D01*
X152002D01*
Y580658D01*
X150422D01*
Y583794D01*
X151829D01*
Y584728D01*
X149188D01*
Y580658D01*
D02*
G37*
G36*
X161871Y582607D02*
X160130Y584728D01*
X158631D01*
X160649Y582445D01*
X158458Y579724D01*
X160026D01*
X161871Y582226D01*
Y579724D01*
X163070D01*
Y586689D01*
X161871D01*
Y582607D01*
D02*
G37*
G36*
X331216Y67167D02*
X331218Y67164D01*
X331539Y65551D01*
X331218Y63938D01*
X330305Y62571D01*
X328937Y61657D01*
X327324Y61336D01*
X325711Y61657D01*
X324344Y62571D01*
X323430Y63938D01*
X323109Y65551D01*
X323430Y67164D01*
X323432Y67167D01*
X322875Y68209D01*
X322305Y68209D01*
X322206Y68209D01*
X322108Y68209D01*
X321469Y68209D01*
X321469Y68209D01*
Y68209D01*
X320533D01*
Y60630D01*
X324273D01*
Y49902D01*
X326045D01*
Y48199D01*
X326958Y47449D01*
X327816Y47620D01*
X329429Y47300D01*
X330797Y46386D01*
X330809Y46368D01*
X331984Y46252D01*
X332477Y46745D01*
X332584Y47282D01*
X333497Y48650D01*
X334865Y49563D01*
X336478Y49884D01*
X338091Y49563D01*
X338446Y49902D01*
Y49902D01*
X341186D01*
Y49902D01*
Y50575D01*
X341186Y50737D01*
X341186Y50737D01*
X341186D01*
Y54618D01*
X343269D01*
Y55118D01*
X343769D01*
Y59662D01*
X343958D01*
Y68209D01*
X343022D01*
X343022Y68209D01*
Y68209D01*
X342383Y68209D01*
X342285Y68209D01*
X342186Y68209D01*
X341548Y68209D01*
X341548Y68209D01*
Y68209D01*
X331773D01*
X331216Y67167D01*
D02*
G37*
G36*
X132442Y553838D02*
D01*
D01*
X132442Y553838D01*
X132442Y553642D01*
X132442D01*
Y544390D01*
X127471D01*
X126930Y543849D01*
Y536811D01*
X130671D01*
Y526083D01*
X132442D01*
Y516831D01*
X124372D01*
Y516831D01*
X123798D01*
X123346Y515739D01*
X124074Y515011D01*
X134529D01*
X134777Y515382D01*
X136144Y516296D01*
X137757Y516616D01*
X139370Y516296D01*
X140738Y515382D01*
X141203Y514685D01*
X142333Y515028D01*
Y516831D01*
X140907D01*
Y526083D01*
X142974D01*
X143647Y526756D01*
X143647Y526918D01*
X143647Y526918D01*
X143647D01*
Y530799D01*
X145730D01*
Y531299D01*
X146230D01*
Y535843D01*
X146419D01*
Y543849D01*
X145878Y544390D01*
X140907D01*
Y553642D01*
D01*
Y553642D01*
X140907Y553642D01*
X140907Y553838D01*
X140907D01*
Y556249D01*
X132442D01*
Y553838D01*
D02*
G37*
G36*
X104728Y580797D02*
X103310D01*
Y579724D01*
X107599D01*
Y580797D01*
X105962D01*
Y584924D01*
X107392Y584140D01*
X107784Y585120D01*
X105743Y586204D01*
X104728D01*
Y580797D01*
D02*
G37*
G36*
X147401Y591535D02*
X148439D01*
X148473Y592273D01*
X148485Y592262D01*
X148496Y592239D01*
X148531Y592204D01*
X148577Y592158D01*
X148681Y592043D01*
X148808Y591916D01*
X148819Y591904D01*
X148831Y591893D01*
X148865Y591858D01*
X148911Y591824D01*
X149027Y591743D01*
X149165Y591651D01*
X149177D01*
X149200Y591628D01*
X149234Y591616D01*
X149280Y591581D01*
X149407Y591524D01*
X149569Y591478D01*
X149580D01*
X149603Y591466D01*
X149649Y591455D01*
X149707D01*
X149788Y591443D01*
X149868Y591432D01*
X150053Y591420D01*
X150134D01*
X150214Y591432D01*
X150318Y591443D01*
X150445Y591466D01*
X150583Y591489D01*
X150710Y591535D01*
X150848Y591593D01*
X150860Y591605D01*
X150906Y591628D01*
X150975Y591662D01*
X151044Y591720D01*
X151137Y591789D01*
X151241Y591881D01*
X151333Y591974D01*
X151425Y592089D01*
X151436Y592100D01*
X151460Y592146D01*
X151506Y592216D01*
X151552Y592319D01*
X151610Y592435D01*
X151667Y592562D01*
X151725Y592723D01*
X151782Y592884D01*
Y592907D01*
X151805Y592965D01*
X151817Y593069D01*
X151840Y593196D01*
X151863Y593346D01*
X151875Y593530D01*
X151898Y593726D01*
Y593934D01*
Y593945D01*
Y593968D01*
Y594003D01*
Y594049D01*
X151886Y594176D01*
X151875Y594349D01*
X151852Y594533D01*
X151817Y594729D01*
X151771Y594937D01*
X151713Y595133D01*
Y595144D01*
X151702Y595156D01*
X151679Y595214D01*
X151632Y595306D01*
X151575Y595433D01*
X151494Y595559D01*
X151402Y595698D01*
X151298Y595848D01*
X151171Y595974D01*
X151160Y595986D01*
X151114Y596032D01*
X151033Y596090D01*
X150941Y596159D01*
X150814Y596240D01*
X150675Y596320D01*
X150526Y596401D01*
X150353Y596470D01*
X150330Y596482D01*
X150272Y596493D01*
X150168Y596516D01*
X150041Y596551D01*
X149891Y596586D01*
X149718Y596609D01*
X149522Y596620D01*
X149315Y596632D01*
X149200D01*
X149084Y596620D01*
X148946Y596597D01*
X148911D01*
X148877Y596586D01*
X148831D01*
X148715Y596562D01*
X148600Y596539D01*
Y598499D01*
X147401D01*
Y591535D01*
D02*
G37*
G36*
X76941Y598073D02*
X76791Y598061D01*
X76757D01*
X76711Y598050D01*
X76653D01*
X76526Y598038D01*
X76376Y598015D01*
X76342D01*
X76296Y598004D01*
X76249D01*
X76123Y597981D01*
X75984Y597946D01*
X75950D01*
X75915Y597935D01*
X75869Y597923D01*
X75754Y597900D01*
X75627Y597877D01*
Y596770D01*
X75638D01*
X75650Y596782D01*
X75684Y596793D01*
X75731Y596805D01*
X75846Y596839D01*
X75973Y596874D01*
X75984D01*
X76007Y596885D01*
X76042D01*
X76088Y596897D01*
X76215Y596932D01*
X76365Y596954D01*
X76376D01*
X76399Y596966D01*
X76434D01*
X76491Y596978D01*
X76618Y597001D01*
X76768Y597024D01*
X76803D01*
X76837Y597035D01*
X76884D01*
X77010Y597047D01*
X77264D01*
X77333Y597035D01*
X77506Y597024D01*
X77691Y596989D01*
X77702D01*
X77725Y596978D01*
X77771Y596966D01*
X77817Y596954D01*
X77933Y596908D01*
X78048Y596851D01*
X78071Y596839D01*
X78129Y596793D01*
X78198Y596712D01*
X78256Y596620D01*
Y596609D01*
X78267Y596597D01*
X78279Y596528D01*
X78302Y596436D01*
X78313Y596320D01*
Y596309D01*
Y596286D01*
X78302Y596251D01*
Y596205D01*
X78256Y596090D01*
X78233Y596032D01*
X78186Y595974D01*
X78175Y595963D01*
X78163Y595951D01*
X78129Y595928D01*
X78094Y595894D01*
X77979Y595801D01*
X77829Y595709D01*
X77817D01*
X77783Y595686D01*
X77737Y595663D01*
X77679Y595640D01*
X77598Y595606D01*
X77518Y595571D01*
X77322Y595490D01*
X77310D01*
X77276Y595479D01*
X77218Y595456D01*
X77137Y595433D01*
X77056Y595398D01*
X76953Y595363D01*
X76745Y595283D01*
X76734D01*
X76699Y595260D01*
X76630Y595237D01*
X76561Y595202D01*
X76468Y595167D01*
X76376Y595121D01*
X76169Y595017D01*
X76157Y595006D01*
X76123Y594994D01*
X76065Y594960D01*
X75996Y594914D01*
X75834Y594798D01*
X75661Y594649D01*
X75650Y594637D01*
X75627Y594614D01*
X75581Y594568D01*
X75523Y594510D01*
X75465Y594441D01*
X75408Y594349D01*
X75292Y594153D01*
X75281Y594141D01*
X75269Y594107D01*
X75246Y594037D01*
X75223Y593957D01*
X75200Y593864D01*
X75177Y593749D01*
X75154Y593611D01*
Y593472D01*
Y593449D01*
Y593380D01*
X75166Y593288D01*
X75177Y593161D01*
X75200Y593011D01*
X75235Y592861D01*
X75281Y592700D01*
X75350Y592550D01*
X75362Y592538D01*
X75385Y592492D01*
X75431Y592412D01*
X75488Y592331D01*
X75569Y592227D01*
X75661Y592124D01*
X75777Y592020D01*
X75903Y591916D01*
X75915Y591904D01*
X75961Y591870D01*
X76042Y591824D01*
X76134Y591778D01*
X76261Y591708D01*
X76399Y591651D01*
X76561Y591593D01*
X76734Y591535D01*
X76757D01*
X76814Y591512D01*
X76918Y591501D01*
X77045Y591478D01*
X77206Y591455D01*
X77379Y591443D01*
X77575Y591420D01*
X77967D01*
X78094Y591432D01*
X78244D01*
X78405Y591443D01*
X78763Y591478D01*
X78786D01*
X78844Y591489D01*
X78936Y591501D01*
X79051Y591524D01*
X79201Y591547D01*
X79351Y591581D01*
X79697Y591674D01*
Y592873D01*
X79685D01*
X79662Y592861D01*
X79616Y592850D01*
X79558Y592827D01*
X79409Y592781D01*
X79236Y592723D01*
X79224D01*
X79189Y592711D01*
X79143Y592700D01*
X79074Y592677D01*
X78924Y592642D01*
X78740Y592596D01*
X78728D01*
X78694Y592585D01*
X78648D01*
X78578Y592573D01*
X78429Y592538D01*
X78244Y592516D01*
X78198D01*
X78152Y592504D01*
X78083D01*
X77933Y592492D01*
X77633D01*
X77552Y592504D01*
X77368Y592516D01*
X77172Y592550D01*
X77160D01*
X77126Y592562D01*
X77091Y592573D01*
X77033Y592596D01*
X76907Y592642D01*
X76780Y592711D01*
X76768D01*
X76757Y592735D01*
X76688Y592781D01*
X76618Y592861D01*
X76549Y592954D01*
Y592965D01*
X76538Y592977D01*
X76515Y593046D01*
X76491Y593150D01*
X76480Y593277D01*
Y593288D01*
Y593311D01*
X76491Y593357D01*
Y593415D01*
X76538Y593542D01*
X76572Y593611D01*
X76618Y593669D01*
X76630Y593680D01*
X76641Y593691D01*
X76676Y593726D01*
X76711Y593761D01*
X76826Y593853D01*
X76976Y593945D01*
X76987Y593957D01*
X77010Y593968D01*
X77056Y593991D01*
X77126Y594026D01*
X77195Y594061D01*
X77287Y594095D01*
X77483Y594164D01*
X77495D01*
X77529Y594187D01*
X77587Y594199D01*
X77668Y594233D01*
X77748Y594268D01*
X77852Y594303D01*
X78060Y594383D01*
X78071D01*
X78106Y594406D01*
X78163Y594429D01*
X78244Y594464D01*
X78325Y594499D01*
X78429Y594545D01*
X78636Y594637D01*
X78648Y594649D01*
X78682Y594660D01*
X78740Y594695D01*
X78809Y594741D01*
X78970Y594856D01*
X79143Y594994D01*
X79155Y595006D01*
X79178Y595029D01*
X79224Y595075D01*
X79270Y595144D01*
X79328Y595214D01*
X79386Y595306D01*
X79501Y595502D01*
Y595513D01*
X79524Y595559D01*
X79535Y595617D01*
X79558Y595698D01*
X79582Y595801D01*
X79605Y595928D01*
X79616Y596055D01*
X79628Y596205D01*
Y596228D01*
Y596274D01*
X79616Y596343D01*
Y596436D01*
X79593Y596551D01*
X79570Y596666D01*
X79547Y596793D01*
X79501Y596920D01*
X79489Y596932D01*
X79478Y596978D01*
X79443Y597047D01*
X79397Y597127D01*
X79328Y597220D01*
X79259Y597324D01*
X79167Y597416D01*
X79063Y597519D01*
X79051Y597531D01*
X79005Y597566D01*
X78947Y597612D01*
X78855Y597669D01*
X78740Y597727D01*
X78613Y597796D01*
X78463Y597865D01*
X78302Y597923D01*
X78279Y597935D01*
X78221Y597946D01*
X78117Y597969D01*
X77990Y598004D01*
X77829Y598038D01*
X77633Y598061D01*
X77425Y598073D01*
X77183Y598084D01*
X77068D01*
X76941Y598073D01*
D02*
G37*
G36*
X65907Y580797D02*
X64489D01*
Y579724D01*
X68778D01*
Y580797D01*
X67141D01*
Y584924D01*
X68570Y584140D01*
X68962Y585120D01*
X66922Y586204D01*
X65907D01*
Y580797D01*
D02*
G37*
G36*
X126612Y596632D02*
X126520D01*
X126416Y596609D01*
X126313Y596586D01*
X126197Y596562D01*
X126082Y596516D01*
X126070D01*
X126036Y596493D01*
X125978Y596459D01*
X125909Y596424D01*
X125759Y596309D01*
X125609Y596159D01*
X125598Y596147D01*
X125575Y596113D01*
X125540Y596067D01*
X125494Y596009D01*
X125448Y595928D01*
X125402Y595825D01*
X125356Y595721D01*
X125321Y595606D01*
Y595594D01*
X125310Y595548D01*
X125286Y595479D01*
X125263Y595398D01*
X125252Y595294D01*
X125229Y595167D01*
X125217Y595029D01*
Y594891D01*
Y591535D01*
X126416D01*
Y594787D01*
Y594798D01*
Y594822D01*
Y594868D01*
X126428Y594914D01*
X126451Y595052D01*
X126497Y595202D01*
X126566Y595352D01*
X126682Y595490D01*
X126751Y595536D01*
X126831Y595582D01*
X126924Y595606D01*
X127039Y595617D01*
X127085D01*
X127154Y595606D01*
X127224Y595582D01*
X127316Y595559D01*
X127408Y595513D01*
X127523Y595444D01*
X127627Y595363D01*
X127639Y595352D01*
X127673Y595317D01*
X127731Y595260D01*
X127800Y595190D01*
X127892Y595098D01*
X127984Y594983D01*
X128088Y594844D01*
X128204Y594695D01*
Y591535D01*
X129403D01*
Y596539D01*
X128376D01*
X128342Y595790D01*
X128330Y595801D01*
X128319Y595825D01*
X128284Y595859D01*
X128250Y595905D01*
X128146Y596021D01*
X128031Y596136D01*
X128019Y596147D01*
X127996Y596159D01*
X127961Y596194D01*
X127915Y596228D01*
X127812Y596320D01*
X127673Y596401D01*
X127662D01*
X127639Y596424D01*
X127604Y596436D01*
X127546Y596470D01*
X127419Y596528D01*
X127258Y596574D01*
X127247D01*
X127212Y596586D01*
X127166Y596597D01*
X127108Y596609D01*
X127027Y596620D01*
X126947Y596632D01*
X126751Y596643D01*
X126682D01*
X126612Y596632D01*
D02*
G37*
G36*
X132677Y598684D02*
X132585Y598672D01*
X132481Y598626D01*
X132470D01*
X132458Y598615D01*
X132389Y598580D01*
X132308Y598534D01*
X132228Y598453D01*
X132204Y598430D01*
X132170Y598384D01*
X132112Y598304D01*
X132066Y598200D01*
Y598188D01*
X132055Y598177D01*
X132032Y598107D01*
X132009Y598015D01*
X131997Y597900D01*
Y597889D01*
Y597877D01*
X132009Y597796D01*
X132020Y597704D01*
X132066Y597589D01*
Y597577D01*
X132078Y597566D01*
X132112Y597508D01*
X132158Y597427D01*
X132228Y597347D01*
X132251Y597335D01*
X132297Y597289D01*
X132377Y597231D01*
X132481Y597185D01*
X132493D01*
X132504Y597174D01*
X132573Y597162D01*
X132666Y597139D01*
X132781Y597127D01*
X132839D01*
X132885Y597139D01*
X132989Y597151D01*
X133104Y597185D01*
X133115D01*
X133127Y597197D01*
X133185Y597231D01*
X133265Y597277D01*
X133346Y597347D01*
X133358Y597370D01*
X133404Y597416D01*
X133461Y597496D01*
X133507Y597589D01*
Y597600D01*
X133519Y597612D01*
X133530Y597681D01*
X133554Y597785D01*
X133565Y597900D01*
Y597912D01*
Y597923D01*
X133554Y598004D01*
X133542Y598096D01*
X133507Y598200D01*
Y598211D01*
X133496Y598223D01*
X133461Y598292D01*
X133415Y598373D01*
X133346Y598453D01*
X133323Y598477D01*
X133277Y598523D01*
X133196Y598580D01*
X133104Y598626D01*
X133092D01*
X133081Y598638D01*
X133012Y598661D01*
X132908Y598684D01*
X132781Y598696D01*
X132758D01*
X132677Y598684D01*
D02*
G37*
G36*
X77771Y586262D02*
X77656D01*
X77529Y586239D01*
X77379Y586216D01*
X77241Y586193D01*
X77091Y586147D01*
X77068D01*
X77022Y586124D01*
X76953Y586100D01*
X76860Y586054D01*
X76757Y586008D01*
X76653Y585951D01*
X76538Y585870D01*
X76434Y585789D01*
X76422Y585778D01*
X76388Y585743D01*
X76342Y585697D01*
X76272Y585628D01*
X76203Y585547D01*
X76134Y585443D01*
X76065Y585328D01*
X76007Y585201D01*
X75996Y585190D01*
X75984Y585144D01*
X75961Y585063D01*
X75927Y584971D01*
X75892Y584844D01*
X75869Y584705D01*
X75857Y584555D01*
X75846Y584382D01*
Y584371D01*
Y584313D01*
Y584244D01*
X75857Y584140D01*
X75869Y584037D01*
X75892Y583910D01*
X75950Y583656D01*
Y583645D01*
X75973Y583599D01*
X75996Y583541D01*
X76030Y583460D01*
X76076Y583356D01*
X76123Y583253D01*
X76261Y583010D01*
X76272Y582999D01*
X76296Y582953D01*
X76342Y582895D01*
X76399Y582815D01*
X76468Y582722D01*
X76549Y582607D01*
X76745Y582376D01*
X76757Y582365D01*
X76791Y582319D01*
X76849Y582261D01*
X76930Y582180D01*
X77022Y582077D01*
X77137Y581973D01*
X77253Y581846D01*
X77391Y581719D01*
X78325Y580831D01*
X75615D01*
Y579724D01*
X79985D01*
Y580601D01*
X78475Y582134D01*
X78452Y582157D01*
X78405Y582203D01*
X78325Y582284D01*
X78221Y582388D01*
X78117Y582503D01*
X78002Y582630D01*
X77887Y582757D01*
X77783Y582872D01*
X77771Y582884D01*
X77737Y582930D01*
X77691Y582987D01*
X77633Y583057D01*
X77506Y583241D01*
X77391Y583426D01*
X77379Y583437D01*
X77368Y583472D01*
X77345Y583518D01*
X77310Y583575D01*
X77241Y583714D01*
X77195Y583875D01*
Y583887D01*
X77183Y583910D01*
Y583956D01*
X77172Y584002D01*
X77160Y584140D01*
X77149Y584302D01*
Y584313D01*
Y584336D01*
Y584371D01*
X77160Y584417D01*
X77172Y584521D01*
X77218Y584648D01*
Y584659D01*
X77229Y584671D01*
X77264Y584740D01*
X77310Y584832D01*
X77391Y584924D01*
Y584936D01*
X77414Y584947D01*
X77460Y584994D01*
X77552Y585063D01*
X77668Y585120D01*
X77679D01*
X77702Y585132D01*
X77737Y585144D01*
X77783Y585167D01*
X77910Y585190D01*
X78071Y585201D01*
X78140D01*
X78210Y585190D01*
X78302Y585178D01*
X78405Y585155D01*
X78532Y585132D01*
X78648Y585086D01*
X78774Y585028D01*
X78786Y585017D01*
X78832Y584994D01*
X78890Y584959D01*
X78970Y584913D01*
X79063Y584855D01*
X79167Y584774D01*
X79282Y584694D01*
X79386Y584590D01*
X80020Y585409D01*
X79997Y585432D01*
X79950Y585478D01*
X79858Y585547D01*
X79743Y585639D01*
X79605Y585732D01*
X79455Y585835D01*
X79270Y585939D01*
X79086Y586031D01*
X79074D01*
X79063Y586043D01*
X78993Y586066D01*
X78890Y586112D01*
X78740Y586158D01*
X78578Y586193D01*
X78382Y586239D01*
X78163Y586262D01*
X77944Y586273D01*
X77864D01*
X77771Y586262D01*
D02*
G37*
%LPC*%
G36*
X71003Y583264D02*
X73413Y581535D01*
X73401Y581512D01*
X73378Y581454D01*
X73344Y581373D01*
X73298Y581269D01*
X73229Y581143D01*
X73159Y581027D01*
X73067Y580912D01*
X72963Y580820D01*
X72952Y580808D01*
X72917Y580785D01*
X72848Y580751D01*
X72767Y580704D01*
X72675Y580658D01*
X72560Y580624D01*
X72444Y580601D01*
X72306Y580589D01*
X72260D01*
X72202Y580601D01*
X72133Y580612D01*
X71972Y580647D01*
X71880Y580681D01*
X71787Y580727D01*
X71776Y580739D01*
X71741Y580751D01*
X71707Y580785D01*
X71649Y580831D01*
X71580Y580889D01*
X71511Y580970D01*
X71441Y581050D01*
X71372Y581154D01*
X71361Y581166D01*
X71338Y581212D01*
X71315Y581269D01*
X71268Y581350D01*
X71234Y581454D01*
X71188Y581581D01*
X71142Y581719D01*
X71096Y581881D01*
Y581904D01*
X71084Y581961D01*
X71061Y582054D01*
X71038Y582180D01*
X71026Y582330D01*
X71003Y582515D01*
X70992Y582711D01*
Y582930D01*
Y582941D01*
Y582976D01*
Y583034D01*
X71003Y583091D01*
Y583103D01*
Y583149D01*
Y583207D01*
Y583264D01*
D02*
G37*
G36*
X128157Y585144D02*
X128688D01*
Y583333D01*
X128100D01*
X128031Y583345D01*
X127858Y583356D01*
X127685Y583391D01*
X127673D01*
X127650Y583402D01*
X127604Y583414D01*
X127546Y583437D01*
X127419Y583483D01*
X127293Y583564D01*
X127281D01*
X127270Y583587D01*
X127200Y583645D01*
X127120Y583737D01*
X127039Y583852D01*
Y583864D01*
X127027Y583887D01*
X127004Y583921D01*
X126993Y583967D01*
X126958Y584094D01*
X126947Y584256D01*
Y584279D01*
Y584336D01*
X126958Y584417D01*
X126981Y584521D01*
X127027Y584625D01*
X127074Y584740D01*
X127154Y584844D01*
X127258Y584936D01*
X127270Y584947D01*
X127316Y584971D01*
X127385Y585005D01*
X127477Y585040D01*
X127604Y585074D01*
X127765Y585109D01*
X127950Y585132D01*
X128157Y585144D01*
D02*
G37*
G36*
X72295Y585293D02*
X72341D01*
X72398Y585282D01*
X72467Y585270D01*
X72629Y585236D01*
X72721Y585190D01*
X72813Y585144D01*
X72825Y585132D01*
X72848Y585120D01*
X72894Y585086D01*
X72952Y585040D01*
X73021Y584982D01*
X73090Y584901D01*
X73159Y584821D01*
X73229Y584717D01*
X73240Y584705D01*
X73252Y584671D01*
X73286Y584602D01*
X73332Y584521D01*
X73367Y584417D01*
X73413Y584290D01*
X73459Y584152D01*
X73505Y583990D01*
Y583967D01*
X73517Y583910D01*
X73528Y583818D01*
X73551Y583702D01*
X73563Y583541D01*
X73586Y583368D01*
X73598Y583172D01*
Y582953D01*
Y582941D01*
Y582895D01*
Y582826D01*
Y582757D01*
Y582745D01*
Y582711D01*
Y582653D01*
Y582595D01*
X71176Y584336D01*
X71188Y584360D01*
X71211Y584417D01*
X71245Y584498D01*
X71303Y584613D01*
X71361Y584728D01*
X71441Y584844D01*
X71534Y584959D01*
X71637Y585051D01*
X71649Y585063D01*
X71684Y585086D01*
X71741Y585132D01*
X71822Y585178D01*
X71914Y585213D01*
X72029Y585259D01*
X72156Y585282D01*
X72295Y585293D01*
D02*
G37*
G36*
X156014Y585144D02*
X156625D01*
Y580739D01*
X156014D01*
X155945Y580751D01*
X155876D01*
X155783Y580762D01*
X155587Y580808D01*
X155380Y580866D01*
X155149Y580958D01*
X154930Y581097D01*
X154838Y581177D01*
X154746Y581269D01*
Y581281D01*
X154723Y581292D01*
X154700Y581327D01*
X154676Y581373D01*
X154630Y581431D01*
X154596Y581500D01*
X154550Y581581D01*
X154504Y581673D01*
X154469Y581788D01*
X154423Y581915D01*
X154377Y582054D01*
X154342Y582203D01*
X154319Y582365D01*
X154296Y582538D01*
X154273Y582734D01*
Y582941D01*
Y582953D01*
Y582964D01*
Y583034D01*
Y583126D01*
X154284Y583253D01*
X154296Y583391D01*
X154307Y583552D01*
X154365Y583864D01*
Y583887D01*
X154377Y583933D01*
X154400Y584014D01*
X154434Y584106D01*
X154469Y584221D01*
X154515Y584336D01*
X154584Y584452D01*
X154653Y584555D01*
X154665Y584567D01*
X154688Y584602D01*
X154734Y584659D01*
X154792Y584717D01*
X154873Y584786D01*
X154965Y584867D01*
X155069Y584936D01*
X155184Y584994D01*
X155195Y585005D01*
X155241Y585017D01*
X155311Y585040D01*
X155414Y585074D01*
X155530Y585097D01*
X155680Y585120D01*
X155841Y585132D01*
X156014Y585144D01*
D02*
G37*
G36*
X341186Y59662D02*
X342769D01*
Y55618D01*
X341186D01*
Y59662D01*
D02*
G37*
G36*
X143647Y535843D02*
X145230D01*
Y531799D01*
X143647D01*
Y535843D01*
D02*
G37*
G36*
X333533Y58049D02*
X334268Y57903D01*
X335315Y57203D01*
X336015Y56156D01*
X336161Y55421D01*
X333533D01*
Y58049D01*
D02*
G37*
G36*
X332533D02*
Y55421D01*
X329905D01*
X330051Y56156D01*
X330751Y57203D01*
X331798Y57903D01*
X332533Y58049D01*
D02*
G37*
G36*
X134826Y530602D02*
X137454D01*
Y527975D01*
X136719Y528121D01*
X135672Y528820D01*
X134973Y529867D01*
X134826Y530602D01*
D02*
G37*
G36*
X138454D02*
X141082D01*
X140936Y529867D01*
X140236Y528820D01*
X139189Y528121D01*
X138454Y527975D01*
Y530602D01*
D02*
G37*
G36*
X137454Y534230D02*
Y531602D01*
X134826D01*
X134973Y532338D01*
X135672Y533385D01*
X136719Y534084D01*
X137454Y534230D01*
D02*
G37*
G36*
X138454D02*
X139189Y534084D01*
X140236Y533385D01*
X140936Y532338D01*
X141082Y531602D01*
X138454D01*
Y534230D01*
D02*
G37*
G36*
X329905Y54421D02*
X332533D01*
Y51793D01*
X331798Y51940D01*
X330751Y52639D01*
X330051Y53686D01*
X329905Y54421D01*
D02*
G37*
G36*
X110666Y595606D02*
X110713D01*
X110782Y595594D01*
X110851D01*
X111024Y595548D01*
X111116Y595525D01*
X111197Y595479D01*
X111208D01*
X111231Y595456D01*
X111277Y595433D01*
X111324Y595386D01*
X111439Y595283D01*
X111566Y595133D01*
Y595121D01*
X111589Y595098D01*
X111612Y595052D01*
X111646Y594994D01*
X111681Y594925D01*
X111716Y594833D01*
X111773Y594637D01*
Y594626D01*
X111785Y594591D01*
X111796Y594533D01*
Y594452D01*
X111808Y594360D01*
X111819Y594256D01*
X111831Y594026D01*
Y594014D01*
Y593991D01*
Y593957D01*
Y593899D01*
X111819Y593761D01*
X111796Y593588D01*
X111750Y593392D01*
X111704Y593196D01*
X111623Y593011D01*
X111520Y592850D01*
X111508Y592838D01*
X111462Y592792D01*
X111393Y592723D01*
X111301Y592654D01*
X111174Y592585D01*
X111024Y592516D01*
X110862Y592469D01*
X110666Y592458D01*
X110620D01*
X110563Y592469D01*
X110494D01*
X110320Y592504D01*
X110148Y592573D01*
X110136D01*
X110113Y592596D01*
X110067Y592619D01*
X110009Y592654D01*
X109894Y592758D01*
X109779Y592907D01*
X109767Y592919D01*
X109756Y592942D01*
X109732Y592988D01*
X109698Y593057D01*
X109663Y593127D01*
X109629Y593219D01*
X109571Y593415D01*
Y593426D01*
X109560Y593461D01*
X109548Y593519D01*
X109537Y593599D01*
X109525Y593691D01*
X109513Y593795D01*
X109502Y594037D01*
Y594049D01*
Y594072D01*
Y594118D01*
Y594164D01*
X109513Y594303D01*
X109537Y594476D01*
X109571Y594672D01*
X109629Y594868D01*
X109698Y595052D01*
X109802Y595214D01*
X109813Y595225D01*
X109859Y595271D01*
X109929Y595340D01*
X110021Y595409D01*
X110136Y595479D01*
X110286Y595548D01*
X110459Y595594D01*
X110666Y595606D01*
D02*
G37*
G36*
X143884Y595744D02*
X143965D01*
X144046Y595732D01*
X144149Y595709D01*
X144265Y595663D01*
X144392Y595617D01*
X144518Y595536D01*
X144634Y595433D01*
X144645Y595421D01*
X144680Y595375D01*
X144726Y595306D01*
X144784Y595214D01*
X144841Y595098D01*
X144899Y594948D01*
X144945Y594787D01*
X144980Y594591D01*
X142893D01*
Y594602D01*
Y594637D01*
Y594695D01*
X142904Y594764D01*
X142927Y594925D01*
X142973Y595098D01*
Y595110D01*
X142985Y595133D01*
X143008Y595179D01*
X143031Y595225D01*
X143100Y595340D01*
X143193Y595456D01*
Y595467D01*
X143216Y595479D01*
X143273Y595536D01*
X143377Y595617D01*
X143504Y595675D01*
X143515D01*
X143538Y595686D01*
X143573Y595698D01*
X143619Y595709D01*
X143735Y595732D01*
X143884Y595744D01*
D02*
G37*
G36*
X154158Y593749D02*
X155011D01*
X155080Y593738D01*
X155253Y593726D01*
X155426Y593680D01*
X155437D01*
X155461Y593669D01*
X155495Y593657D01*
X155541Y593634D01*
X155657Y593588D01*
X155772Y593519D01*
X155795Y593496D01*
X155841Y593449D01*
X155899Y593369D01*
X155956Y593277D01*
Y593265D01*
X155968Y593253D01*
X155979Y593184D01*
X156002Y593092D01*
X156014Y592988D01*
Y592977D01*
Y592942D01*
X156002Y592884D01*
X155991Y592815D01*
X155968Y592735D01*
X155933Y592654D01*
X155887Y592585D01*
X155818Y592516D01*
X155806Y592504D01*
X155783Y592492D01*
X155737Y592469D01*
X155680Y592446D01*
X155599Y592412D01*
X155507Y592389D01*
X155403Y592377D01*
X155288Y592366D01*
X155241D01*
X155195Y592377D01*
X155126Y592389D01*
X155045Y592412D01*
X154965Y592435D01*
X154873Y592481D01*
X154769Y592538D01*
X154757Y592550D01*
X154723Y592573D01*
X154665Y592619D01*
X154584Y592677D01*
X154492Y592746D01*
X154388Y592838D01*
X154284Y592942D01*
X154158Y593069D01*
Y593749D01*
D02*
G37*
G36*
X149223Y595686D02*
X149430D01*
X149488Y595675D01*
X149557D01*
X149718Y595629D01*
X149811Y595606D01*
X149903Y595559D01*
X149915D01*
X149938Y595536D01*
X149984Y595513D01*
X150041Y595479D01*
X150168Y595375D01*
X150307Y595225D01*
X150318Y595214D01*
X150330Y595190D01*
X150364Y595144D01*
X150399Y595075D01*
X150433Y594994D01*
X150479Y594914D01*
X150526Y594810D01*
X150560Y594695D01*
Y594683D01*
X150572Y594637D01*
X150583Y594579D01*
X150595Y594487D01*
X150618Y594383D01*
X150629Y594268D01*
X150641Y594130D01*
Y593991D01*
Y593968D01*
Y593922D01*
Y593841D01*
X150629Y593749D01*
Y593634D01*
X150618Y593519D01*
X150595Y593277D01*
Y593265D01*
X150583Y593230D01*
X150572Y593173D01*
X150549Y593115D01*
X150503Y592954D01*
X150422Y592804D01*
Y592792D01*
X150399Y592769D01*
X150341Y592700D01*
X150260Y592608D01*
X150145Y592527D01*
X150134D01*
X150111Y592516D01*
X150087Y592504D01*
X150041Y592492D01*
X149926Y592458D01*
X149776Y592446D01*
X149718D01*
X149661Y592458D01*
X149580Y592481D01*
X149499Y592504D01*
X149396Y592550D01*
X149292Y592608D01*
X149188Y592688D01*
X149177Y592700D01*
X149142Y592735D01*
X149084Y592792D01*
X149015Y592861D01*
X148923Y592965D01*
X148819Y593081D01*
X148715Y593219D01*
X148600Y593369D01*
Y595559D01*
X148612D01*
X148623Y595571D01*
X148658Y595582D01*
X148704Y595594D01*
X148819Y595629D01*
X148958Y595652D01*
X148969D01*
X148992Y595663D01*
X149038D01*
X149084Y595675D01*
X149223Y595686D01*
D02*
G37*
G36*
X83340Y596954D02*
X83871D01*
Y595144D01*
X83283D01*
X83214Y595156D01*
X83040Y595167D01*
X82868Y595202D01*
X82856D01*
X82833Y595214D01*
X82787Y595225D01*
X82729Y595248D01*
X82602Y595294D01*
X82476Y595375D01*
X82464D01*
X82452Y595398D01*
X82383Y595456D01*
X82303Y595548D01*
X82222Y595663D01*
Y595675D01*
X82210Y595698D01*
X82187Y595732D01*
X82176Y595779D01*
X82141Y595905D01*
X82130Y596067D01*
Y596090D01*
Y596147D01*
X82141Y596228D01*
X82164Y596332D01*
X82210Y596436D01*
X82257Y596551D01*
X82337Y596655D01*
X82441Y596747D01*
X82452Y596759D01*
X82499Y596782D01*
X82568Y596816D01*
X82660Y596851D01*
X82787Y596885D01*
X82948Y596920D01*
X83133Y596943D01*
X83340Y596954D01*
D02*
G37*
G36*
X333533Y54421D02*
X336161D01*
X336015Y53686D01*
X335315Y52639D01*
X334268Y51940D01*
X333533Y51793D01*
Y54421D01*
D02*
G37*
G36*
X99701Y596966D02*
X100462D01*
Y594602D01*
X99678D01*
X99609Y594614D01*
X99425Y594637D01*
X99240Y594683D01*
X99229D01*
X99194Y594695D01*
X99159Y594718D01*
X99102Y594741D01*
X98963Y594822D01*
X98837Y594925D01*
X98825Y594937D01*
X98814Y594960D01*
X98779Y594994D01*
X98744Y595041D01*
X98652Y595167D01*
X98583Y595317D01*
Y595329D01*
X98571Y595363D01*
X98548Y595409D01*
X98537Y595467D01*
X98514Y595548D01*
X98502Y595629D01*
X98491Y595836D01*
Y595848D01*
Y595882D01*
Y595928D01*
X98502Y595986D01*
X98525Y596136D01*
X98583Y596297D01*
Y596309D01*
X98594Y596332D01*
X98618Y596367D01*
X98641Y596424D01*
X98721Y596539D01*
X98825Y596655D01*
X98837Y596666D01*
X98848Y596678D01*
X98894Y596712D01*
X98940Y596735D01*
X98998Y596782D01*
X99067Y596816D01*
X99240Y596885D01*
X99252D01*
X99286Y596897D01*
X99332Y596908D01*
X99413Y596932D01*
X99494Y596943D01*
X99598Y596954D01*
X99701Y596966D01*
D02*
G37*
G36*
X66426D02*
X67187D01*
Y594602D01*
X66403D01*
X66334Y594614D01*
X66149Y594637D01*
X65965Y594683D01*
X65953D01*
X65918Y594695D01*
X65884Y594718D01*
X65826Y594741D01*
X65688Y594822D01*
X65561Y594925D01*
X65549Y594937D01*
X65538Y594960D01*
X65503Y594994D01*
X65469Y595041D01*
X65377Y595167D01*
X65307Y595317D01*
Y595329D01*
X65296Y595363D01*
X65273Y595409D01*
X65261Y595467D01*
X65238Y595548D01*
X65227Y595629D01*
X65215Y595836D01*
Y595848D01*
Y595882D01*
Y595928D01*
X65227Y595986D01*
X65250Y596136D01*
X65307Y596297D01*
Y596309D01*
X65319Y596332D01*
X65342Y596367D01*
X65365Y596424D01*
X65446Y596539D01*
X65549Y596655D01*
X65561Y596666D01*
X65573Y596678D01*
X65619Y596712D01*
X65665Y596735D01*
X65723Y596782D01*
X65792Y596816D01*
X65965Y596885D01*
X65976D01*
X66011Y596897D01*
X66057Y596908D01*
X66138Y596932D01*
X66218Y596943D01*
X66322Y596954D01*
X66426Y596966D01*
D02*
G37*
%LPD*%
D10*
X317482Y62992D02*
D03*
X313742Y55118D02*
D03*
X321222D02*
D03*
X347009Y62992D02*
D03*
X343269Y55118D02*
D03*
X350749D02*
D03*
X149470Y539173D02*
D03*
X145730Y531299D02*
D03*
X153210D02*
D03*
X123879Y539173D02*
D03*
X120139Y531299D02*
D03*
X127620D02*
D03*
X180867Y319291D02*
D03*
X177127Y311417D02*
D03*
X184608D02*
D03*
X159214Y319291D02*
D03*
X155474Y311417D02*
D03*
X162954Y311417D02*
D03*
D11*
X327324Y72835D02*
D03*
Y80709D02*
D03*
X337167Y72835D02*
D03*
Y80709D02*
D03*
D12*
X312954Y45276D02*
D03*
X322009D02*
D03*
X342482D02*
D03*
X351537D02*
D03*
X395533Y192717D02*
D03*
X404588D02*
D03*
X153998Y549016D02*
D03*
X144942D02*
D03*
X119352D02*
D03*
X128407D02*
D03*
X185395Y329134D02*
D03*
X176340D02*
D03*
X154686D02*
D03*
X163742D02*
D03*
X288151Y446063D02*
D03*
X297206D02*
D03*
X297403Y452756D02*
D03*
X288348D02*
D03*
X154686Y301575D02*
D03*
X163742D02*
D03*
X176340D02*
D03*
X185395D02*
D03*
X119352Y521457D02*
D03*
X128407D02*
D03*
X144942D02*
D03*
X153998D02*
D03*
D13*
X347009Y81299D02*
D03*
Y72244D02*
D03*
X317482Y81299D02*
D03*
Y72244D02*
D03*
D14*
X376438Y215945D02*
D03*
Y232480D02*
D03*
D15*
X415809Y192717D02*
D03*
X423683D02*
D03*
X145533Y558858D02*
D03*
X153407D02*
D03*
X127816D02*
D03*
X119942D02*
D03*
X176930Y339370D02*
D03*
X184804D02*
D03*
X163151Y338976D02*
D03*
X155277D02*
D03*
D16*
X419352Y165158D02*
D03*
X396517D02*
D03*
D17*
X392934Y246358D02*
D03*
X397934D02*
D03*
X402934D02*
D03*
X407934D02*
D03*
X412934D02*
D03*
X417934D02*
D03*
X422934D02*
D03*
X392934Y209941D02*
D03*
X397934D02*
D03*
X402934D02*
D03*
X407934D02*
D03*
X412934D02*
D03*
X417934D02*
D03*
X422934D02*
D03*
D18*
X368564Y283071D02*
D03*
Y259843D02*
D03*
D19*
X356753Y216339D02*
D03*
Y232087D02*
D03*
D20*
X403997Y271457D02*
D03*
X419746D02*
D03*
D21*
X171419Y450984D02*
D03*
Y468701D02*
D03*
X203702Y450984D02*
D03*
Y468701D02*
D03*
X183624Y239173D02*
D03*
Y221457D02*
D03*
X151340Y239173D02*
D03*
Y221457D02*
D03*
D22*
X288033Y438780D02*
D03*
X283348D02*
D03*
D23*
X264123Y405728D02*
X254205D01*
X247197Y398721D01*
X244262D01*
X241487Y401496D01*
X240598D01*
X254391Y410925D02*
X245730Y402264D01*
X264627Y410925D02*
X254391D01*
X462962Y453664D02*
X334697D01*
X499470Y490172D02*
Y578346D01*
X463798Y457283D02*
X330966D01*
X497501Y490987D02*
Y576279D01*
X465443Y461713D02*
X326143D01*
X495434Y491704D02*
X465443Y461713D01*
X497501Y490987D02*
X463798Y457283D01*
X499470Y490172D02*
X462962Y453664D01*
X495434Y491704D02*
Y492224D01*
X495533Y492323D02*
X495434Y492224D01*
X466793Y465846D02*
X320828D01*
X493466Y492520D02*
X466793Y465846D01*
X493466Y492520D02*
Y572638D01*
X477393Y600423D02*
X468464D01*
X499470Y578346D02*
X477393Y600423D01*
X475159Y594882D02*
X381973D01*
X495434Y574606D02*
X475159Y594882D01*
X495434Y492421D02*
Y574606D01*
X474568Y591535D02*
X345730D01*
X493466Y572638D02*
X474568Y591535D01*
X476931Y596850D02*
X434731D01*
X497501Y576279D02*
X476931Y596850D01*
X434731D02*
X433127Y598454D01*
X381973Y594882D02*
X381747Y595108D01*
X345730Y591535D02*
X345238Y591043D01*
X495533Y492323D02*
X495434Y492421D01*
X307934Y373819D02*
X291596Y390158D01*
X248978D01*
X207310D01*
X184592Y367439D01*
X178997Y348327D02*
X176930Y346260D01*
X184592Y353921D02*
X178997Y348327D01*
X184592Y353921D02*
Y367439D01*
X170443Y294488D02*
X166399D01*
X174675Y290256D02*
X170443Y294488D01*
X186014Y290256D02*
X174675D01*
X196502Y300744D02*
X186014Y290256D01*
X196502Y300744D02*
Y340961D01*
X203785Y348245D02*
X196502Y340961D01*
X167186Y295276D02*
X166399Y294488D01*
X167186Y295276D02*
Y301477D01*
X177127Y311417D02*
X167186Y301477D01*
X141793Y310827D02*
Y450689D01*
Y294488D02*
Y310827D01*
X142383Y311417D02*
X141793Y310827D01*
X155474Y311417D02*
X142383D01*
X159608Y468504D02*
X141793Y450689D01*
X155277Y329724D02*
X154686Y329134D01*
X155277Y329724D02*
Y338976D01*
X185395Y329134D02*
X184804Y329724D01*
Y339370D01*
X180867Y324606D02*
X176340Y329134D01*
X180867Y319291D02*
Y324606D01*
X163742Y329134D02*
X159214Y324606D01*
Y319291D02*
Y324606D01*
X162954Y302362D02*
Y311417D01*
X163742Y301575D02*
X162954Y302362D01*
X184608D02*
Y311417D01*
X185395Y301575D02*
X184608Y302362D01*
X193269Y300295D02*
Y343504D01*
X315120Y283071D02*
X313151Y281102D01*
X368564Y283071D02*
X315120D01*
X311576Y271161D02*
X308417Y268002D01*
Y210640D02*
Y268002D01*
Y209853D02*
Y210640D01*
X314126Y204144D02*
X308417Y209853D01*
X314126Y184064D02*
Y204144D01*
X295434Y344291D02*
X288446Y337303D01*
Y215748D02*
Y337303D01*
X298772Y196358D02*
X297403D01*
X304785Y202371D02*
X298772Y196358D01*
X304785Y202371D02*
Y347638D01*
X291793Y360630D01*
X249372Y149409D02*
Y156693D01*
X253407Y145374D02*
X249372Y149409D01*
X294647Y141929D02*
X294057Y141339D01*
Y100591D02*
Y141339D01*
X335091Y45669D02*
X327906Y38484D01*
X290387D01*
X260100Y68771D01*
X312954Y45276D02*
X286379D01*
X262068Y69587D01*
X260100Y68771D02*
Y149114D01*
X260592Y149606D02*
X260100Y149114D01*
X336478Y45669D02*
X335091D01*
X262068Y69587D02*
Y100295D01*
X264615Y102842D02*
X262068Y100295D01*
X264615Y102842D02*
Y154437D01*
X327324Y65551D02*
X327324Y65551D01*
Y72835D01*
X163545Y339370D02*
X163151Y339764D01*
Y344587D01*
X166891Y348327D02*
X163151Y344587D01*
X178997Y348327D02*
X166891D01*
X163545Y339370D02*
X163151Y338976D01*
X176930Y339370D02*
Y346260D01*
X188446Y348327D02*
X178997D01*
X193269Y343504D02*
X188446Y348327D01*
X193269Y300295D02*
X187083Y294109D01*
X182721D01*
X142383Y294488D02*
X141793D01*
X142580Y294291D02*
X142383Y294488D01*
X142777D02*
X142580Y294291D01*
X166399Y294488D02*
X142777D01*
X176340Y301575D02*
X176143Y301378D01*
Y293799D02*
Y301378D01*
X154686Y301575D02*
X149864D01*
X145828Y305610D01*
X137068Y239173D02*
X136970Y239075D01*
X151340Y239173D02*
X137068D01*
X145336Y221457D02*
X141005Y225787D01*
X151340Y221457D02*
X145336D01*
X183624D02*
X151340D01*
X260592Y349016D02*
X253407Y356201D01*
X253702Y356299D02*
X253604Y356201D01*
X253407D01*
X260592Y149606D02*
Y349016D01*
X264615Y154437D02*
Y352177D01*
X260198Y356594D01*
X235887Y356791D02*
X235789Y356693D01*
Y186319D02*
Y356693D01*
Y186319D02*
X235493Y186024D01*
X241189Y186404D02*
Y357006D01*
Y186404D02*
X240809Y186024D01*
X251537Y7776D02*
X235789Y23524D01*
Y185728D02*
X235493Y186024D01*
X235789Y23524D02*
Y185728D01*
X367383Y7776D02*
X251537D01*
X377816Y18209D02*
X367383Y7776D01*
X368171Y18209D02*
X362167Y12205D01*
X252521D02*
X240809Y23917D01*
X362167Y12205D02*
X252521D01*
X240809Y23917D02*
Y186024D01*
X212849Y153740D02*
X212546Y154043D01*
X217179Y153740D02*
X212849D01*
X224062Y146858D02*
X217179Y153740D01*
X291793Y360630D02*
X192678D01*
X300553Y203150D02*
Y210433D01*
X362757Y135630D02*
Y185927D01*
X330760Y217924D01*
X300553Y210433D02*
X292777Y218209D01*
X295631Y244193D02*
X292777Y241339D01*
Y218209D02*
Y241339D01*
X294440Y209754D02*
X288446Y215748D01*
X313742Y55118D02*
X313249Y54626D01*
X307442D01*
X268159Y100086D02*
X265612Y97539D01*
X268159Y100086D02*
Y167134D01*
X272600Y91535D02*
Y173819D01*
X272305Y174114D01*
X337757Y81299D02*
X337167Y80709D01*
X318072D02*
X317482Y81299D01*
X350749Y46063D02*
Y55118D01*
X351537Y45276D02*
X350749Y46063D01*
X321222D02*
Y55118D01*
X322009Y45276D02*
X321222Y46063D01*
X317482Y62992D02*
Y72244D01*
X347009Y81299D02*
X337757D01*
X347009Y62992D02*
Y72244D01*
X327324Y80709D02*
X318072D01*
X159608Y449213D02*
Y468504D01*
X170238Y438583D02*
X159608Y449213D01*
X204883Y438583D02*
X170238D01*
X183624Y239173D02*
X151340D01*
X446419Y573819D02*
X396222D01*
X356852D01*
X306655D01*
X456261Y569882D02*
X406066D01*
X406065Y569881D01*
X366695D01*
X366694Y569882D01*
X316497D01*
X466104Y564961D02*
X377521D01*
X376537Y565945D01*
X475946Y561024D02*
X416891D01*
X386379D01*
X326340D01*
X446419Y531496D02*
X396222D01*
X355868D01*
X306655D01*
X456261Y535433D02*
X406064D01*
X366694D01*
X316497D01*
X466104Y539370D02*
X425749D01*
X376537D01*
X337167D01*
X476931Y544291D02*
X436576D01*
X386379D01*
X347009D01*
X415907Y548228D02*
X376537D01*
X327324D01*
X288328Y445886D02*
X288151Y446063D01*
X297206D02*
Y451969D01*
X153998Y549016D02*
X153407Y549606D01*
X145533Y558858D02*
X127816D01*
X119942Y549606D02*
Y558858D01*
Y549606D02*
X119352Y549016D01*
X128407D02*
X123879Y544488D01*
Y539173D02*
Y544488D01*
X153210Y522244D02*
Y531299D01*
X153998Y521457D02*
X153210Y522244D01*
X127620D02*
Y531299D01*
X128407Y521457D02*
X127620Y522244D01*
X211970Y473228D02*
X163545D01*
X144942Y491831D01*
Y521457D01*
X203702Y468701D02*
X203505Y468504D01*
X145533Y531102D02*
X137954D01*
X145730Y531299D02*
X145533Y531102D01*
X133230Y503150D02*
X125356D01*
X114726Y513780D01*
X120139Y531299D02*
X117285D01*
X114726Y528740D01*
Y513780D02*
Y528740D01*
X219057Y511417D02*
X214726Y515748D01*
X149470Y539173D02*
Y544488D01*
X144942Y549016D01*
X153407Y549606D02*
Y558858D01*
X214726Y515748D02*
X197718D01*
X161182Y552284D01*
Y560630D01*
X156458Y565354D01*
X148584D01*
X145533Y562303D01*
Y558858D02*
Y562303D01*
X288033Y438780D02*
Y445945D01*
X288151Y446063D02*
X288033Y445945D01*
X288348Y452756D02*
X288171D01*
X283120Y447561D02*
Y447705D01*
X288171Y452756D02*
X283120Y447705D01*
X303997Y446063D02*
X297206D01*
X304096Y445965D02*
X303997Y446063D01*
X291281Y442028D02*
X288033Y438780D01*
X307531Y442148D02*
X307411Y442028D01*
X291281D01*
X283153Y438975D02*
X237489D01*
X283348Y438780D02*
X283153Y438975D01*
X227746Y511417D02*
X219057D01*
X237489Y501675D02*
X227746Y511417D01*
X219155Y472736D02*
X215120Y468701D01*
X203702D01*
X203505Y468504D02*
X159608D01*
X231224Y472736D02*
X219155D01*
X233511Y475023D02*
X231224Y472736D01*
X206557Y453839D02*
X203702Y450984D01*
X213446Y453839D02*
X206557D01*
X185983Y239173D02*
X183624D01*
X214526Y210630D02*
X185983Y239173D01*
X204278Y244106D02*
Y260812D01*
X219057Y275591D02*
X204278Y260812D01*
X194533Y261430D02*
X183624Y250520D01*
Y239173D02*
Y250520D01*
X207738Y141240D02*
Y165846D01*
X219057Y177165D02*
X207738Y165846D01*
X311576Y271161D02*
Y277666D01*
X309608Y279635D01*
Y344390D01*
X315710Y350492D02*
X309608Y344390D01*
X329481Y221655D02*
Y235838D01*
Y221655D02*
X323969Y216143D01*
Y202470D02*
Y216143D01*
X137757Y512402D02*
X122994D01*
X119352Y516043D01*
Y521457D01*
X285986Y502362D02*
X260789Y527559D01*
Y541732D01*
X454490Y502362D02*
X373387D01*
X336379D01*
X285986D01*
X260789Y541732D02*
Y562992D01*
Y585433D01*
D24*
X362757Y94488D02*
Y135630D01*
X407836Y235433D02*
X404883Y232480D01*
X376438D01*
X396517Y165158D02*
X395533Y166142D01*
Y192717D01*
X415809D02*
X404588D01*
X423683Y169488D02*
Y192717D01*
Y169488D02*
X419352Y165158D01*
X370041Y142913D02*
X362757Y135630D01*
X397108Y142913D02*
X370041D01*
X419352Y165158D02*
X397108Y142913D01*
X396517Y165158D02*
X382738Y151378D01*
X376438D01*
X383131Y136417D02*
X376438Y129724D01*
X409116Y136417D02*
X383131D01*
X417777Y127756D02*
X409116Y136417D01*
X398092Y98327D02*
Y127756D01*
Y98327D02*
X394253Y94488D01*
X384608Y104134D01*
X372403D01*
X362757Y94488D01*
X388545Y84449D02*
X378505Y94488D01*
X399962Y84449D02*
X388545D01*
X410001Y94488D02*
X399962Y84449D01*
X417777Y102264D02*
Y127756D01*
Y102264D02*
X410001Y94488D01*
D25*
X343269Y55118D02*
X343072Y54921D01*
X333033D01*
X317383Y40846D02*
X312954Y45276D01*
X324810Y40846D02*
X317383D01*
X327369Y43406D02*
X324810Y40846D01*
X327816Y43406D02*
X327369D01*
X342482Y45276D02*
X342088Y45669D01*
X336478D01*
X343269Y57575D02*
X342489Y58355D01*
X337167Y72835D02*
X327324D01*
X392383Y283071D02*
X368564D01*
X403997Y271457D02*
X392383Y283071D01*
X403997Y271457D02*
X402934Y270394D01*
Y246358D02*
Y270394D01*
X419746Y271457D02*
X417934Y269646D01*
Y246358D02*
Y269646D01*
X368564Y259843D02*
X368466Y259744D01*
X350060D01*
X342875Y252559D01*
Y227756D02*
Y252559D01*
X346616Y224016D02*
X342875Y227756D01*
X368368Y224016D02*
X346616D01*
X376438Y215945D02*
X368368Y224016D01*
X357147Y232480D02*
X356753Y232087D01*
X376438Y232480D02*
X357147D01*
X412934Y246358D02*
X407934D01*
X417934D02*
X412934D01*
X429293Y198327D02*
X423683Y192717D01*
X429293Y198327D02*
Y216437D01*
X417934Y227795D01*
Y246358D01*
X407934Y235531D02*
Y246358D01*
Y235531D02*
X407836Y235433D01*
X374864Y198228D02*
X356753Y216339D01*
X401045Y198228D02*
X374864D01*
X376438Y208661D02*
Y215945D01*
X383525Y201575D02*
X376438Y208661D01*
X400651Y201575D02*
X383525D01*
X402934Y203858D02*
X400651Y201575D01*
X402934Y203858D02*
Y209941D01*
X412934Y200866D02*
Y209941D01*
X401045Y198228D02*
X395533Y192717D01*
X410297Y198228D02*
X401045D01*
X412934Y200866D02*
X410297Y198228D01*
X219057Y177165D02*
X217789Y178433D01*
X297403Y451969D02*
X297206D01*
X297403D02*
Y452756D01*
X173689Y468701D02*
X171419D01*
X203702Y450984D02*
X171419D01*
X237489Y438975D02*
X216589D01*
X237489D02*
Y501675D01*
D26*
X398092Y127756D02*
D03*
X417777D02*
D03*
X10395Y9843D02*
D03*
X502521D02*
D03*
Y600394D02*
D03*
X10395D02*
D03*
X44017Y584646D02*
D03*
X167482Y281653D02*
D03*
X157482Y271654D02*
D03*
Y281653D02*
D03*
X147482Y271654D02*
D03*
Y281653D02*
D03*
X211970Y496614D02*
D03*
X201970Y486614D02*
D03*
Y496614D02*
D03*
X191970Y486614D02*
D03*
Y496614D02*
D03*
X213702Y199213D02*
D03*
X215671Y421654D02*
D03*
D27*
X376438Y151378D02*
D03*
Y129724D02*
D03*
X466497Y522362D02*
D03*
X456497D02*
D03*
X446497D02*
D03*
X436497D02*
D03*
X426497D02*
D03*
X416497D02*
D03*
X406497D02*
D03*
X396497D02*
D03*
X386497D02*
D03*
X376497D02*
D03*
X366497D02*
D03*
X356497D02*
D03*
X346497D02*
D03*
X336497D02*
D03*
X326497D02*
D03*
X316497D02*
D03*
X306497D02*
D03*
Y582362D02*
D03*
X316497D02*
D03*
X326497D02*
D03*
X336497D02*
D03*
X346497D02*
D03*
X356497D02*
D03*
X366497D02*
D03*
X376497D02*
D03*
X386497D02*
D03*
X396497D02*
D03*
X406497D02*
D03*
X416497D02*
D03*
X426497D02*
D03*
X436497D02*
D03*
X446497D02*
D03*
X456497D02*
D03*
X466497D02*
D03*
X476497D02*
D03*
D28*
X34017Y584646D02*
D03*
X167482Y271654D02*
D03*
X211970Y486614D02*
D03*
X203702Y199213D02*
D03*
X205671Y421654D02*
D03*
D29*
X398190Y31496D02*
D03*
D30*
X388190D02*
D03*
X378190D02*
D03*
X368190D02*
D03*
X358190D02*
D03*
X348190D02*
D03*
X338190D02*
D03*
X328190D02*
D03*
X293860Y374016D02*
D03*
X282049D02*
D03*
X293860Y275591D02*
D03*
X282049D02*
D03*
X293860Y177165D02*
D03*
X282049D02*
D03*
X293860Y59055D02*
D03*
X282049D02*
D03*
X219057Y374016D02*
D03*
X230868D02*
D03*
X219057Y275591D02*
D03*
X230868D02*
D03*
X219057Y177165D02*
D03*
X230868D02*
D03*
X219057Y59055D02*
D03*
X230868D02*
D03*
D31*
X362757Y94488D02*
D03*
Y59055D02*
D03*
X394253Y94488D02*
D03*
Y59055D02*
D03*
X378505D02*
D03*
Y94488D02*
D03*
X410001Y59055D02*
D03*
Y94488D02*
D03*
D32*
X476497Y522362D02*
D03*
D33*
X472994Y374016D02*
D03*
Y275591D02*
D03*
Y177165D02*
D03*
Y59055D02*
D03*
X39923Y374016D02*
D03*
Y275591D02*
D03*
Y177165D02*
D03*
Y59055D02*
D03*
X217088Y551181D02*
D03*
D34*
X264123Y405728D02*
D03*
X240598Y401496D02*
D03*
X245730Y402264D02*
D03*
X264627Y410925D02*
D03*
X334697Y453664D02*
D03*
X468464Y600423D02*
D03*
X433127Y598454D02*
D03*
X381747Y595108D02*
D03*
X345238Y591043D02*
D03*
X330966Y457283D02*
D03*
X326143Y461713D02*
D03*
X320828Y465846D02*
D03*
X307934Y373819D02*
D03*
X248978Y390158D02*
D03*
X184592Y367439D02*
D03*
X203785Y348245D02*
D03*
X192958Y308184D02*
D03*
X313151Y281102D02*
D03*
X311576Y271161D02*
D03*
X308417Y210640D02*
D03*
X295434Y344291D02*
D03*
X314126Y184064D02*
D03*
X253407Y145374D02*
D03*
X294647Y141929D02*
D03*
X294057Y100591D02*
D03*
X336478Y45669D02*
D03*
X327324Y65551D02*
D03*
X249372Y156693D02*
D03*
X182721Y294109D02*
D03*
X141793Y294488D02*
D03*
X166399D02*
D03*
X176143Y293799D02*
D03*
X145828Y305610D02*
D03*
X136970Y239075D02*
D03*
X141005Y225787D02*
D03*
X253702Y356299D02*
D03*
X260198Y356594D02*
D03*
X235887Y356791D02*
D03*
X241189Y357006D02*
D03*
X377816Y18209D02*
D03*
X368171D02*
D03*
X212546Y154043D02*
D03*
X224062Y146858D02*
D03*
X297403Y196358D02*
D03*
X192678Y360630D02*
D03*
X260592Y149606D02*
D03*
X264615Y154437D02*
D03*
X235493Y186024D02*
D03*
X240809D02*
D03*
X300553Y203150D02*
D03*
X330760Y217924D02*
D03*
X295631Y244193D02*
D03*
X294440Y209754D02*
D03*
X333033Y54921D02*
D03*
X307442Y54626D02*
D03*
X265612Y97539D02*
D03*
X268159Y167134D02*
D03*
X272600Y91535D02*
D03*
X272305Y174114D02*
D03*
X327816Y43406D02*
D03*
X446419Y573819D02*
D03*
X396222D02*
D03*
X356852D02*
D03*
X306655D02*
D03*
X456261Y569882D02*
D03*
X406065Y569881D02*
D03*
X366694Y569882D02*
D03*
X316497D02*
D03*
X466104Y564961D02*
D03*
X376537Y565945D02*
D03*
X475946Y561024D02*
D03*
X416891D02*
D03*
X386379D02*
D03*
X326340D02*
D03*
X446419Y531496D02*
D03*
X396222D02*
D03*
X355868D02*
D03*
X306655D02*
D03*
X456261Y535433D02*
D03*
X406064D02*
D03*
X366694D02*
D03*
X316497D02*
D03*
X466104Y539370D02*
D03*
X425749D02*
D03*
X376537D02*
D03*
X337167D02*
D03*
X476931Y544291D02*
D03*
X436576D02*
D03*
X386379D02*
D03*
X347009D02*
D03*
X415907Y548228D02*
D03*
X327324D02*
D03*
X376537D02*
D03*
X454490Y502362D02*
D03*
X373387D02*
D03*
X336379D02*
D03*
X285986D02*
D03*
X260789Y541732D02*
D03*
Y562992D02*
D03*
Y585433D02*
D03*
X211970Y473228D02*
D03*
X159608Y468504D02*
D03*
X137954Y531102D02*
D03*
X133230Y503150D02*
D03*
X204883Y438583D02*
D03*
X283120Y447561D02*
D03*
X304096Y445965D02*
D03*
X307531Y442148D02*
D03*
X237489Y501675D02*
D03*
X216589Y438975D02*
D03*
X219057Y511417D02*
D03*
X219155Y472736D02*
D03*
X233511Y475023D02*
D03*
X213446Y453839D02*
D03*
X137757Y512402D02*
D03*
X207310Y390158D02*
D03*
X214526Y210630D02*
D03*
X204278Y244106D02*
D03*
X194533Y261430D02*
D03*
X207738Y141240D02*
D03*
X315710Y350492D02*
D03*
X329481Y235838D02*
D03*
X323969Y202470D02*
D03*
M02*
