G04 Layer_Physical_Order=1*
G04 Layer_Color=255*
%FSLAX25Y25*%
%MOIN*%
G70*
G01*
G75*
%ADD10R,0.02165X0.07087*%
%ADD11R,0.06102X0.05315*%
%ADD12R,0.04134X0.05315*%
%ADD13R,0.05315X0.04134*%
%ADD14R,0.09842X0.09842*%
%ADD15R,0.05315X0.06102*%
%ADD16R,0.11417X0.12795*%
%ADD17O,0.02756X0.10236*%
%ADD18R,0.29134X0.15354*%
%ADD19R,0.03347X0.08661*%
%ADD20R,0.08661X0.03347*%
%ADD21O,0.08465X0.03937*%
%ADD22R,0.03228X0.02047*%
%ADD23C,0.01181*%
%ADD24C,0.01968*%
%ADD25C,0.03150*%
%ADD26C,0.07874*%
%ADD27C,0.06299*%
%ADD28R,0.07874X0.07874*%
%ADD29R,0.07087X0.07087*%
%ADD30C,0.07087*%
%ADD31C,0.09842*%
%ADD32R,0.06299X0.06299*%
%ADD33C,0.55118*%
%ADD34C,0.04331*%
G36*
X511811Y423228D02*
X432346D01*
Y0D01*
X79261D01*
X78428Y837D01*
X80018Y423228D01*
X-99D01*
Y610236D01*
X511811D01*
Y423228D01*
D02*
G37*
%LPC*%
G36*
X141847Y238402D02*
X136425D01*
Y232980D01*
X141847D01*
Y238402D01*
D02*
G37*
G36*
X135425D02*
X130004D01*
Y232980D01*
X135425D01*
Y238402D01*
D02*
G37*
G36*
X374894Y238575D02*
X372266D01*
X372412Y237840D01*
X373112Y236793D01*
X374159Y236093D01*
X374894Y235947D01*
Y238575D01*
D02*
G37*
G36*
X328240Y238673D02*
X323549D01*
X323680Y238015D01*
X324336Y237033D01*
X325318Y236377D01*
X326476Y236147D01*
X328240D01*
Y238673D01*
D02*
G37*
G36*
X378522Y238575D02*
X375894D01*
Y235947D01*
X376629Y236093D01*
X377676Y236793D01*
X378375Y237840D01*
X378522Y238575D01*
D02*
G37*
G36*
X158283Y237417D02*
X156110D01*
Y232587D01*
X158283D01*
Y237417D01*
D02*
G37*
G36*
X181103Y217424D02*
X178475D01*
X178622Y216689D01*
X179321Y215642D01*
X180368Y214942D01*
X181103Y214796D01*
Y217424D01*
D02*
G37*
G36*
X298337Y213758D02*
Y211130D01*
X300965D01*
X300819Y211865D01*
X300119Y212912D01*
X299072Y213612D01*
X298337Y213758D01*
D02*
G37*
G36*
X135425Y231980D02*
X130004D01*
Y226559D01*
X135425D01*
Y231980D01*
D02*
G37*
G36*
X155110Y237417D02*
X152937D01*
Y232587D01*
X155110D01*
Y237417D01*
D02*
G37*
G36*
X371358Y232009D02*
X368977Y231536D01*
X366959Y230187D01*
X365610Y228168D01*
X365552Y227879D01*
X364570Y227223D01*
X363287Y227478D01*
X358760D01*
X356456Y227020D01*
X355039Y226073D01*
X334725D01*
X333308Y227020D01*
X331004Y227478D01*
X326476D01*
X324172Y227020D01*
X322219Y225714D01*
X320913Y223761D01*
X320455Y221457D01*
X320913Y219152D01*
X322219Y217199D01*
X324172Y215894D01*
X326476Y215436D01*
X331004D01*
X333308Y215894D01*
X334725Y216840D01*
X355039D01*
X356456Y215894D01*
X358760Y215436D01*
X363287D01*
X365592Y215894D01*
X367008Y216840D01*
X367027D01*
X368794Y217192D01*
X370292Y218193D01*
X371741Y219642D01*
X373739Y220039D01*
X375758Y221388D01*
X377107Y223406D01*
X377580Y225787D01*
X377107Y228168D01*
X375758Y230187D01*
X373739Y231536D01*
X371358Y232009D01*
D02*
G37*
G36*
X333931Y238673D02*
X329240D01*
Y236147D01*
X331004D01*
X332162Y236377D01*
X333144Y237033D01*
X333800Y238015D01*
X333931Y238673D01*
D02*
G37*
G36*
X363287Y242200D02*
X361524D01*
Y239673D01*
X366215D01*
X366084Y240332D01*
X365428Y241313D01*
X364446Y241969D01*
X363287Y242200D01*
D02*
G37*
G36*
X360524D02*
X358760D01*
X357602Y241969D01*
X356620Y241313D01*
X355964Y240332D01*
X355833Y239673D01*
X360524D01*
Y242200D01*
D02*
G37*
G36*
X89429Y255518D02*
X87355Y255105D01*
X85597Y253930D01*
X84423Y252172D01*
X84010Y250098D01*
Y242618D01*
X84423Y240544D01*
X85597Y238786D01*
X87355Y237612D01*
X89429Y237199D01*
X91503Y237612D01*
X93261Y238786D01*
X94228Y240234D01*
X94429Y240194D01*
X95357Y240378D01*
X96144Y240904D01*
X96339Y241196D01*
X97520D01*
X97715Y240904D01*
X98501Y240378D01*
X98929Y240293D01*
Y246358D01*
Y252424D01*
X98501Y252339D01*
X97715Y251813D01*
X97520Y251521D01*
X96339D01*
X96144Y251813D01*
X95357Y252339D01*
X94429Y252523D01*
X94228Y252483D01*
X93261Y253930D01*
X91503Y255105D01*
X89429Y255518D01*
D02*
G37*
G36*
X320958Y260930D02*
X318331D01*
Y258302D01*
X319065Y258448D01*
X320113Y259148D01*
X320812Y260195D01*
X320958Y260930D01*
D02*
G37*
G36*
X317331D02*
X314703D01*
X314849Y260195D01*
X315548Y259148D01*
X316595Y258448D01*
X317331Y258302D01*
Y260930D01*
D02*
G37*
G36*
X331004Y242200D02*
X329240D01*
Y239673D01*
X333931D01*
X333800Y240332D01*
X333144Y241313D01*
X332162Y241969D01*
X331004Y242200D01*
D02*
G37*
G36*
X366215Y238673D02*
X361524D01*
Y236147D01*
X363287D01*
X364446Y236377D01*
X365428Y237033D01*
X366084Y238015D01*
X366215Y238673D01*
D02*
G37*
G36*
X360524D02*
X355833D01*
X355964Y238015D01*
X356620Y237033D01*
X357602Y236377D01*
X358760Y236147D01*
X360524D01*
Y238673D01*
D02*
G37*
G36*
X374894Y242203D02*
X374159Y242056D01*
X373112Y241357D01*
X372412Y240310D01*
X372266Y239575D01*
X374894D01*
Y242203D01*
D02*
G37*
G36*
X328240Y242200D02*
X326476D01*
X325318Y241969D01*
X324336Y241313D01*
X323680Y240332D01*
X323549Y239673D01*
X328240D01*
Y242200D01*
D02*
G37*
G36*
X375894Y242203D02*
Y239575D01*
X378522D01*
X378375Y240310D01*
X377676Y241357D01*
X376629Y242056D01*
X375894Y242203D01*
D02*
G37*
G36*
X297337Y213758D02*
X296602Y213612D01*
X295555Y212912D01*
X294856Y211865D01*
X294709Y211130D01*
X297337D01*
Y213758D01*
D02*
G37*
G36*
X287802Y146358D02*
X285174D01*
X285320Y145623D01*
X286019Y144576D01*
X287066Y143876D01*
X287802Y143730D01*
Y146358D01*
D02*
G37*
G36*
X129232Y142037D02*
X103248D01*
X101097Y141609D01*
X99274Y140391D01*
X94654Y135771D01*
X94587Y135784D01*
X91514Y135173D01*
X88910Y133433D01*
X87169Y130828D01*
X86558Y127756D01*
X87169Y124684D01*
X88910Y122079D01*
X88967Y122041D01*
Y102264D01*
X89395Y100113D01*
X90613Y98290D01*
X93542Y95360D01*
X93427Y94488D01*
X93732Y92176D01*
X94625Y90021D01*
X96044Y88170D01*
X97895Y86751D01*
X100050Y85858D01*
X102362Y85553D01*
X103235Y85668D01*
X108428Y80475D01*
X110251Y79257D01*
X112402Y78829D01*
X123819D01*
X125969Y79257D01*
X127793Y80475D01*
X132986Y85668D01*
X133858Y85553D01*
X136171Y85858D01*
X138326Y86751D01*
X140176Y88170D01*
X141596Y90021D01*
X142489Y92176D01*
X142629Y93242D01*
X143809Y93281D01*
X144029Y92178D01*
X145337Y90219D01*
X147296Y88911D01*
X149106Y88550D01*
Y94488D01*
Y100426D01*
X147296Y100066D01*
X145337Y98757D01*
X144029Y96799D01*
X143809Y95696D01*
X142629Y95734D01*
X142489Y96801D01*
X141596Y98956D01*
X140176Y100806D01*
X138326Y102226D01*
X136171Y103119D01*
X133858Y103423D01*
X131546Y103119D01*
X129391Y102226D01*
X127540Y100806D01*
X126120Y98956D01*
X125228Y96801D01*
X125088Y95735D01*
X123907Y95696D01*
X123688Y96799D01*
X122379Y98757D01*
X120421Y100066D01*
X118610Y100426D01*
Y94488D01*
X117610D01*
Y100426D01*
X115800Y100066D01*
X113841Y98757D01*
X112532Y96799D01*
X112313Y95696D01*
X111133Y95735D01*
X110993Y96801D01*
X110100Y98956D01*
X108680Y100806D01*
X106830Y102226D01*
X104675Y103119D01*
X102362Y103423D01*
X101490Y103308D01*
X100206Y104592D01*
Y122041D01*
X100264Y122079D01*
X102004Y124684D01*
X102615Y127756D01*
X102602Y127823D01*
X105576Y130798D01*
X109114D01*
X109670Y129756D01*
X109621Y129682D01*
X109337Y128256D01*
X119206D01*
X118922Y129682D01*
X118873Y129756D01*
X119430Y130798D01*
X126904D01*
X128879Y128823D01*
X129250Y126959D01*
X130816Y124615D01*
X133160Y123049D01*
X135925Y122499D01*
X138690Y123049D01*
X141034Y124615D01*
X142601Y126959D01*
X143151Y129724D01*
X142601Y132489D01*
X141034Y134834D01*
X138690Y136400D01*
X136827Y136770D01*
X133206Y140391D01*
X131383Y141609D01*
X129232Y142037D01*
D02*
G37*
G36*
X291429Y146358D02*
X288802D01*
Y143730D01*
X289536Y143876D01*
X290584Y144576D01*
X291283Y145623D01*
X291429Y146358D01*
D02*
G37*
G36*
X288802Y149986D02*
Y147358D01*
X291429D01*
X291283Y148093D01*
X290584Y149140D01*
X289536Y149839D01*
X288802Y149986D01*
D02*
G37*
G36*
X287802D02*
X287066Y149839D01*
X286019Y149140D01*
X285320Y148093D01*
X285174Y147358D01*
X287802D01*
Y149986D01*
D02*
G37*
G36*
X119206Y127256D02*
X114772D01*
Y122822D01*
X116198Y123105D01*
X117831Y124197D01*
X118922Y125830D01*
X119206Y127256D01*
D02*
G37*
G36*
X155544Y93988D02*
X150106D01*
Y88550D01*
X151917Y88911D01*
X153875Y90219D01*
X155184Y92178D01*
X155544Y93988D01*
D02*
G37*
G36*
X205421Y57754D02*
Y55126D01*
X208049D01*
X207903Y55861D01*
X207203Y56908D01*
X206156Y57608D01*
X205421Y57754D01*
D02*
G37*
G36*
X217717Y148151D02*
X215335Y147677D01*
X213317Y146329D01*
X211968Y144310D01*
X211495Y141929D01*
X211968Y139548D01*
X213317Y137530D01*
X213691Y137280D01*
Y104666D01*
X212559Y102972D01*
X212085Y100591D01*
X212559Y98210D01*
X213908Y96191D01*
X215926Y94842D01*
X218307Y94369D01*
X220688Y94842D01*
X222707Y96191D01*
X224055Y98210D01*
X224529Y100591D01*
X224055Y102972D01*
X222923Y104666D01*
Y138738D01*
X223465Y139548D01*
X223938Y141929D01*
X223465Y144310D01*
X222116Y146329D01*
X220098Y147677D01*
X217717Y148151D01*
D02*
G37*
G36*
X113772Y127256D02*
X109337D01*
X109621Y125830D01*
X110712Y124197D01*
X112345Y123105D01*
X113772Y122822D01*
Y127256D01*
D02*
G37*
G36*
X150106Y100426D02*
Y94988D01*
X155544D01*
X155184Y96799D01*
X153875Y98757D01*
X151917Y100066D01*
X150106Y100426D01*
D02*
G37*
G36*
X92512Y164658D02*
X86303D01*
Y157760D01*
X92512D01*
Y164658D01*
D02*
G37*
G36*
X88181Y192217D02*
X85023D01*
Y188665D01*
X88181D01*
Y192217D01*
D02*
G37*
G36*
X198738Y187192D02*
Y184564D01*
X201366D01*
X201220Y185299D01*
X200520Y186346D01*
X199473Y187046D01*
X198738Y187192D01*
D02*
G37*
G36*
X300965Y210130D02*
X294709D01*
X294856Y209395D01*
X295555Y208348D01*
X296261Y207876D01*
X296031Y206718D01*
X295589Y206630D01*
X292985Y204889D01*
X291244Y202285D01*
X290633Y199213D01*
X291244Y196140D01*
X292985Y193536D01*
X295589Y191796D01*
X298661Y191184D01*
X300524Y191555D01*
X300787Y191339D01*
Y191339D01*
X316535D01*
Y207087D01*
X300787D01*
Y207087D01*
X300768Y207071D01*
X300787Y207087D01*
X300022Y206970D01*
X299792Y208129D01*
X300119Y208348D01*
X300819Y209395D01*
X300965Y210130D01*
D02*
G37*
G36*
X182883Y242060D02*
X180502Y241587D01*
X178483Y240238D01*
X177135Y238219D01*
X176661Y235838D01*
X177135Y233457D01*
X178267Y231763D01*
Y226074D01*
X178618Y224307D01*
X179619Y222810D01*
X180402Y222026D01*
X180286Y220851D01*
X179321Y220206D01*
X178622Y219159D01*
X178475Y218424D01*
X181603D01*
Y217924D01*
X182103D01*
Y214796D01*
X182838Y214942D01*
X183779Y214440D01*
Y206546D01*
X182647Y204852D01*
X182173Y202470D01*
X182647Y200090D01*
X183995Y198071D01*
X186014Y196722D01*
X188395Y196249D01*
X190776Y196722D01*
X192795Y198071D01*
X194143Y200090D01*
X194617Y202470D01*
X194143Y204852D01*
X193011Y206546D01*
Y220562D01*
X192660Y222328D01*
X191659Y223826D01*
X187499Y227986D01*
Y231763D01*
X188631Y233457D01*
X189105Y235838D01*
X188631Y238219D01*
X187283Y240238D01*
X185264Y241587D01*
X182883Y242060D01*
D02*
G37*
G36*
X88181Y196768D02*
X85023D01*
Y193217D01*
X88181D01*
Y196768D01*
D02*
G37*
G36*
X197738Y187192D02*
X197003Y187046D01*
X195956Y186346D01*
X195256Y185299D01*
X195110Y184564D01*
X197738D01*
Y187192D01*
D02*
G37*
G36*
X92512Y172555D02*
X86303D01*
Y165658D01*
X92512D01*
Y172555D01*
D02*
G37*
G36*
X99721Y164658D02*
X93512D01*
Y157760D01*
X99721D01*
Y164658D01*
D02*
G37*
G36*
Y172555D02*
X93512D01*
Y165658D01*
X99721D01*
Y172555D01*
D02*
G37*
G36*
X201366Y183564D02*
X198738D01*
Y180936D01*
X199473Y181082D01*
X200520Y181782D01*
X201220Y182829D01*
X201366Y183564D01*
D02*
G37*
G36*
X197738D02*
X195110D01*
X195256Y182829D01*
X195956Y181782D01*
X197003Y181082D01*
X197738Y180936D01*
Y183564D01*
D02*
G37*
G36*
X355884Y468004D02*
X353256D01*
Y465376D01*
X353991Y465522D01*
X355038Y466222D01*
X355738Y467269D01*
X355884Y468004D01*
D02*
G37*
G36*
X214461Y456414D02*
X211894D01*
Y453256D01*
X214461D01*
Y456414D01*
D02*
G37*
G36*
X292709Y472236D02*
X290081D01*
X290227Y471501D01*
X290927Y470454D01*
X291974Y469755D01*
X292709Y469608D01*
Y472236D01*
D02*
G37*
G36*
X320894Y501548D02*
Y497114D01*
X325328D01*
X325044Y498540D01*
X323953Y500174D01*
X322320Y501265D01*
X320894Y501548D01*
D02*
G37*
G36*
X292709Y475864D02*
X291974Y475718D01*
X290927Y475018D01*
X290227Y473971D01*
X290081Y473236D01*
X292709D01*
Y475864D01*
D02*
G37*
G36*
X298917Y460061D02*
X296536Y459587D01*
X294518Y458238D01*
X293169Y456220D01*
X292695Y453839D01*
X293169Y451458D01*
X294518Y449439D01*
X296536Y448090D01*
X298917Y447617D01*
X301237Y448078D01*
X302140Y446727D01*
X304093Y445421D01*
X306398Y444963D01*
X310925D01*
X313229Y445421D01*
X314045Y445966D01*
X335561D01*
X336377Y445421D01*
X338681Y444963D01*
X343209D01*
X345513Y445421D01*
X347466Y446727D01*
X348772Y448680D01*
X349230Y450984D01*
X348772Y453288D01*
X347466Y455242D01*
X345513Y456547D01*
X343209Y457005D01*
X338681D01*
X336377Y456547D01*
X335561Y456002D01*
X314045D01*
X313229Y456547D01*
X310925Y457005D01*
X309169D01*
X309071Y457103D01*
X307574Y458103D01*
X305807Y458455D01*
X302993D01*
X301298Y459587D01*
X298917Y460061D01*
D02*
G37*
G36*
X306980Y438083D02*
X304352D01*
X304499Y437348D01*
X305198Y436301D01*
X306245Y435601D01*
X306980Y435455D01*
Y438083D01*
D02*
G37*
G36*
X296693Y429682D02*
X293621Y429071D01*
X291016Y427330D01*
X289276Y424726D01*
X288665Y421654D01*
X289276Y418581D01*
X291016Y415977D01*
X293621Y414236D01*
X296693Y413625D01*
X298555Y413996D01*
X298819Y413780D01*
Y413780D01*
X314567D01*
Y429528D01*
X298819D01*
Y429528D01*
X298555Y429311D01*
X296693Y429682D01*
D02*
G37*
G36*
X310608Y438083D02*
X307980D01*
Y435455D01*
X308715Y435601D01*
X309762Y436301D01*
X310462Y437348D01*
X310608Y438083D01*
D02*
G37*
G36*
X307980Y441711D02*
Y439083D01*
X310608D01*
X310462Y439818D01*
X309762Y440865D01*
X308715Y441564D01*
X307980Y441711D01*
D02*
G37*
G36*
X306980D02*
X306245Y441564D01*
X305198Y440865D01*
X304499Y439818D01*
X304352Y439083D01*
X306980D01*
Y441711D01*
D02*
G37*
G36*
X467846Y584146D02*
X463412D01*
X463696Y582719D01*
X464787Y581086D01*
X466420Y579995D01*
X467846Y579711D01*
Y584146D01*
D02*
G37*
G36*
X458388Y603133D02*
X344776D01*
Y601968D01*
X344685D01*
Y574803D01*
X460433D01*
Y601968D01*
X458388D01*
Y603133D01*
D02*
G37*
G36*
X467846Y589580D02*
X466420Y589296D01*
X464787Y588205D01*
X463696Y586572D01*
X463412Y585146D01*
X467846D01*
Y589580D01*
D02*
G37*
G36*
X501969Y608422D02*
X498896Y607811D01*
X496292Y606071D01*
X494551Y603466D01*
X493940Y600394D01*
X494551Y597322D01*
X496292Y594717D01*
X498896Y592977D01*
X501969Y592366D01*
X505041Y592977D01*
X507645Y594717D01*
X509386Y597322D01*
X509997Y600394D01*
X509386Y603466D01*
X507645Y606071D01*
X505041Y607811D01*
X501969Y608422D01*
D02*
G37*
G36*
X486220Y592520D02*
X470472D01*
Y590187D01*
X469559Y589438D01*
X468846Y589580D01*
Y584646D01*
Y579711D01*
X469559Y579853D01*
X470472Y579104D01*
Y576772D01*
X486220D01*
Y592520D01*
D02*
G37*
G36*
X251575Y591655D02*
X249194Y591181D01*
X247175Y589832D01*
X245827Y587814D01*
X245353Y585433D01*
X245827Y583052D01*
X246958Y581358D01*
Y567067D01*
X245827Y565373D01*
X245353Y562992D01*
X245827Y560611D01*
X246958Y558917D01*
Y545807D01*
X245827Y544113D01*
X245353Y541732D01*
X245827Y539351D01*
X246958Y537657D01*
Y529471D01*
X225995Y508508D01*
X223997Y508111D01*
X222303Y506979D01*
X180059D01*
X178365Y508111D01*
X175984Y508584D01*
X173603Y508111D01*
X171909Y506979D01*
X143052D01*
X141357Y508111D01*
X138976Y508584D01*
X136595Y508111D01*
X134901Y506979D01*
X61949D01*
X60255Y508111D01*
X57874Y508584D01*
X55493Y508111D01*
X53474Y506762D01*
X52126Y504743D01*
X51652Y502362D01*
X52126Y499981D01*
X53474Y497963D01*
X55493Y496614D01*
X57874Y496140D01*
X60255Y496614D01*
X61949Y497746D01*
X134901D01*
X136595Y496614D01*
X138976Y496140D01*
X141357Y496614D01*
X143052Y497746D01*
X171909D01*
X173603Y496614D01*
X175984Y496140D01*
X178365Y496614D01*
X180059Y497746D01*
X222303D01*
X223997Y496614D01*
X226378Y496140D01*
X228759Y496614D01*
X230778Y497963D01*
X232126Y499981D01*
X232524Y501980D01*
X254839Y524295D01*
X254839Y524295D01*
X254839Y524295D01*
X255840Y525792D01*
X256191Y527559D01*
Y537657D01*
X257323Y539351D01*
X257797Y541732D01*
X257323Y544113D01*
X256191Y545807D01*
Y558917D01*
X257323Y560611D01*
X257797Y562992D01*
X257323Y565373D01*
X256191Y567067D01*
Y581358D01*
X257323Y583052D01*
X257797Y585433D01*
X257323Y587814D01*
X255974Y589832D01*
X253956Y591181D01*
X251575Y591655D01*
D02*
G37*
G36*
X382262Y502650D02*
X379634D01*
Y500022D01*
X380369Y500168D01*
X381416Y500868D01*
X382116Y501915D01*
X382262Y502650D01*
D02*
G37*
G36*
X378634D02*
X376006D01*
X376152Y501915D01*
X376852Y500868D01*
X377899Y500168D01*
X378634Y500022D01*
Y502650D01*
D02*
G37*
G36*
X379634Y506278D02*
Y503650D01*
X382262D01*
X382116Y504385D01*
X381416Y505432D01*
X380369Y506131D01*
X379634Y506278D01*
D02*
G37*
G36*
X9843Y608422D02*
X6770Y607811D01*
X4166Y606071D01*
X2425Y603466D01*
X1814Y600394D01*
X2425Y597322D01*
X4166Y594717D01*
X6770Y592977D01*
X6816Y592968D01*
X7159Y591837D01*
X5692Y590371D01*
X4692Y588873D01*
X4340Y587106D01*
Y488583D01*
X4692Y486816D01*
X5692Y485319D01*
X5692Y485319D01*
X5692Y485319D01*
Y485319D01*
X5692Y485319D01*
X40611Y450400D01*
X42109Y449399D01*
X43876Y449048D01*
X173591D01*
X175285Y447916D01*
X177666Y447442D01*
X180047Y447916D01*
X182066Y449264D01*
X183414Y451283D01*
X183452Y451470D01*
X183779Y451535D01*
X185797Y452884D01*
X187146Y454902D01*
X187306Y455707D01*
X188602Y455964D01*
X190620Y457313D01*
X191969Y459332D01*
X192047Y459726D01*
X193916Y460098D01*
X195935Y461447D01*
X197284Y463465D01*
X197757Y465846D01*
X197284Y468227D01*
X195935Y470246D01*
X193916Y471595D01*
X191535Y472068D01*
X189154Y471595D01*
X187460Y470463D01*
X65790D01*
X26073Y510180D01*
Y573285D01*
X30105Y577317D01*
X30757Y577253D01*
X32087Y576365D01*
Y565469D01*
X32018Y565423D01*
X30669Y563405D01*
X30196Y561024D01*
X30669Y558643D01*
X32018Y556624D01*
X32087Y556578D01*
Y549395D01*
X31033Y548691D01*
X29685Y546672D01*
X29211Y544291D01*
X29685Y541910D01*
X31033Y539892D01*
X32087Y539188D01*
Y529449D01*
X28780D01*
Y515276D01*
X42953D01*
Y515276D01*
X45168Y515276D01*
X45866Y515137D01*
X48631Y515687D01*
X50866Y517180D01*
X53101Y515687D01*
X55866Y515137D01*
X58631Y515687D01*
X60866Y517180D01*
X63101Y515687D01*
X65866Y515137D01*
X68631Y515687D01*
X70866Y517180D01*
X73101Y515687D01*
X75866Y515137D01*
X78631Y515687D01*
X80866Y517180D01*
X83101Y515687D01*
X85866Y515137D01*
X88631Y515687D01*
X90866Y517180D01*
X93101Y515687D01*
X95866Y515137D01*
X98631Y515687D01*
X100866Y517180D01*
X103101Y515687D01*
X105866Y515137D01*
X108631Y515687D01*
X110866Y517180D01*
X113101Y515687D01*
X115866Y515137D01*
X118631Y515687D01*
X120866Y517180D01*
X123101Y515687D01*
X125866Y515137D01*
X128631Y515687D01*
X130866Y517180D01*
X133101Y515687D01*
X135866Y515137D01*
X138631Y515687D01*
X140866Y517180D01*
X143101Y515687D01*
X145866Y515137D01*
X148631Y515687D01*
X150866Y517180D01*
X153101Y515687D01*
X155866Y515137D01*
X158631Y515687D01*
X160866Y517180D01*
X163101Y515687D01*
X165866Y515137D01*
X168631Y515687D01*
X170866Y517180D01*
X173101Y515687D01*
X175866Y515137D01*
X178631Y515687D01*
X180866Y517180D01*
X183101Y515687D01*
X185866Y515137D01*
X188631Y515687D01*
X190866Y517180D01*
X193101Y515687D01*
X195866Y515137D01*
X198631Y515687D01*
X200866Y517180D01*
X203101Y515687D01*
X205866Y515137D01*
X208631Y515687D01*
X210975Y517253D01*
X212542Y519597D01*
X213092Y522362D01*
X212542Y525127D01*
X210975Y527471D01*
Y527471D01*
X210975D01*
X210834Y528183D01*
X211457Y529115D01*
X211930Y531496D01*
X211457Y533877D01*
X210236Y535704D01*
Y569611D01*
X211457Y571438D01*
X211930Y573819D01*
X211457Y576200D01*
X210924Y576997D01*
X210975Y577253D01*
X210975Y577253D01*
X210975D01*
X212542Y579597D01*
X213092Y582362D01*
X212542Y585127D01*
X210975Y587471D01*
X208631Y589038D01*
X205866Y589588D01*
X203101Y589038D01*
X200866Y587544D01*
X198631Y589038D01*
X195866Y589588D01*
X193101Y589038D01*
X190866Y587544D01*
X188631Y589038D01*
X185866Y589588D01*
X183101Y589038D01*
X180866Y587544D01*
X178631Y589038D01*
X175866Y589588D01*
X173985Y589214D01*
X173150Y590049D01*
X173348Y591043D01*
X172874Y593424D01*
X171526Y595443D01*
X169507Y596792D01*
X167126Y597265D01*
X164745Y596792D01*
X162726Y595443D01*
X161819Y594085D01*
X137566D01*
X136817Y594998D01*
X136838Y595108D01*
X136365Y597489D01*
X135016Y599507D01*
X132998Y600856D01*
X130617Y601330D01*
X128236Y600856D01*
X126217Y599507D01*
X124896Y597530D01*
X86205D01*
X85456Y598443D01*
X85458Y598454D01*
X84984Y600835D01*
X83636Y602854D01*
X81617Y604203D01*
X79236Y604676D01*
X76855Y604203D01*
X74837Y602854D01*
X73910Y601467D01*
X49914D01*
X49648Y602804D01*
X48299Y604822D01*
X46281Y606171D01*
X44973Y606431D01*
X44680Y606627D01*
X42913Y606979D01*
X24213D01*
X22446Y606627D01*
X20948Y605626D01*
X18399Y603077D01*
X17269Y603420D01*
X17260Y603466D01*
X15519Y606071D01*
X12915Y607811D01*
X9843Y608422D01*
D02*
G37*
G36*
X295276Y582830D02*
X289101Y582222D01*
X283164Y580421D01*
X277693Y577496D01*
X272897Y573560D01*
X268961Y568764D01*
X266036Y563293D01*
X264235Y557355D01*
X263627Y551181D01*
X264235Y545007D01*
X266036Y539070D01*
X268961Y533598D01*
X272897Y528802D01*
X277693Y524866D01*
X283164Y521942D01*
X289101Y520141D01*
X293554Y519702D01*
X293952Y518590D01*
X292925Y517563D01*
X290926Y517166D01*
X289232Y516034D01*
X284617D01*
X282851Y515682D01*
X281353Y514682D01*
X274492Y507821D01*
X272494Y507423D01*
X270475Y506074D01*
X269127Y504056D01*
X268653Y501675D01*
X269127Y499294D01*
X269857Y498200D01*
Y443591D01*
X235183D01*
X234626Y444633D01*
X234992Y445180D01*
X235465Y447561D01*
X234992Y449942D01*
X233643Y451961D01*
X231625Y453309D01*
X230020Y453629D01*
Y459350D01*
X218012D01*
Y456414D01*
X215461D01*
Y452756D01*
X214961D01*
Y452256D01*
X211894D01*
Y449098D01*
X211894D01*
Y447916D01*
X210960Y447632D01*
X210550Y448247D01*
X209503Y448946D01*
X208268Y449192D01*
X207033Y448946D01*
X205986Y448247D01*
X205923Y448153D01*
X204833Y448370D01*
X202452Y447896D01*
X200433Y446547D01*
X199084Y444529D01*
X198611Y442148D01*
X199084Y439767D01*
X200433Y437748D01*
X202452Y436399D01*
X204833Y435926D01*
X207214Y436399D01*
X208729Y437411D01*
X218779D01*
Y433819D01*
X234567D01*
Y434359D01*
X272925D01*
X272955Y434339D01*
X274875Y433957D01*
X292300D01*
X293394Y433226D01*
X295775Y432753D01*
X298156Y433226D01*
X300174Y434575D01*
X301523Y436594D01*
X301997Y438975D01*
X301523Y441356D01*
X300174Y443374D01*
X298156Y444723D01*
X295775Y445197D01*
X293394Y444723D01*
X292300Y443993D01*
X279892D01*
Y472003D01*
X280087Y472042D01*
X281134Y472741D01*
X281834Y473788D01*
X282080Y475023D01*
X281834Y476258D01*
X281134Y477305D01*
X280087Y478005D01*
X279892Y478044D01*
Y498200D01*
X280623Y499294D01*
X281021Y501292D01*
X286529Y506801D01*
X289232D01*
X290926Y505669D01*
X293307Y505196D01*
X295688Y505669D01*
X297707Y507018D01*
X299055Y509036D01*
X299453Y511035D01*
X299550Y511132D01*
X314645D01*
X315084Y511219D01*
X316412Y511483D01*
X316412Y511483D01*
X316412D01*
X317166Y511987D01*
X317910Y512484D01*
X351271Y545845D01*
X352362Y545393D01*
Y542421D01*
X357874D01*
Y538779D01*
X354134D01*
Y528051D01*
X352362D01*
Y514862D01*
X362805D01*
Y493743D01*
X346907Y477845D01*
X322692D01*
X322576Y479020D01*
X323466Y479197D01*
X326070Y480937D01*
X327811Y483542D01*
X328422Y486614D01*
X327811Y489686D01*
X326070Y492291D01*
X324948Y493041D01*
X324718Y494199D01*
X325044Y494688D01*
X325328Y496114D01*
X320394D01*
Y496614D01*
X319894D01*
Y501548D01*
X318467Y501265D01*
X317979Y500938D01*
X316820Y501169D01*
X316070Y502291D01*
X313466Y504031D01*
X310394Y504642D01*
X307321Y504031D01*
X305394Y502743D01*
X303466Y504031D01*
X300394Y504642D01*
X297321Y504031D01*
X294717Y502291D01*
X292976Y499686D01*
X292365Y496614D01*
X292736Y494752D01*
X292520Y494488D01*
X292520D01*
Y478740D01*
X295657D01*
X295994Y477628D01*
X294646Y475609D01*
D01*
X294444Y475718D01*
D01*
X294444Y475718D01*
X294444Y475718D01*
X293709Y475864D01*
Y472736D01*
Y469608D01*
X294444Y469755D01*
X295088Y470185D01*
X295994Y468829D01*
X298013Y467480D01*
X300394Y467006D01*
X302775Y467480D01*
X302775Y467480D01*
X302775Y467480D01*
X303601Y467543D01*
D01*
D01*
X304257Y466561D01*
X305239Y465905D01*
X306398Y465674D01*
X310925D01*
X312083Y465905D01*
X313065Y466561D01*
X313721Y467543D01*
X313934Y468612D01*
X335672D01*
X335885Y467543D01*
X336541Y466561D01*
X337523Y465905D01*
X338681Y465674D01*
X343209D01*
X344367Y465905D01*
X345349Y466561D01*
X346005Y467543D01*
X346218Y468612D01*
X348819D01*
X348819Y468612D01*
X348819Y468612D01*
X349529Y468504D01*
X349529Y468504D01*
X349529Y468504D01*
X349774Y467269D01*
X350474Y466222D01*
X351521Y465522D01*
X352256Y465376D01*
Y468504D01*
X352756D01*
Y469004D01*
X355884D01*
X355738Y469739D01*
X355038Y470786D01*
X354533Y471123D01*
X354418Y472299D01*
X370685Y488566D01*
X371686Y490064D01*
X372038Y491831D01*
X372038Y491831D01*
X372038Y491831D01*
Y491831D01*
Y505760D01*
X372951Y506509D01*
X374606Y506180D01*
X376429Y506542D01*
X376881Y505451D01*
X376852Y505432D01*
X376152Y504385D01*
X376006Y503650D01*
X378634D01*
Y506278D01*
X378457Y506242D01*
X378225Y506803D01*
X378881Y507785D01*
X389370D01*
X391137Y508137D01*
X392634Y509137D01*
X392634Y509137D01*
X392634Y509137D01*
X396276Y512779D01*
X397277Y514277D01*
X397393Y514862D01*
X399016D01*
Y528051D01*
X394307D01*
Y530799D01*
X392224D01*
Y531693D01*
X393504D01*
Y531799D01*
X394307D01*
Y535843D01*
X393504D01*
Y542421D01*
X399016D01*
Y555610D01*
X399016D01*
Y565846D01*
X377953D01*
Y563475D01*
X373425D01*
Y565846D01*
X369816D01*
X367044Y568618D01*
X367044Y568618D01*
X367044Y568619D01*
X366181Y569195D01*
X365546Y569619D01*
X365546Y569619D01*
X365546Y569619D01*
X364604Y569807D01*
X363780Y569971D01*
X363780Y569971D01*
X363780Y569971D01*
X355906D01*
X354139Y569619D01*
X352641Y568619D01*
X347917Y563894D01*
X346916Y562397D01*
X346565Y560630D01*
Y554196D01*
X312733Y520364D01*
X306211D01*
X306038Y521533D01*
X307387Y521942D01*
X312859Y524866D01*
X317654Y528802D01*
X321590Y533598D01*
X324515Y539070D01*
X326316Y545007D01*
X326924Y551181D01*
X326316Y557355D01*
X324515Y563293D01*
X321590Y568764D01*
X317654Y573560D01*
X312859Y577496D01*
X307387Y580421D01*
X301450Y582222D01*
X295276Y582830D01*
D02*
G37*
G36*
X365382Y286588D02*
Y282154D01*
X369816D01*
X369532Y283580D01*
X368441Y285213D01*
X366808Y286304D01*
X365382Y286588D01*
D02*
G37*
G36*
X97949Y274130D02*
X93118D01*
Y271957D01*
X97949D01*
Y274130D01*
D02*
G37*
G36*
X247736Y417147D02*
X245355Y416674D01*
X243337Y415325D01*
X241988Y413306D01*
X241514Y410925D01*
X241988Y408544D01*
X242443Y407863D01*
X242019Y405728D01*
X242492Y403347D01*
X243841Y401329D01*
X245859Y399980D01*
X248240Y399507D01*
X250622Y399980D01*
X252316Y401112D01*
X256246D01*
X260615Y396743D01*
X260499Y395568D01*
X259311Y394774D01*
X220768D01*
X219001Y394422D01*
X217503Y393422D01*
X204047Y379965D01*
X202048Y379567D01*
X200030Y378218D01*
X198681Y376200D01*
X198207Y373819D01*
X198681Y371438D01*
X200030Y369419D01*
X202048Y368071D01*
X204429Y367597D01*
X206810Y368071D01*
X208829Y369419D01*
X210177Y371438D01*
X210193Y371517D01*
X211374D01*
X211458Y371097D01*
X213111Y368623D01*
X215585Y366969D01*
X218357Y366418D01*
X218700Y365288D01*
X204315Y350902D01*
X203314Y349404D01*
X202962Y347638D01*
Y287189D01*
X201921Y286632D01*
X201594Y286851D01*
X199213Y287324D01*
X199070Y287296D01*
X199011Y287336D01*
X197244Y287687D01*
X162303D01*
Y294685D01*
X125295D01*
Y288089D01*
X119980D01*
X118060Y287707D01*
X116432Y286619D01*
X106880Y277067D01*
X100099D01*
Y265846D01*
X104411D01*
Y252519D01*
X103501Y252339D01*
X102715Y251813D01*
X102520Y251521D01*
X101339D01*
X101144Y251813D01*
X100357Y252339D01*
X99929Y252424D01*
Y246358D01*
Y240293D01*
X100357Y240378D01*
X101144Y240904D01*
X101339Y241196D01*
X102520D01*
X102715Y240904D01*
X103501Y240378D01*
X104429Y240194D01*
X104630Y240234D01*
X105597Y238786D01*
X107355Y237612D01*
X109429Y237199D01*
X111503Y237612D01*
X111929Y237896D01*
X112355Y237612D01*
X114429Y237199D01*
X116503Y237612D01*
X116929Y237896D01*
X117355Y237612D01*
X119429Y237199D01*
X121503Y237612D01*
X123261Y238786D01*
X124436Y240544D01*
X124848Y242618D01*
Y248228D01*
X124848D01*
X125295D01*
X125683Y248228D01*
X125683Y248228D01*
Y248228D01*
X162303D01*
Y251105D01*
X163394Y251557D01*
X164471Y250481D01*
Y229834D01*
X163670Y229033D01*
X158283D01*
Y231587D01*
X152937D01*
Y229033D01*
X143996D01*
X142760Y228787D01*
X141847Y229537D01*
Y231980D01*
X136425D01*
Y226559D01*
X137900D01*
X138221Y225785D01*
X137564Y224803D01*
X127067D01*
Y207087D01*
D01*
X127067D01*
X125874Y206592D01*
X124848D01*
Y213681D01*
X124436Y215755D01*
X123261Y217513D01*
X121503Y218688D01*
X119429Y219100D01*
X117355Y218688D01*
X116929Y218403D01*
X116503Y218688D01*
X114429Y219100D01*
X112355Y218688D01*
X111929Y218403D01*
X111503Y218688D01*
X109429Y219100D01*
X107355Y218688D01*
X106929Y218403D01*
X106503Y218688D01*
X104429Y219100D01*
X102355Y218688D01*
X101929Y218403D01*
X101503Y218688D01*
X99429Y219100D01*
X97355Y218688D01*
X96929Y218403D01*
X96503Y218688D01*
X94429Y219100D01*
X92355Y218688D01*
X91929Y218403D01*
X91503Y218688D01*
X89429Y219100D01*
X87355Y218688D01*
X85597Y217513D01*
X84423Y215755D01*
X84010Y213681D01*
Y206201D01*
X84423Y204127D01*
X85597Y202369D01*
X87355Y201194D01*
X89429Y200782D01*
D01*
D01*
D01*
D01*
X89795Y200537D01*
X89960Y199705D01*
Y199705D01*
D01*
Y199705D01*
X89960D01*
D01*
Y199697D01*
X89960D01*
Y196768D01*
X89181D01*
Y192717D01*
Y188665D01*
X89960D01*
Y185728D01*
X103149D01*
Y186122D01*
X111211D01*
Y175492D01*
X106201D01*
Y154823D01*
X118234D01*
X125652Y147404D01*
X127475Y146186D01*
X129626Y145758D01*
X131580D01*
X133160Y144702D01*
X135925Y144152D01*
X138690Y144702D01*
X141034Y146269D01*
X142601Y148613D01*
X143151Y151378D01*
X142601Y154143D01*
X141034Y156487D01*
X138690Y158053D01*
X135925Y158603D01*
X133160Y158053D01*
X131804Y157147D01*
X125492Y163460D01*
Y175492D01*
X122450D01*
Y186122D01*
X122835D01*
Y193211D01*
X137500D01*
X139420Y193593D01*
X141048Y194680D01*
X154439Y208071D01*
X161221D01*
Y218998D01*
X165748D01*
X167668Y219380D01*
X169296Y220468D01*
X173036Y224208D01*
X173036Y224208D01*
X174124Y225836D01*
X174506Y227756D01*
Y252559D01*
X174124Y254479D01*
X173036Y256107D01*
X165851Y263292D01*
X164223Y264380D01*
X162303Y264762D01*
Y270622D01*
X162303Y270622D01*
D01*
D01*
X162303Y271457D01*
D01*
Y271457D01*
X162303Y271457D01*
X162303Y272292D01*
X162303Y272292D01*
X162303D01*
Y278455D01*
X193642D01*
X194813Y276703D01*
X196832Y275354D01*
X198811Y274960D01*
X199042Y273802D01*
X198505Y273444D01*
X197806Y272396D01*
X197660Y271661D01*
X200787D01*
Y271161D01*
X201287D01*
Y268034D01*
X202023Y268180D01*
X202962Y267677D01*
Y213672D01*
X202712Y213622D01*
X201665Y212922D01*
X200965Y211875D01*
X200720Y210640D01*
X200965Y209405D01*
X201665Y208358D01*
X202712Y207659D01*
X202962Y207609D01*
Y199213D01*
X203314Y197446D01*
X204315Y195948D01*
X204314Y195948D01*
X204315Y195948D01*
X207169Y193094D01*
X208666Y192093D01*
X210433Y191742D01*
X210885D01*
X212580Y190610D01*
X214961Y190136D01*
X217342Y190610D01*
X219360Y191959D01*
X220709Y193977D01*
X221182Y196358D01*
X220709Y198739D01*
X219360Y200758D01*
X217769Y201821D01*
X218033Y203150D01*
D01*
D01*
X220305Y204006D01*
X220305D01*
X222324Y205355D01*
X223672Y207373D01*
X224070Y209372D01*
X227182Y212483D01*
X228182Y213981D01*
X228534Y215748D01*
Y267387D01*
X229447Y268137D01*
X230315Y267964D01*
X233234Y268544D01*
X235708Y270198D01*
X237361Y272672D01*
X237942Y275591D01*
X237361Y278509D01*
X235708Y280984D01*
X233234Y282637D01*
X230315Y283218D01*
X229447Y283045D01*
X228534Y283794D01*
Y337303D01*
X228182Y339070D01*
X227182Y340567D01*
X223075Y344674D01*
X222677Y346672D01*
X221329Y348691D01*
X219310Y350040D01*
X218202Y350260D01*
X217860Y351390D01*
X224648Y358179D01*
X245328D01*
X246077Y357266D01*
X246020Y356977D01*
X244484Y355442D01*
X243483Y353944D01*
X243132Y352177D01*
Y180656D01*
X242219Y179906D01*
X240059Y180336D01*
X237678Y179862D01*
X237381Y179986D01*
X237361Y180084D01*
X235708Y182558D01*
X233234Y184212D01*
X230315Y184792D01*
X227396Y184212D01*
X224922Y182558D01*
X223897D01*
X221423Y184212D01*
X218504Y184792D01*
X215585Y184212D01*
X213111Y182558D01*
X211458Y180084D01*
X210877Y177165D01*
X211458Y174247D01*
X213111Y171772D01*
X215585Y170119D01*
X218504Y169538D01*
X221423Y170119D01*
X223897Y171772D01*
X224922D01*
X227396Y170119D01*
X230315Y169538D01*
X232463Y169966D01*
X233376Y169217D01*
Y74606D01*
X233635Y73303D01*
X233542Y72835D01*
X234015Y70454D01*
X235364Y68435D01*
X237383Y67086D01*
X239394Y66686D01*
X239736Y65556D01*
X237536Y63356D01*
X236361Y63472D01*
X235708Y64448D01*
X233234Y66101D01*
X230315Y66682D01*
X227396Y66101D01*
X224922Y64448D01*
X223897D01*
X221423Y66101D01*
X218504Y66682D01*
X215585Y66101D01*
X213111Y64448D01*
X211458Y61974D01*
X210877Y59055D01*
X211458Y56137D01*
X213111Y53662D01*
X215585Y52009D01*
X218504Y51428D01*
X221423Y52009D01*
X223897Y53662D01*
X224922D01*
X225899Y53010D01*
X226014Y51834D01*
X224072Y49892D01*
X205413D01*
Y51496D01*
X206156Y51644D01*
X207203Y52344D01*
X207903Y53391D01*
X208049Y54126D01*
X204921D01*
Y54626D01*
X204421D01*
Y57754D01*
X203686Y57608D01*
X202639Y56908D01*
X201940Y55861D01*
X201880Y55562D01*
X200705Y55678D01*
Y59662D01*
X199902D01*
Y66240D01*
X201477D01*
Y75295D01*
Y87303D01*
X188287D01*
Y87303D01*
X171949D01*
Y87303D01*
X158760D01*
Y75295D01*
Y66240D01*
X160335D01*
Y62599D01*
X157727D01*
X157344Y63523D01*
X155924Y65373D01*
X154074Y66793D01*
X151919Y67686D01*
X149606Y67990D01*
X147294Y67686D01*
X145139Y66793D01*
X143289Y65373D01*
X142323Y64114D01*
X141142D01*
X140176Y65373D01*
X138326Y66793D01*
X136171Y67686D01*
X133858Y67990D01*
X131546Y67686D01*
X129391Y66793D01*
X127540Y65373D01*
X126575Y64114D01*
X125394D01*
X124428Y65373D01*
X122578Y66793D01*
X120423Y67686D01*
X118110Y67990D01*
X115798Y67686D01*
X113643Y66793D01*
X111792Y65373D01*
X110827Y64114D01*
X109646D01*
X108680Y65373D01*
X106830Y66793D01*
X104675Y67686D01*
X102362Y67990D01*
X100050Y67686D01*
X97895Y66793D01*
X96044Y65373D01*
X94625Y63523D01*
X93732Y61368D01*
X93427Y59055D01*
X93732Y56743D01*
X94625Y54588D01*
X96044Y52737D01*
X97895Y51318D01*
X100050Y50425D01*
X102362Y50121D01*
X104675Y50425D01*
X106830Y51318D01*
X108680Y52737D01*
X109646Y53996D01*
X110827D01*
X111792Y52737D01*
X113643Y51318D01*
X115798Y50425D01*
X118110Y50121D01*
X120423Y50425D01*
X122578Y51318D01*
X124428Y52737D01*
X125394Y53996D01*
X126575D01*
X127540Y52737D01*
X129391Y51318D01*
X131546Y50425D01*
X133858Y50121D01*
X136171Y50425D01*
X138326Y51318D01*
X140176Y52737D01*
X141142Y53996D01*
X142323D01*
X143289Y52737D01*
X145139Y51318D01*
X147294Y50425D01*
X149606Y50121D01*
X151919Y50425D01*
X153841Y51221D01*
X154471Y50800D01*
X154823Y50341D01*
Y39656D01*
X154173Y39123D01*
X151254Y38542D01*
X149173Y37152D01*
X147092Y38542D01*
X144173Y39123D01*
X141254Y38542D01*
X139173Y37152D01*
X137092Y38542D01*
X134173Y39123D01*
X131254Y38542D01*
X129173Y37152D01*
X127092Y38542D01*
X124173Y39123D01*
X122001Y38691D01*
X121653Y38976D01*
Y38976D01*
X106693D01*
Y24016D01*
X121653D01*
Y24016D01*
X122001Y24301D01*
X124173Y23869D01*
X127092Y24450D01*
X129173Y25840D01*
X131195Y24489D01*
Y24152D01*
X131002Y23179D01*
X130148Y22608D01*
X128799Y20590D01*
X128325Y18209D01*
X128799Y15828D01*
X130148Y13809D01*
X132166Y12460D01*
X134165Y12063D01*
X141716Y4511D01*
X143214Y3511D01*
X144980Y3159D01*
X260827D01*
X262593Y3511D01*
X264091Y4511D01*
X279839Y20259D01*
X279839Y20259D01*
X279839Y20259D01*
X280840Y21757D01*
X281191Y23524D01*
Y51178D01*
X281496Y51428D01*
X284415Y52009D01*
X286889Y53662D01*
X287914D01*
X290388Y52009D01*
X293307Y51428D01*
X296226Y52009D01*
X298700Y53662D01*
X300353Y56137D01*
X300934Y59055D01*
X300353Y61974D01*
X298700Y64448D01*
X296226Y66101D01*
X293307Y66682D01*
X290388Y66101D01*
X287914Y64448D01*
X286889D01*
X284415Y66101D01*
X281496Y66682D01*
X281191Y66932D01*
Y169288D01*
X281496Y169538D01*
X284415Y170119D01*
X286889Y171772D01*
X287914D01*
X290388Y170119D01*
X293307Y169538D01*
X294223Y169721D01*
X300010Y163934D01*
Y160413D01*
X299409Y159920D01*
X298174Y159675D01*
X297127Y158975D01*
X296428Y157928D01*
X296282Y157193D01*
X299410D01*
Y156193D01*
X296282D01*
X296428Y155458D01*
X297127Y154411D01*
X298174Y153711D01*
X299409Y153466D01*
X300010Y152973D01*
Y145315D01*
X298878Y143621D01*
X298404Y141240D01*
X298878Y138859D01*
X300226Y136841D01*
X302245Y135492D01*
X304626Y135018D01*
X307007Y135492D01*
X309026Y136841D01*
X310374Y138859D01*
X310848Y141240D01*
X310374Y143621D01*
X309242Y145315D01*
Y165846D01*
X309242Y165846D01*
X308891Y167613D01*
X307890Y169111D01*
X300752Y176249D01*
X300934Y177165D01*
X300353Y180084D01*
X298700Y182558D01*
X296226Y184212D01*
X293307Y184792D01*
X290388Y184212D01*
X287914Y182558D01*
X286889D01*
X284415Y184212D01*
X282796Y184534D01*
X283092Y186024D01*
X282618Y188405D01*
X281270Y190423D01*
X281191Y190476D01*
Y267713D01*
X281496Y267964D01*
X284415Y268544D01*
X286889Y270198D01*
X287914D01*
X290388Y268544D01*
X293307Y267964D01*
X294223Y268146D01*
X303455Y258915D01*
Y232422D01*
X302323Y230728D01*
X301849Y228346D01*
X302323Y225965D01*
X303671Y223947D01*
X305690Y222598D01*
X308071Y222125D01*
X310452Y222598D01*
X312470Y223947D01*
X313819Y225965D01*
X314293Y228346D01*
X313819Y230728D01*
X312687Y232422D01*
Y260736D01*
X312702Y260812D01*
X312351Y262578D01*
X311350Y264076D01*
X300752Y274674D01*
X300934Y275591D01*
X300353Y278509D01*
X298700Y280984D01*
X296226Y282637D01*
X293307Y283218D01*
X290388Y282637D01*
X287914Y280984D01*
X286889D01*
X284415Y282637D01*
X281496Y283218D01*
X281191Y283468D01*
Y352863D01*
X282225Y354410D01*
X282698Y356791D01*
X282604Y357266D01*
X283353Y358179D01*
X313983D01*
X315285Y356230D01*
X317304Y354882D01*
X319685Y354408D01*
X322066Y354882D01*
X322114Y354914D01*
X323156Y354357D01*
Y353921D01*
X323372Y352835D01*
X322151Y352592D01*
X320653Y351591D01*
X315830Y346768D01*
X314830Y345270D01*
X314478Y343504D01*
Y311794D01*
X313657Y310565D01*
X313183Y308184D01*
X313657Y305803D01*
X314478Y304574D01*
Y300295D01*
X314830Y298529D01*
X315830Y297031D01*
X315830Y297031D01*
X315830Y297031D01*
X315830Y297031D01*
X322017Y290845D01*
D01*
X322017D01*
Y290845D01*
D01*
X322017D01*
Y290845D01*
X322017D01*
X322017Y290845D01*
Y290845D01*
X322017Y290845D01*
Y290845D01*
X323514Y289844D01*
X325281Y289493D01*
X325567D01*
X327261Y288361D01*
X329642Y287887D01*
X332023Y288361D01*
X332700Y288813D01*
X333839Y288051D01*
X336221Y287577D01*
X338339Y287999D01*
X338995Y287017D01*
X337465Y284726D01*
X336854Y281653D01*
X337224Y279791D01*
X337008Y279527D01*
X337008D01*
Y263779D01*
X352756D01*
Y263779D01*
X353019Y263996D01*
X354882Y263625D01*
X357954Y264236D01*
X359882Y265524D01*
X361809Y264236D01*
X364882Y263625D01*
X367954Y264236D01*
X370559Y265977D01*
X372299Y268581D01*
X372910Y271654D01*
X372299Y274726D01*
X370559Y277330D01*
X369436Y278080D01*
X369206Y279239D01*
X369532Y279727D01*
X369816Y281153D01*
X364882D01*
Y281653D01*
X364382D01*
Y286588D01*
X362955Y286304D01*
X362467Y285978D01*
X361309Y286208D01*
X360559Y287330D01*
X357954Y289071D01*
X354882Y289682D01*
X351810Y289071D01*
X349882Y287783D01*
X347954Y289071D01*
X344882Y289682D01*
X341810Y289071D01*
X341780Y289051D01*
X340945Y289886D01*
X341969Y291418D01*
X342182Y292488D01*
X343340Y292719D01*
X343683Y292206D01*
X344729Y291507D01*
X345465Y291360D01*
Y294488D01*
X346465D01*
Y291360D01*
X347200Y291507D01*
X348247Y292206D01*
X348946Y293253D01*
X349192Y294488D01*
X349596Y294980D01*
X363681D01*
Y297194D01*
X364267Y297310D01*
X365764Y298311D01*
X366918Y299464D01*
X368916Y299862D01*
X370935Y301211D01*
X372284Y303229D01*
X372757Y305610D01*
X372284Y307991D01*
X370935Y310010D01*
X368916Y311358D01*
X366535Y311832D01*
X364154Y311358D01*
X362136Y310010D01*
X360906Y308169D01*
X358972D01*
Y310917D01*
X356890D01*
Y311811D01*
X358169D01*
Y311917D01*
X358972D01*
Y315961D01*
X358169D01*
Y322539D01*
X363681D01*
Y335728D01*
X363681D01*
Y345965D01*
X353555D01*
X353478Y346353D01*
X352477Y347851D01*
X348737Y351591D01*
X347239Y352592D01*
X345472Y352943D01*
X335278D01*
X332388Y355833D01*
Y363364D01*
X333520Y365058D01*
X333994Y367439D01*
X333520Y369820D01*
X332172Y371839D01*
X330153Y373187D01*
X328154Y373585D01*
X311199Y390540D01*
X310802Y392538D01*
X309453Y394557D01*
X307435Y395906D01*
X305054Y396379D01*
X302673Y395906D01*
X300978Y394774D01*
X274723D01*
X274380Y395904D01*
X276165Y397096D01*
X277514Y399115D01*
X277987Y401496D01*
X277514Y403877D01*
X276165Y405896D01*
X274146Y407244D01*
X271765Y407718D01*
X269985Y407364D01*
X269015Y408012D01*
X267016Y408410D01*
X261237Y414189D01*
X259739Y415190D01*
X257972Y415542D01*
X251811D01*
X250117Y416674D01*
X247736Y417147D01*
D02*
G37*
G36*
X373699Y293988D02*
X371071D01*
Y291360D01*
X371806Y291507D01*
X372853Y292206D01*
X373553Y293253D01*
X373699Y293988D01*
D02*
G37*
G36*
X370071D02*
X367443D01*
X367589Y293253D01*
X368289Y292206D01*
X369336Y291507D01*
X370071Y291360D01*
Y293988D01*
D02*
G37*
G36*
X92118Y274130D02*
X87287D01*
Y271957D01*
X92118D01*
Y274130D01*
D02*
G37*
G36*
X318331Y264558D02*
Y261930D01*
X320958D01*
X320812Y262665D01*
X320113Y263712D01*
X319065Y264412D01*
X318331Y264558D01*
D02*
G37*
G36*
X317331D02*
X316595Y264412D01*
X315548Y263712D01*
X314849Y262665D01*
X314703Y261930D01*
X317331D01*
Y264558D01*
D02*
G37*
G36*
X200287Y270661D02*
X197660D01*
X197806Y269926D01*
X198505Y268879D01*
X199552Y268180D01*
X200287Y268034D01*
Y270661D01*
D02*
G37*
G36*
X97949Y270957D02*
X93118D01*
Y268783D01*
X97949D01*
Y270957D01*
D02*
G37*
G36*
X92118D02*
X87287D01*
Y268783D01*
X92118D01*
Y270957D01*
D02*
G37*
G36*
X196153Y353620D02*
X195418Y353474D01*
X194371Y352774D01*
X193672Y351727D01*
X193526Y350992D01*
X196153D01*
Y353620D01*
D02*
G37*
G36*
Y349992D02*
X193526D01*
X193672Y349257D01*
X194371Y348210D01*
X195418Y347511D01*
X196153Y347364D01*
Y349992D01*
D02*
G37*
G36*
X199781D02*
X197153D01*
Y347364D01*
X197889Y347511D01*
X198936Y348210D01*
X199635Y349257D01*
X199781Y349992D01*
D02*
G37*
G36*
X309078Y351373D02*
Y348745D01*
X311706D01*
X311560Y349480D01*
X310860Y350527D01*
X309813Y351227D01*
X309078Y351373D01*
D02*
G37*
G36*
X308078D02*
X307343Y351227D01*
X306296Y350527D01*
X305596Y349480D01*
X305450Y348745D01*
X308078D01*
Y351373D01*
D02*
G37*
G36*
X197153Y353620D02*
Y350992D01*
X199781D01*
X199635Y351727D01*
X198936Y352774D01*
X197889Y353474D01*
X197153Y353620D01*
D02*
G37*
G36*
X371071Y297616D02*
Y294988D01*
X373699D01*
X373553Y295723D01*
X372853Y296770D01*
X371806Y297470D01*
X371071Y297616D01*
D02*
G37*
G36*
X370071D02*
X369336Y297470D01*
X368289Y296770D01*
X367589Y295723D01*
X367443Y294988D01*
X370071D01*
Y297616D01*
D02*
G37*
G36*
X308078Y347745D02*
X305450D01*
X305596Y347010D01*
X306296Y345963D01*
X307343Y345264D01*
X308078Y345117D01*
Y347745D01*
D02*
G37*
G36*
X311706D02*
X309078D01*
Y345117D01*
X309813Y345264D01*
X310860Y345963D01*
X311560Y347010D01*
X311706Y347745D01*
D02*
G37*
%LPD*%
G36*
X395575Y592573D02*
X398296D01*
Y591535D01*
X394341D01*
Y597969D01*
X395575D01*
Y592573D01*
D02*
G37*
G36*
X412778Y597958D02*
X412927D01*
X413100Y597935D01*
X413285Y597912D01*
X413469Y597877D01*
X413654Y597831D01*
X413677Y597819D01*
X413734Y597808D01*
X413827Y597773D01*
X413942Y597727D01*
X414069Y597669D01*
X414196Y597600D01*
X414334Y597519D01*
X414461Y597427D01*
X414472Y597416D01*
X414518Y597381D01*
X414576Y597324D01*
X414645Y597254D01*
X414738Y597162D01*
X414818Y597047D01*
X414899Y596920D01*
X414968Y596782D01*
X414980Y596770D01*
X414991Y596712D01*
X415026Y596632D01*
X415060Y596528D01*
X415084Y596401D01*
X415118Y596251D01*
X415130Y596090D01*
X415141Y595917D01*
Y595894D01*
Y595836D01*
X415130Y595732D01*
X415118Y595606D01*
X415095Y595467D01*
X415072Y595306D01*
X415026Y595144D01*
X414968Y594983D01*
X414957Y594960D01*
X414934Y594914D01*
X414899Y594833D01*
X414841Y594729D01*
X414772Y594614D01*
X414691Y594487D01*
X414588Y594372D01*
X414472Y594245D01*
X414461Y594233D01*
X414415Y594199D01*
X414346Y594141D01*
X414242Y594072D01*
X414126Y593991D01*
X413977Y593911D01*
X413815Y593830D01*
X413642Y593761D01*
X413619Y593749D01*
X413561Y593738D01*
X413458Y593715D01*
X413319Y593680D01*
X413158Y593645D01*
X412962Y593622D01*
X412743Y593611D01*
X412512Y593599D01*
X411901D01*
Y591535D01*
X410679D01*
Y597969D01*
X412662D01*
X412778Y597958D01*
D02*
G37*
G36*
X409630Y596954D02*
X407866D01*
Y591535D01*
X406621D01*
Y596954D01*
X404856D01*
Y597969D01*
X409630D01*
Y596954D01*
D02*
G37*
G36*
X429473Y597958D02*
X429623Y597946D01*
X429784Y597935D01*
X430119Y597877D01*
X430142D01*
X430188Y597854D01*
X430268Y597831D01*
X430372Y597808D01*
X430488Y597762D01*
X430614Y597704D01*
X430741Y597646D01*
X430857Y597566D01*
X430868Y597554D01*
X430903Y597531D01*
X430960Y597485D01*
X431030Y597416D01*
X431110Y597335D01*
X431191Y597243D01*
X431260Y597139D01*
X431329Y597012D01*
X431341Y597001D01*
X431352Y596954D01*
X431387Y596885D01*
X431422Y596782D01*
X431445Y596666D01*
X431479Y596516D01*
X431491Y596355D01*
X431502Y596182D01*
Y596171D01*
Y596124D01*
Y596055D01*
X431491Y595974D01*
X431479Y595882D01*
X431456Y595779D01*
X431398Y595559D01*
Y595548D01*
X431375Y595513D01*
X431352Y595456D01*
X431318Y595398D01*
X431225Y595237D01*
X431099Y595075D01*
X431087Y595064D01*
X431064Y595041D01*
X431030Y595006D01*
X430972Y594960D01*
X430903Y594914D01*
X430833Y594856D01*
X430649Y594752D01*
X430637D01*
X430603Y594729D01*
X430557Y594718D01*
X430488Y594695D01*
X430407Y594660D01*
X430315Y594637D01*
X430095Y594591D01*
X430107D01*
X430130Y594579D01*
X430176Y594556D01*
X430234Y594533D01*
X430303Y594499D01*
X430372Y594452D01*
X430453Y594395D01*
X430522Y594314D01*
X430534Y594303D01*
X430557Y594280D01*
X430591Y594222D01*
X430649Y594153D01*
X430707Y594061D01*
X430776Y593957D01*
X430845Y593830D01*
X430914Y593691D01*
X431952Y591535D01*
X430534D01*
X429623Y593599D01*
Y593611D01*
X429600Y593645D01*
X429565Y593703D01*
X429531Y593761D01*
X429415Y593911D01*
X429346Y593980D01*
X429265Y594037D01*
X429254Y594049D01*
X429219Y594061D01*
X429173Y594084D01*
X429115Y594118D01*
X429035Y594153D01*
X428942Y594176D01*
X428839Y594187D01*
X428723Y594199D01*
X428493D01*
Y591535D01*
X427282D01*
Y597969D01*
X429346D01*
X429473Y597958D01*
D02*
G37*
G36*
X434592Y586262D02*
X434707D01*
X434834Y586239D01*
X434984Y586216D01*
X435123Y586193D01*
X435273Y586147D01*
X435296D01*
X435342Y586124D01*
X435411Y586100D01*
X435503Y586054D01*
X435607Y586008D01*
X435711Y585951D01*
X435826Y585870D01*
X435930Y585789D01*
X435941Y585778D01*
X435976Y585743D01*
X436022Y585697D01*
X436091Y585628D01*
X436160Y585547D01*
X436230Y585443D01*
X436299Y585328D01*
X436356Y585201D01*
X436368Y585190D01*
X436379Y585144D01*
X436403Y585063D01*
X436437Y584971D01*
X436472Y584844D01*
X436495Y584705D01*
X436506Y584555D01*
X436518Y584382D01*
Y584371D01*
Y584313D01*
Y584244D01*
X436506Y584140D01*
X436495Y584037D01*
X436472Y583910D01*
X436414Y583656D01*
Y583645D01*
X436391Y583599D01*
X436368Y583541D01*
X436333Y583460D01*
X436287Y583356D01*
X436241Y583253D01*
X436103Y583010D01*
X436091Y582999D01*
X436068Y582953D01*
X436022Y582895D01*
X435964Y582815D01*
X435895Y582722D01*
X435814Y582607D01*
X435618Y582376D01*
X435607Y582365D01*
X435572Y582319D01*
X435515Y582261D01*
X435434Y582180D01*
X435342Y582077D01*
X435226Y581973D01*
X435111Y581846D01*
X434973Y581719D01*
X434039Y580831D01*
X436748D01*
Y579724D01*
X432378D01*
Y580601D01*
X433889Y582134D01*
X433912Y582157D01*
X433958Y582203D01*
X434039Y582284D01*
X434143Y582388D01*
X434246Y582503D01*
X434362Y582630D01*
X434477Y582757D01*
X434581Y582872D01*
X434592Y582884D01*
X434627Y582930D01*
X434673Y582987D01*
X434731Y583057D01*
X434857Y583241D01*
X434973Y583426D01*
X434984Y583437D01*
X434996Y583472D01*
X435019Y583518D01*
X435053Y583575D01*
X435123Y583714D01*
X435169Y583875D01*
Y583887D01*
X435180Y583910D01*
Y583956D01*
X435192Y584002D01*
X435203Y584140D01*
X435215Y584302D01*
Y584313D01*
Y584336D01*
Y584371D01*
X435203Y584417D01*
X435192Y584521D01*
X435146Y584648D01*
Y584659D01*
X435134Y584671D01*
X435100Y584740D01*
X435053Y584832D01*
X434973Y584924D01*
Y584936D01*
X434950Y584947D01*
X434903Y584994D01*
X434811Y585063D01*
X434696Y585120D01*
X434685D01*
X434661Y585132D01*
X434627Y585144D01*
X434581Y585167D01*
X434454Y585190D01*
X434293Y585201D01*
X434223D01*
X434154Y585190D01*
X434062Y585178D01*
X433958Y585155D01*
X433831Y585132D01*
X433716Y585086D01*
X433589Y585028D01*
X433578Y585017D01*
X433532Y584994D01*
X433474Y584959D01*
X433393Y584913D01*
X433301Y584855D01*
X433197Y584774D01*
X433082Y584694D01*
X432978Y584590D01*
X432344Y585409D01*
X432367Y585432D01*
X432413Y585478D01*
X432505Y585547D01*
X432621Y585639D01*
X432759Y585732D01*
X432909Y585835D01*
X433093Y585939D01*
X433278Y586031D01*
X433289D01*
X433301Y586043D01*
X433370Y586066D01*
X433474Y586112D01*
X433624Y586158D01*
X433785Y586193D01*
X433981Y586239D01*
X434200Y586262D01*
X434419Y586273D01*
X434500D01*
X434592Y586262D01*
D02*
G37*
G36*
X441303Y591535D02*
X439700D01*
X437740Y597969D01*
X439101D01*
X440196Y594095D01*
X440542Y592815D01*
X440911Y594164D01*
X441983Y597969D01*
X443274D01*
X441303Y591535D01*
D02*
G37*
G36*
X446457Y580797D02*
X447875D01*
Y579724D01*
X443586D01*
Y580797D01*
X445223D01*
Y584924D01*
X443793Y584140D01*
X443401Y585120D01*
X445442Y586204D01*
X446457D01*
Y580797D01*
D02*
G37*
G36*
X446053Y597958D02*
X446203D01*
X446376Y597935D01*
X446560Y597912D01*
X446745Y597877D01*
X446929Y597831D01*
X446952Y597819D01*
X447010Y597808D01*
X447102Y597773D01*
X447218Y597727D01*
X447344Y597669D01*
X447471Y597600D01*
X447610Y597519D01*
X447736Y597427D01*
X447748Y597416D01*
X447794Y597381D01*
X447852Y597324D01*
X447921Y597254D01*
X448013Y597162D01*
X448094Y597047D01*
X448175Y596920D01*
X448244Y596782D01*
X448255Y596770D01*
X448267Y596712D01*
X448301Y596632D01*
X448336Y596528D01*
X448359Y596401D01*
X448394Y596251D01*
X448405Y596090D01*
X448417Y595917D01*
Y595894D01*
Y595836D01*
X448405Y595732D01*
X448394Y595606D01*
X448371Y595467D01*
X448348Y595306D01*
X448301Y595144D01*
X448244Y594983D01*
X448232Y594960D01*
X448209Y594914D01*
X448175Y594833D01*
X448117Y594729D01*
X448048Y594614D01*
X447967Y594487D01*
X447863Y594372D01*
X447748Y594245D01*
X447736Y594233D01*
X447690Y594199D01*
X447621Y594141D01*
X447517Y594072D01*
X447402Y593991D01*
X447252Y593911D01*
X447091Y593830D01*
X446918Y593761D01*
X446895Y593749D01*
X446837Y593738D01*
X446733Y593715D01*
X446595Y593680D01*
X446434Y593645D01*
X446238Y593622D01*
X446019Y593611D01*
X445788Y593599D01*
X445177D01*
Y591535D01*
X443955D01*
Y597969D01*
X445938D01*
X446053Y597958D01*
D02*
G37*
G36*
X453951Y593899D02*
Y593888D01*
Y593876D01*
Y593841D01*
Y593795D01*
X453940Y593680D01*
X453928Y593530D01*
X453905Y593357D01*
X453882Y593184D01*
X453836Y593000D01*
X453778Y592815D01*
X453767Y592792D01*
X453744Y592735D01*
X453709Y592654D01*
X453663Y592550D01*
X453594Y592423D01*
X453513Y592296D01*
X453421Y592170D01*
X453305Y592043D01*
X453294Y592031D01*
X453248Y591997D01*
X453179Y591939D01*
X453098Y591870D01*
X452983Y591789D01*
X452856Y591708D01*
X452706Y591639D01*
X452544Y591570D01*
X452521Y591559D01*
X452464Y591547D01*
X452383Y591524D01*
X452256Y591501D01*
X452118Y591466D01*
X451945Y591443D01*
X451760Y591432D01*
X451564Y591420D01*
X451461D01*
X451345Y591432D01*
X451195Y591443D01*
X451034Y591455D01*
X450849Y591489D01*
X450665Y591524D01*
X450492Y591570D01*
X450469Y591581D01*
X450423Y591605D01*
X450342Y591639D01*
X450239Y591685D01*
X450123Y591754D01*
X450008Y591824D01*
X449893Y591916D01*
X449777Y592020D01*
X449766Y592031D01*
X449731Y592077D01*
X449685Y592135D01*
X449627Y592227D01*
X449558Y592331D01*
X449489Y592458D01*
X449431Y592596D01*
X449374Y592746D01*
Y592769D01*
X449351Y592827D01*
X449339Y592907D01*
X449316Y593023D01*
X449293Y593161D01*
X449282Y593323D01*
X449258Y593507D01*
Y593691D01*
Y597969D01*
X450469D01*
Y593772D01*
Y593761D01*
Y593715D01*
Y593657D01*
X450481Y593576D01*
Y593496D01*
X450492Y593392D01*
X450515Y593196D01*
Y593184D01*
X450527Y593150D01*
X450538Y593104D01*
X450561Y593046D01*
X450619Y592907D01*
X450711Y592769D01*
X450723Y592758D01*
X450734Y592746D01*
X450769Y592711D01*
X450815Y592677D01*
X450930Y592585D01*
X451069Y592504D01*
X451080D01*
X451103Y592492D01*
X451149Y592481D01*
X451219Y592469D01*
X451299Y592446D01*
X451380Y592435D01*
X451484Y592423D01*
X451714D01*
X451784Y592435D01*
X451945Y592458D01*
X452118Y592492D01*
X452129D01*
X452152Y592504D01*
X452187Y592527D01*
X452245Y592550D01*
X452348Y592631D01*
X452464Y592735D01*
X452475Y592746D01*
X452487Y592769D01*
X452510Y592804D01*
X452544Y592850D01*
X452579Y592919D01*
X452614Y592988D01*
X452671Y593173D01*
Y593184D01*
X452683Y593219D01*
X452694Y593277D01*
X452706Y593357D01*
X452717Y593449D01*
X452729Y593553D01*
X452740Y593680D01*
Y593818D01*
Y597969D01*
X453951D01*
Y593899D01*
D02*
G37*
G36*
X368767Y584798D02*
X368894D01*
X369033Y584786D01*
X369171Y584774D01*
X369298Y584752D01*
X369309D01*
X369356Y584740D01*
X369413Y584728D01*
X369505Y584717D01*
X369598Y584694D01*
X369701Y584671D01*
X369909Y584625D01*
Y583460D01*
X369897Y583472D01*
X369851Y583483D01*
X369794Y583518D01*
X369713Y583541D01*
X369609Y583587D01*
X369494Y583622D01*
X369240Y583691D01*
X369229D01*
X369182Y583702D01*
X369113Y583725D01*
X369021Y583737D01*
X368917Y583760D01*
X368802Y583771D01*
X368560Y583783D01*
X368445D01*
X368364Y583771D01*
X368272Y583760D01*
X368168Y583737D01*
X367960Y583668D01*
X367949D01*
X367914Y583645D01*
X367868Y583622D01*
X367811Y583587D01*
X367661Y583483D01*
X367511Y583345D01*
X367499Y583333D01*
X367476Y583310D01*
X367453Y583264D01*
X367407Y583207D01*
X367361Y583137D01*
X367315Y583057D01*
X367234Y582861D01*
Y582849D01*
X367222Y582815D01*
X367211Y582757D01*
X367188Y582676D01*
X367176Y582584D01*
X367153Y582469D01*
X367142Y582226D01*
Y582215D01*
Y582169D01*
Y582100D01*
X367153Y582007D01*
X367165Y581904D01*
X367176Y581788D01*
X367234Y581569D01*
Y581558D01*
X367257Y581523D01*
X367280Y581465D01*
X367315Y581408D01*
X367395Y581246D01*
X367522Y581085D01*
X367534Y581073D01*
X367557Y581050D01*
X367603Y581016D01*
X367649Y580970D01*
X367718Y580924D01*
X367799Y580877D01*
X367983Y580785D01*
X367995D01*
X368030Y580774D01*
X368087Y580751D01*
X368168Y580739D01*
X368249Y580716D01*
X368352Y580693D01*
X368583Y580681D01*
X368779D01*
X368906Y580693D01*
X368940D01*
X368975Y580704D01*
X369021Y580716D01*
X369136Y580727D01*
X369263Y580762D01*
X369275D01*
X369298Y580774D01*
X369332Y580785D01*
X369367Y580797D01*
X369482Y580820D01*
X369609Y580854D01*
X369621D01*
X369644Y580866D01*
X369667Y580877D01*
X369713Y580889D01*
X369817Y580935D01*
X369932Y580981D01*
Y579909D01*
X369920Y579897D01*
X369874Y579886D01*
X369794Y579863D01*
X369701Y579828D01*
X369598Y579794D01*
X369471Y579759D01*
X369194Y579701D01*
X369182D01*
X369125Y579690D01*
X369056Y579678D01*
X368952Y579667D01*
X368837Y579655D01*
X368698Y579644D01*
X368398Y579632D01*
X368295D01*
X368179Y579644D01*
X368041Y579655D01*
X367868Y579667D01*
X367695Y579701D01*
X367511Y579736D01*
X367326Y579794D01*
X367303Y579805D01*
X367246Y579828D01*
X367165Y579863D01*
X367050Y579909D01*
X366923Y579978D01*
X366784Y580059D01*
X366646Y580163D01*
X366519Y580266D01*
X366508Y580278D01*
X366461Y580324D01*
X366404Y580393D01*
X366335Y580485D01*
X366254Y580601D01*
X366173Y580739D01*
X366092Y580889D01*
X366023Y581062D01*
X366012Y581085D01*
X366000Y581143D01*
X365966Y581246D01*
X365943Y581373D01*
X365908Y581535D01*
X365873Y581719D01*
X365862Y581927D01*
X365850Y582157D01*
Y582169D01*
Y582180D01*
Y582215D01*
Y582261D01*
X365862Y582376D01*
X365873Y582515D01*
X365897Y582688D01*
X365931Y582872D01*
X365977Y583057D01*
X366035Y583241D01*
Y583253D01*
X366046Y583264D01*
X366070Y583322D01*
X366116Y583414D01*
X366173Y583529D01*
X366242Y583668D01*
X366335Y583806D01*
X366438Y583944D01*
X366565Y584083D01*
X366577Y584094D01*
X366623Y584140D01*
X366704Y584198D01*
X366796Y584279D01*
X366923Y584360D01*
X367061Y584452D01*
X367222Y584532D01*
X367395Y584613D01*
X367407D01*
X367419Y584625D01*
X367488Y584648D01*
X367580Y584671D01*
X367718Y584717D01*
X367880Y584752D01*
X368064Y584774D01*
X368260Y584798D01*
X368479Y584809D01*
X368652D01*
X368767Y584798D01*
D02*
G37*
G36*
X362599Y586873D02*
X362691Y586862D01*
X362795Y586815D01*
X362807D01*
X362818Y586804D01*
X362887Y586769D01*
X362968Y586723D01*
X363049Y586642D01*
X363072Y586619D01*
X363106Y586573D01*
X363164Y586492D01*
X363210Y586389D01*
Y586377D01*
X363222Y586366D01*
X363245Y586297D01*
X363268Y586204D01*
X363279Y586089D01*
Y586077D01*
Y586066D01*
X363268Y585985D01*
X363256Y585893D01*
X363210Y585778D01*
Y585766D01*
X363198Y585755D01*
X363164Y585697D01*
X363118Y585616D01*
X363049Y585535D01*
X363025Y585524D01*
X362979Y585478D01*
X362899Y585420D01*
X362795Y585374D01*
X362783D01*
X362772Y585363D01*
X362703Y585351D01*
X362610Y585328D01*
X362495Y585317D01*
X362438D01*
X362391Y585328D01*
X362288Y585339D01*
X362172Y585374D01*
X362161D01*
X362149Y585386D01*
X362092Y585420D01*
X362011Y585466D01*
X361930Y585535D01*
X361919Y585559D01*
X361873Y585605D01*
X361815Y585685D01*
X361769Y585778D01*
Y585789D01*
X361757Y585801D01*
X361746Y585870D01*
X361723Y585974D01*
X361711Y586089D01*
Y586100D01*
Y586112D01*
X361723Y586193D01*
X361734Y586285D01*
X361769Y586389D01*
Y586400D01*
X361780Y586412D01*
X361815Y586481D01*
X361861Y586562D01*
X361930Y586642D01*
X361953Y586665D01*
X361999Y586712D01*
X362080Y586769D01*
X362172Y586815D01*
X362184D01*
X362195Y586827D01*
X362265Y586850D01*
X362368Y586873D01*
X362495Y586884D01*
X362518D01*
X362599Y586873D01*
D02*
G37*
G36*
X396486Y579724D02*
X394883D01*
X392923Y586158D01*
X394283D01*
X395379Y582284D01*
X395725Y581004D01*
X396094Y582353D01*
X397166Y586158D01*
X398457D01*
X396486Y579724D01*
D02*
G37*
G36*
X452994Y585028D02*
X450388D01*
Y583714D01*
X451034D01*
X451149Y583702D01*
X451299Y583691D01*
X451461Y583679D01*
X451795Y583622D01*
X451818D01*
X451876Y583599D01*
X451956Y583575D01*
X452060Y583552D01*
X452187Y583506D01*
X452325Y583449D01*
X452452Y583391D01*
X452591Y583310D01*
X452602Y583299D01*
X452648Y583276D01*
X452706Y583218D01*
X452787Y583149D01*
X452879Y583068D01*
X452971Y582964D01*
X453063Y582849D01*
X453144Y582711D01*
X453156Y582699D01*
X453179Y582642D01*
X453213Y582561D01*
X453248Y582457D01*
X453282Y582319D01*
X453317Y582157D01*
X453340Y581984D01*
X453352Y581777D01*
Y581754D01*
Y581684D01*
X453340Y581592D01*
X453329Y581465D01*
X453294Y581327D01*
X453259Y581166D01*
X453202Y581016D01*
X453132Y580854D01*
X453121Y580831D01*
X453098Y580785D01*
X453040Y580716D01*
X452971Y580624D01*
X452890Y580508D01*
X452787Y580393D01*
X452660Y580278D01*
X452521Y580174D01*
X452510Y580163D01*
X452452Y580128D01*
X452372Y580082D01*
X452268Y580024D01*
X452129Y579955D01*
X451979Y579886D01*
X451806Y579817D01*
X451611Y579759D01*
X451587D01*
X451518Y579736D01*
X451414Y579713D01*
X451276Y579690D01*
X451103Y579667D01*
X450919Y579644D01*
X450700Y579632D01*
X450481Y579621D01*
X450285D01*
X450158Y579632D01*
X450089D01*
X450054Y579644D01*
X449939Y579655D01*
X449800Y579667D01*
X449731D01*
X449696Y579678D01*
X449581Y579690D01*
X449454Y579701D01*
X449431D01*
X449362Y579713D01*
X449258Y579724D01*
X449155Y579736D01*
Y580785D01*
X449166D01*
X449201Y580774D01*
X449258Y580762D01*
X449339Y580751D01*
X449431Y580727D01*
X449535Y580704D01*
X449662Y580693D01*
X449789Y580670D01*
X449858D01*
X449927Y580658D01*
X450019D01*
X450135Y580647D01*
X450261D01*
X450538Y580635D01*
X450665D01*
X450792Y580647D01*
X450953Y580670D01*
X451138Y580704D01*
X451322Y580751D01*
X451507Y580820D01*
X451668Y580912D01*
X451680Y580924D01*
X451726Y580970D01*
X451795Y581027D01*
X451864Y581119D01*
X451933Y581235D01*
X452002Y581362D01*
X452049Y581523D01*
X452060Y581696D01*
Y581708D01*
Y581719D01*
Y581788D01*
X452037Y581881D01*
X452014Y581996D01*
X451968Y582123D01*
X451910Y582249D01*
X451818Y582376D01*
X451691Y582480D01*
X451680Y582492D01*
X451622Y582515D01*
X451541Y582561D01*
X451414Y582607D01*
X451253Y582653D01*
X451046Y582699D01*
X450803Y582722D01*
X450527Y582734D01*
X449270D01*
Y586158D01*
X452994D01*
Y585028D01*
D02*
G37*
G36*
X418381Y593369D02*
X418519Y593334D01*
X418669Y593265D01*
X418681D01*
X418704Y593242D01*
X418739Y593219D01*
X418785Y593184D01*
X418888Y593081D01*
X418992Y592954D01*
X419004Y592942D01*
X419015Y592919D01*
X419038Y592884D01*
X419073Y592827D01*
X419142Y592700D01*
X419200Y592527D01*
Y592516D01*
X419211Y592481D01*
X419223Y592435D01*
X419234Y592377D01*
X419246Y592296D01*
X419257Y592216D01*
X419269Y592020D01*
Y591997D01*
Y591939D01*
X419257Y591858D01*
X419246Y591743D01*
X419223Y591605D01*
X419200Y591466D01*
X419154Y591316D01*
X419096Y591166D01*
X419084Y591143D01*
X419061Y591097D01*
X419027Y591028D01*
X418969Y590924D01*
X418900Y590821D01*
X418808Y590705D01*
X418704Y590578D01*
X418589Y590463D01*
X418577Y590452D01*
X418531Y590417D01*
X418462Y590359D01*
X418358Y590290D01*
X418243Y590221D01*
X418093Y590140D01*
X417931Y590060D01*
X417758Y589990D01*
X417735Y589979D01*
X417666Y589967D01*
X417562Y589933D01*
X417424Y589898D01*
X417251Y589864D01*
X417055Y589841D01*
X416836Y589817D01*
X416594Y589806D01*
Y590590D01*
X416698D01*
X416767Y590601D01*
X416848D01*
X416940Y590613D01*
X417136Y590636D01*
X417147D01*
X417182Y590648D01*
X417228D01*
X417297Y590671D01*
X417436Y590705D01*
X417586Y590774D01*
X417597D01*
X417620Y590786D01*
X417655Y590809D01*
X417701Y590844D01*
X417793Y590913D01*
X417885Y591017D01*
Y591028D01*
X417908Y591040D01*
X417920Y591074D01*
X417943Y591120D01*
X417978Y591224D01*
X418001Y591362D01*
Y591374D01*
Y591386D01*
Y591455D01*
X417978Y591524D01*
X417954Y591605D01*
X417943Y591616D01*
X417920Y591662D01*
X417885Y591720D01*
X417839Y591778D01*
X417828Y591789D01*
X417805Y591824D01*
X417758Y591881D01*
X417712Y591939D01*
X417701Y591951D01*
X417666Y591985D01*
X417620Y592043D01*
X417574Y592100D01*
X417562Y592112D01*
X417539Y592158D01*
X417505Y592216D01*
X417470Y592296D01*
Y592319D01*
X417459Y592377D01*
X417447Y592458D01*
X417436Y592562D01*
Y592573D01*
Y592585D01*
X417447Y592665D01*
X417459Y592758D01*
X417482Y592861D01*
Y592873D01*
X417493Y592884D01*
X417528Y592954D01*
X417574Y593034D01*
X417643Y593127D01*
X417666Y593150D01*
X417712Y593196D01*
X417793Y593253D01*
X417897Y593311D01*
X417908D01*
X417920Y593323D01*
X418001Y593346D01*
X418104Y593369D01*
X418231Y593380D01*
X418323D01*
X418381Y593369D01*
D02*
G37*
G36*
X357606Y596632D02*
X357756Y596620D01*
X357918Y596597D01*
X358079Y596562D01*
X358229Y596528D01*
X358252D01*
X358298Y596505D01*
X358367Y596482D01*
X358460Y596447D01*
X358563Y596401D01*
X358679Y596343D01*
X358783Y596286D01*
X358886Y596205D01*
X358898Y596194D01*
X358932Y596171D01*
X358979Y596124D01*
X359036Y596067D01*
X359094Y595986D01*
X359163Y595894D01*
X359221Y595790D01*
X359278Y595675D01*
X359290Y595663D01*
X359301Y595617D01*
X359324Y595559D01*
X359348Y595467D01*
X359370Y595363D01*
X359382Y595237D01*
X359405Y595098D01*
Y594948D01*
Y591535D01*
X358367D01*
X358344Y592181D01*
X358333Y592170D01*
X358321Y592158D01*
X358287Y592124D01*
X358241Y592077D01*
X358137Y591985D01*
X358010Y591870D01*
X357998Y591858D01*
X357975Y591847D01*
X357941Y591824D01*
X357895Y591789D01*
X357779Y591708D01*
X357629Y591628D01*
X357618D01*
X357595Y591616D01*
X357549Y591593D01*
X357491Y591570D01*
X357353Y591524D01*
X357180Y591478D01*
X357168D01*
X357134Y591466D01*
X357088Y591455D01*
X357018D01*
X356949Y591443D01*
X356857Y591432D01*
X356649Y591420D01*
X356580D01*
X356511Y591432D01*
X356419D01*
X356315Y591443D01*
X356200Y591466D01*
X355969Y591535D01*
X355958D01*
X355923Y591559D01*
X355865Y591581D01*
X355796Y591616D01*
X355646Y591708D01*
X355485Y591835D01*
X355473Y591847D01*
X355450Y591870D01*
X355416Y591916D01*
X355370Y591974D01*
X355324Y592043D01*
X355277Y592135D01*
X355185Y592331D01*
Y592343D01*
X355174Y592377D01*
X355162Y592446D01*
X355139Y592516D01*
X355128Y592608D01*
X355104Y592723D01*
X355093Y592965D01*
Y592977D01*
Y593023D01*
X355104Y593092D01*
X355116Y593173D01*
X355128Y593277D01*
X355162Y593380D01*
X355197Y593496D01*
X355243Y593611D01*
X355254Y593622D01*
X355266Y593669D01*
X355312Y593726D01*
X355358Y593795D01*
X355416Y593876D01*
X355496Y593957D01*
X355589Y594049D01*
X355693Y594130D01*
X355704Y594141D01*
X355750Y594164D01*
X355819Y594210D01*
X355911Y594256D01*
X356015Y594314D01*
X356154Y594372D01*
X356304Y594429D01*
X356465Y594476D01*
X356488Y594487D01*
X356546Y594499D01*
X356649Y594522D01*
X356776Y594545D01*
X356938Y594568D01*
X357122Y594579D01*
X357318Y594602D01*
X358206D01*
Y594891D01*
Y594902D01*
Y594925D01*
Y594960D01*
X358194Y595006D01*
X358183Y595121D01*
X358148Y595237D01*
Y595248D01*
X358137Y595260D01*
X358102Y595329D01*
X358045Y595421D01*
X357964Y595502D01*
X357941Y595525D01*
X357883Y595559D01*
X357779Y595617D01*
X357653Y595663D01*
X357641D01*
X357618Y595675D01*
X357583Y595686D01*
X357526Y595698D01*
X357456Y595709D01*
X357376Y595721D01*
X357191Y595732D01*
X357030D01*
X356915Y595721D01*
X356776Y595709D01*
X356638Y595686D01*
X356315Y595629D01*
X356292D01*
X356246Y595606D01*
X356154Y595582D01*
X356050Y595559D01*
X355923Y595513D01*
X355785Y595467D01*
X355485Y595352D01*
Y596309D01*
X355496Y596320D01*
X355554Y596332D01*
X355623Y596355D01*
X355727Y596390D01*
X355842Y596424D01*
X355981Y596470D01*
X356131Y596505D01*
X356304Y596539D01*
X356327D01*
X356384Y596551D01*
X356476Y596574D01*
X356603Y596597D01*
X356753Y596609D01*
X356915Y596632D01*
X357099Y596643D01*
X357480D01*
X357606Y596632D01*
D02*
G37*
G36*
X380263Y592469D02*
X381704D01*
Y591535D01*
X377450D01*
Y592469D01*
X379029D01*
Y595606D01*
X377623D01*
Y596539D01*
X380263D01*
Y592469D01*
D02*
G37*
G36*
X368687Y596632D02*
X368814Y596620D01*
X368964Y596597D01*
X369125Y596574D01*
X369286Y596528D01*
X369436Y596470D01*
X369459Y596459D01*
X369505Y596436D01*
X369586Y596401D01*
X369678Y596355D01*
X369794Y596286D01*
X369909Y596205D01*
X370024Y596113D01*
X370128Y596009D01*
X370140Y595997D01*
X370174Y595963D01*
X370220Y595894D01*
X370289Y595813D01*
X370347Y595709D01*
X370416Y595594D01*
X370485Y595456D01*
X370543Y595306D01*
X370555Y595283D01*
X370566Y595237D01*
X370589Y595156D01*
X370624Y595041D01*
X370647Y594914D01*
X370670Y594752D01*
X370681Y594591D01*
X370693Y594406D01*
Y594383D01*
Y594326D01*
Y594222D01*
X370681Y594084D01*
Y594072D01*
Y594049D01*
Y594014D01*
X370670Y593968D01*
Y593853D01*
X370658Y593726D01*
X367372D01*
Y593715D01*
Y593669D01*
Y593611D01*
X367384Y593530D01*
X367395Y593438D01*
X367407Y593334D01*
X367465Y593138D01*
Y593127D01*
X367488Y593092D01*
X367511Y593046D01*
X367545Y592988D01*
X367626Y592850D01*
X367753Y592711D01*
X367764Y592700D01*
X367787Y592688D01*
X367822Y592654D01*
X367880Y592619D01*
X367937Y592585D01*
X368018Y592538D01*
X368191Y592458D01*
X368202D01*
X368237Y592446D01*
X368295Y592435D01*
X368364Y592423D01*
X368456Y592400D01*
X368548Y592389D01*
X368779Y592377D01*
X368917D01*
X369010Y592389D01*
X369125D01*
X369252Y592400D01*
X369402Y592412D01*
X369551Y592423D01*
X369575D01*
X369621Y592435D01*
X369713Y592446D01*
X369817Y592469D01*
X369955Y592492D01*
X370105Y592527D01*
X370266Y592573D01*
X370428Y592619D01*
Y591662D01*
X370416D01*
X370393Y591651D01*
X370359Y591639D01*
X370301Y591628D01*
X370163Y591593D01*
X370001Y591559D01*
X369967D01*
X369920Y591547D01*
X369851Y591535D01*
X369701Y591512D01*
X369529Y591489D01*
X369494D01*
X369448Y591478D01*
X369379Y591466D01*
X369229Y591455D01*
X369056Y591443D01*
X369010D01*
X368964Y591432D01*
X368906D01*
X368756Y591420D01*
X368502D01*
X368387Y591432D01*
X368249Y591443D01*
X368087Y591455D01*
X367914Y591489D01*
X367730Y591524D01*
X367557Y591581D01*
X367534Y591593D01*
X367488Y591616D01*
X367395Y591651D01*
X367292Y591697D01*
X367176Y591766D01*
X367050Y591847D01*
X366923Y591951D01*
X366796Y592054D01*
X366784Y592066D01*
X366750Y592112D01*
X366692Y592181D01*
X366623Y592273D01*
X366542Y592389D01*
X366461Y592527D01*
X366381Y592677D01*
X366312Y592838D01*
X366300Y592861D01*
X366288Y592919D01*
X366266Y593023D01*
X366231Y593150D01*
X366196Y593311D01*
X366173Y593496D01*
X366162Y593703D01*
X366150Y593922D01*
Y593934D01*
Y593945D01*
Y593980D01*
Y594026D01*
X366162Y594141D01*
X366173Y594291D01*
X366185Y594464D01*
X366219Y594649D01*
X366254Y594844D01*
X366312Y595029D01*
Y595041D01*
X366323Y595052D01*
X366346Y595110D01*
X366381Y595214D01*
X366438Y595329D01*
X366508Y595467D01*
X366588Y595606D01*
X366681Y595755D01*
X366784Y595894D01*
X366796Y595905D01*
X366842Y595951D01*
X366911Y596021D01*
X366992Y596101D01*
X367107Y596182D01*
X367222Y596274D01*
X367372Y596367D01*
X367522Y596447D01*
X367545Y596459D01*
X367603Y596482D01*
X367695Y596505D01*
X367811Y596551D01*
X367949Y596586D01*
X368122Y596609D01*
X368306Y596632D01*
X368502Y596643D01*
X368595D01*
X368687Y596632D01*
D02*
G37*
G36*
X401951D02*
X402078Y596620D01*
X402239Y596597D01*
X402400Y596574D01*
X402573Y596528D01*
X402746Y596470D01*
X402769Y596459D01*
X402816Y596436D01*
X402896Y596401D01*
X403000Y596355D01*
X403115Y596286D01*
X403242Y596194D01*
X403369Y596101D01*
X403484Y595986D01*
X403496Y595974D01*
X403530Y595928D01*
X403588Y595859D01*
X403657Y595767D01*
X403738Y595652D01*
X403819Y595513D01*
X403888Y595352D01*
X403957Y595179D01*
X403969Y595156D01*
X403980Y595098D01*
X404003Y594994D01*
X404038Y594856D01*
X404072Y594695D01*
X404095Y594510D01*
X404107Y594303D01*
X404118Y594072D01*
Y594061D01*
Y594049D01*
Y594014D01*
Y593968D01*
X404107Y593853D01*
X404095Y593715D01*
X404072Y593542D01*
X404049Y593357D01*
X404003Y593161D01*
X403945Y592977D01*
X403934Y592954D01*
X403911Y592896D01*
X403876Y592804D01*
X403819Y592688D01*
X403750Y592562D01*
X403669Y592423D01*
X403577Y592285D01*
X403461Y592146D01*
X403450Y592135D01*
X403404Y592089D01*
X403334Y592031D01*
X403254Y591951D01*
X403138Y591858D01*
X403000Y591778D01*
X402850Y591685D01*
X402689Y591605D01*
X402666Y591593D01*
X402608Y591581D01*
X402516Y591547D01*
X402389Y591512D01*
X402227Y591478D01*
X402055Y591455D01*
X401859Y591432D01*
X401640Y591420D01*
X401547D01*
X401443Y591432D01*
X401305Y591443D01*
X401155Y591455D01*
X400994Y591489D01*
X400821Y591524D01*
X400648Y591581D01*
X400625Y591593D01*
X400579Y591616D01*
X400498Y591651D01*
X400394Y591708D01*
X400267Y591766D01*
X400152Y591858D01*
X400025Y591951D01*
X399899Y592066D01*
X399887Y592077D01*
X399852Y592124D01*
X399795Y592193D01*
X399726Y592285D01*
X399656Y592400D01*
X399576Y592538D01*
X399506Y592700D01*
X399437Y592873D01*
X399426Y592896D01*
X399414Y592954D01*
X399391Y593057D01*
X399357Y593196D01*
X399322Y593357D01*
X399299Y593553D01*
X399287Y593772D01*
X399276Y594003D01*
Y594014D01*
Y594026D01*
Y594061D01*
Y594107D01*
X399287Y594210D01*
X399299Y594360D01*
X399310Y594522D01*
X399345Y594706D01*
X399380Y594891D01*
X399437Y595075D01*
Y595087D01*
X399449Y595098D01*
X399472Y595156D01*
X399506Y595248D01*
X399564Y595363D01*
X399633Y595502D01*
X399714Y595640D01*
X399806Y595779D01*
X399921Y595917D01*
X399933Y595928D01*
X399979Y595974D01*
X400048Y596032D01*
X400141Y596113D01*
X400256Y596194D01*
X400394Y596286D01*
X400544Y596367D01*
X400706Y596447D01*
X400729Y596459D01*
X400786Y596482D01*
X400878Y596505D01*
X401005Y596551D01*
X401167Y596586D01*
X401340Y596609D01*
X401536Y596632D01*
X401743Y596643D01*
X401835D01*
X401951Y596632D01*
D02*
G37*
G36*
X363175Y580658D02*
X364617D01*
Y579724D01*
X360362D01*
Y580658D01*
X361942D01*
Y583794D01*
X360535D01*
Y584728D01*
X363175D01*
Y580658D01*
D02*
G37*
G36*
X356696Y586147D02*
X356869Y586135D01*
X357076Y586112D01*
X357284Y586077D01*
X357503Y586031D01*
X357722Y585962D01*
X357733D01*
X357745Y585951D01*
X357814Y585927D01*
X357918Y585881D01*
X358045Y585824D01*
X358194Y585743D01*
X358344Y585651D01*
X358494Y585535D01*
X358644Y585397D01*
X358656Y585386D01*
X358702Y585328D01*
X358771Y585247D01*
X358852Y585132D01*
X358944Y584994D01*
X359036Y584821D01*
X359117Y584636D01*
X359198Y584417D01*
Y584406D01*
X359209Y584394D01*
X359221Y584360D01*
X359232Y584313D01*
X359244Y584256D01*
X359255Y584187D01*
X359301Y584025D01*
X359336Y583818D01*
X359359Y583575D01*
X359382Y583310D01*
X359394Y583022D01*
Y583010D01*
Y582987D01*
Y582953D01*
Y582895D01*
Y582826D01*
X359382Y582757D01*
X359370Y582572D01*
X359348Y582365D01*
X359313Y582134D01*
X359267Y581892D01*
X359198Y581661D01*
Y581650D01*
X359186Y581638D01*
X359174Y581604D01*
X359163Y581558D01*
X359117Y581442D01*
X359059Y581304D01*
X358979Y581143D01*
X358875Y580958D01*
X358759Y580785D01*
X358621Y580612D01*
X358598Y580589D01*
X358552Y580543D01*
X358460Y580462D01*
X358344Y580370D01*
X358206Y580266D01*
X358033Y580151D01*
X357837Y580047D01*
X357618Y579955D01*
X357606D01*
X357595Y579944D01*
X357560Y579932D01*
X357514Y579920D01*
X357445Y579897D01*
X357376Y579886D01*
X357203Y579840D01*
X356995Y579794D01*
X356742Y579759D01*
X356465Y579736D01*
X356154Y579724D01*
X354528D01*
Y586158D01*
X356615D01*
X356696Y586147D01*
D02*
G37*
G36*
X350492Y582607D02*
X352233Y584728D01*
X353732D01*
X351715Y582445D01*
X353905Y579724D01*
X352337D01*
X350492Y582226D01*
Y579724D01*
X349293D01*
Y586689D01*
X350492D01*
Y582607D01*
D02*
G37*
G36*
X440334Y586262D02*
X440461Y586250D01*
X440611Y586227D01*
X440772Y586193D01*
X440945Y586147D01*
X441118Y586077D01*
X441141Y586066D01*
X441199Y586043D01*
X441280Y585997D01*
X441383Y585939D01*
X441510Y585858D01*
X441637Y585755D01*
X441764Y585628D01*
X441891Y585489D01*
X441902Y585466D01*
X441948Y585420D01*
X442006Y585328D01*
X442075Y585213D01*
X442156Y585063D01*
X442237Y584890D01*
X442329Y584694D01*
X442398Y584463D01*
Y584452D01*
X442410Y584440D01*
X442421Y584406D01*
X442433Y584348D01*
X442444Y584290D01*
X442456Y584221D01*
X442490Y584048D01*
X442525Y583829D01*
X442559Y583564D01*
X442571Y583276D01*
X442583Y582964D01*
Y582953D01*
Y582930D01*
Y582884D01*
Y582826D01*
Y582757D01*
X442571Y582676D01*
X442559Y582492D01*
X442536Y582272D01*
X442513Y582030D01*
X442467Y581788D01*
X442410Y581546D01*
Y581535D01*
X442398Y581523D01*
X442386Y581489D01*
X442375Y581442D01*
X442340Y581327D01*
X442283Y581177D01*
X442214Y581016D01*
X442121Y580831D01*
X442018Y580658D01*
X441902Y580485D01*
X441891Y580462D01*
X441845Y580416D01*
X441775Y580336D01*
X441672Y580243D01*
X441556Y580139D01*
X441418Y580024D01*
X441257Y579920D01*
X441084Y579828D01*
X441061Y579817D01*
X441003Y579794D01*
X440899Y579759D01*
X440772Y579724D01*
X440611Y579678D01*
X440426Y579644D01*
X440219Y579621D01*
X440000Y579609D01*
X439908D01*
X439804Y579621D01*
X439677Y579632D01*
X439515Y579655D01*
X439354Y579690D01*
X439181Y579736D01*
X439008Y579794D01*
X438985Y579805D01*
X438939Y579828D01*
X438847Y579874D01*
X438743Y579932D01*
X438628Y580024D01*
X438501Y580116D01*
X438363Y580243D01*
X438236Y580382D01*
X438224Y580405D01*
X438178Y580451D01*
X438120Y580543D01*
X438051Y580658D01*
X437970Y580808D01*
X437890Y580981D01*
X437809Y581189D01*
X437728Y581408D01*
Y581419D01*
X437717Y581442D01*
Y581477D01*
X437705Y581523D01*
X437694Y581581D01*
X437671Y581650D01*
X437648Y581834D01*
X437613Y582054D01*
X437578Y582307D01*
X437567Y582595D01*
X437556Y582907D01*
Y582918D01*
Y582941D01*
Y582987D01*
Y583045D01*
Y583114D01*
X437567Y583195D01*
X437578Y583379D01*
X437602Y583599D01*
X437625Y583841D01*
X437671Y584083D01*
X437728Y584325D01*
Y584336D01*
X437740Y584348D01*
X437751Y584382D01*
X437763Y584429D01*
X437798Y584544D01*
X437855Y584694D01*
X437924Y584855D01*
X438017Y585028D01*
X438109Y585201D01*
X438224Y585374D01*
X438236Y585397D01*
X438282Y585443D01*
X438351Y585524D01*
X438455Y585628D01*
X438570Y585732D01*
X438708Y585847D01*
X438870Y585951D01*
X439043Y586043D01*
X439066Y586054D01*
X439123Y586077D01*
X439227Y586112D01*
X439366Y586158D01*
X439527Y586204D01*
X439712Y586239D01*
X439919Y586262D01*
X440138Y586273D01*
X440230D01*
X440334Y586262D01*
D02*
G37*
G36*
X401328Y581523D02*
X401455Y581500D01*
X401582Y581454D01*
X401593D01*
X401616Y581442D01*
X401651Y581419D01*
X401686Y581396D01*
X401789Y581327D01*
X401893Y581246D01*
X401905D01*
X401916Y581223D01*
X401974Y581166D01*
X402043Y581062D01*
X402101Y580935D01*
Y580924D01*
X402112Y580900D01*
X402124Y580866D01*
X402147Y580820D01*
X402170Y580704D01*
X402181Y580566D01*
Y580555D01*
Y580532D01*
Y580497D01*
X402170Y580451D01*
X402147Y580324D01*
X402101Y580186D01*
Y580174D01*
X402089Y580163D01*
X402055Y580082D01*
X401985Y579990D01*
X401893Y579886D01*
X401870Y579863D01*
X401812Y579817D01*
X401709Y579747D01*
X401582Y579690D01*
X401570D01*
X401547Y579678D01*
X401513Y579667D01*
X401467Y579655D01*
X401351Y579621D01*
X401201Y579609D01*
X401132D01*
X401086Y579621D01*
X400959Y579644D01*
X400832Y579690D01*
X400821D01*
X400809Y579701D01*
X400740Y579736D01*
X400636Y579805D01*
X400533Y579886D01*
Y579897D01*
X400510Y579909D01*
X400463Y579966D01*
X400394Y580070D01*
X400337Y580186D01*
Y580197D01*
X400325Y580220D01*
X400314Y580255D01*
X400302Y580301D01*
X400279Y580428D01*
X400267Y580566D01*
Y580578D01*
Y580601D01*
Y580635D01*
X400279Y580681D01*
X400302Y580808D01*
X400337Y580935D01*
Y580947D01*
X400348Y580970D01*
X400371Y581004D01*
X400383Y581039D01*
X400452Y581143D01*
X400533Y581246D01*
X400544Y581258D01*
X400556Y581269D01*
X400625Y581316D01*
X400717Y581385D01*
X400832Y581454D01*
X400844D01*
X400867Y581465D01*
X400902Y581477D01*
X400948Y581500D01*
X401063Y581523D01*
X401201Y581535D01*
X401282D01*
X401328Y581523D01*
D02*
G37*
G36*
X379686Y598684D02*
X379779Y598672D01*
X379882Y598626D01*
X379894D01*
X379906Y598615D01*
X379975Y598580D01*
X380055Y598534D01*
X380136Y598453D01*
X380159Y598430D01*
X380194Y598384D01*
X380251Y598304D01*
X380297Y598200D01*
Y598188D01*
X380309Y598177D01*
X380332Y598107D01*
X380355Y598015D01*
X380367Y597900D01*
Y597889D01*
Y597877D01*
X380355Y597796D01*
X380344Y597704D01*
X380297Y597589D01*
Y597577D01*
X380286Y597566D01*
X380251Y597508D01*
X380205Y597427D01*
X380136Y597347D01*
X380113Y597335D01*
X380067Y597289D01*
X379986Y597231D01*
X379882Y597185D01*
X379871D01*
X379859Y597174D01*
X379790Y597162D01*
X379698Y597139D01*
X379583Y597127D01*
X379525D01*
X379479Y597139D01*
X379375Y597151D01*
X379260Y597185D01*
X379248D01*
X379237Y597197D01*
X379179Y597231D01*
X379098Y597277D01*
X379018Y597347D01*
X379006Y597370D01*
X378960Y597416D01*
X378902Y597496D01*
X378856Y597589D01*
Y597600D01*
X378845Y597612D01*
X378833Y597681D01*
X378810Y597785D01*
X378799Y597900D01*
Y597912D01*
Y597923D01*
X378810Y598004D01*
X378822Y598096D01*
X378856Y598200D01*
Y598211D01*
X378868Y598223D01*
X378902Y598292D01*
X378948Y598373D01*
X379018Y598453D01*
X379041Y598477D01*
X379087Y598523D01*
X379168Y598580D01*
X379260Y598626D01*
X379271D01*
X379283Y598638D01*
X379352Y598661D01*
X379456Y598684D01*
X379583Y598696D01*
X379606D01*
X379686Y598684D01*
D02*
G37*
G36*
X354320Y591535D02*
X353248D01*
X353133Y595167D01*
X353087Y596620D01*
X352775Y595640D01*
X352061Y593449D01*
X351300D01*
X350654Y595640D01*
X350389Y596620D01*
X350354Y595202D01*
X350239Y591535D01*
X349213D01*
X349535Y597969D01*
X350896D01*
X351461Y596136D01*
X351738Y595098D01*
X352014Y596067D01*
X352614Y597969D01*
X354009D01*
X354320Y591535D01*
D02*
G37*
G36*
X407635Y580797D02*
X409053D01*
Y579724D01*
X404764D01*
Y580797D01*
X406401D01*
Y584924D01*
X404972Y584140D01*
X404580Y585120D01*
X406621Y586204D01*
X407635D01*
Y580797D01*
D02*
G37*
G36*
X392162Y585132D02*
X389522D01*
Y583541D01*
X392035D01*
Y582538D01*
X389522D01*
Y580751D01*
X392162D01*
Y579724D01*
X388288D01*
Y586158D01*
X392162D01*
Y585132D01*
D02*
G37*
G36*
X384656Y586147D02*
X384806Y586135D01*
X384967Y586124D01*
X385301Y586066D01*
X385325D01*
X385371Y586043D01*
X385451Y586020D01*
X385555Y585997D01*
X385670Y585951D01*
X385797Y585893D01*
X385924Y585835D01*
X386039Y585755D01*
X386051Y585743D01*
X386086Y585720D01*
X386143Y585674D01*
X386212Y585605D01*
X386293Y585524D01*
X386374Y585432D01*
X386443Y585328D01*
X386512Y585201D01*
X386524Y585190D01*
X386535Y585144D01*
X386570Y585074D01*
X386604Y584971D01*
X386627Y584855D01*
X386662Y584705D01*
X386674Y584544D01*
X386685Y584371D01*
Y584360D01*
Y584313D01*
Y584244D01*
X386674Y584164D01*
X386662Y584071D01*
X386639Y583967D01*
X386581Y583748D01*
Y583737D01*
X386558Y583702D01*
X386535Y583645D01*
X386501Y583587D01*
X386408Y583426D01*
X386281Y583264D01*
X386270Y583253D01*
X386247Y583229D01*
X386212Y583195D01*
X386155Y583149D01*
X386086Y583103D01*
X386016Y583045D01*
X385832Y582941D01*
X385820D01*
X385786Y582918D01*
X385740Y582907D01*
X385670Y582884D01*
X385590Y582849D01*
X385497Y582826D01*
X385278Y582780D01*
X385290D01*
X385313Y582768D01*
X385359Y582745D01*
X385417Y582722D01*
X385486Y582688D01*
X385555Y582642D01*
X385636Y582584D01*
X385705Y582503D01*
X385717Y582492D01*
X385740Y582469D01*
X385774Y582411D01*
X385832Y582342D01*
X385890Y582249D01*
X385959Y582146D01*
X386028Y582019D01*
X386097Y581881D01*
X387135Y579724D01*
X385717D01*
X384806Y581788D01*
Y581800D01*
X384783Y581834D01*
X384748Y581892D01*
X384714Y581950D01*
X384598Y582100D01*
X384529Y582169D01*
X384448Y582226D01*
X384437Y582238D01*
X384402Y582249D01*
X384356Y582272D01*
X384298Y582307D01*
X384218Y582342D01*
X384125Y582365D01*
X384022Y582376D01*
X383906Y582388D01*
X383676D01*
Y579724D01*
X382465D01*
Y586158D01*
X384529D01*
X384656Y586147D01*
D02*
G37*
G36*
X364963Y591535D02*
X363925D01*
X363890Y592273D01*
X363879Y592262D01*
X363867Y592239D01*
X363833Y592204D01*
X363787Y592158D01*
X363683Y592043D01*
X363556Y591916D01*
X363544Y591904D01*
X363533Y591893D01*
X363498Y591858D01*
X363452Y591824D01*
X363337Y591743D01*
X363198Y591651D01*
X363187D01*
X363164Y591628D01*
X363129Y591616D01*
X363083Y591581D01*
X362956Y591524D01*
X362795Y591478D01*
X362783D01*
X362760Y591466D01*
X362714Y591455D01*
X362657D01*
X362576Y591443D01*
X362495Y591432D01*
X362311Y591420D01*
X362230D01*
X362149Y591432D01*
X362046Y591443D01*
X361919Y591466D01*
X361780Y591489D01*
X361653Y591535D01*
X361515Y591593D01*
X361504Y591605D01*
X361457Y591628D01*
X361388Y591662D01*
X361319Y591720D01*
X361227Y591789D01*
X361123Y591881D01*
X361031Y591974D01*
X360939Y592089D01*
X360927Y592100D01*
X360904Y592146D01*
X360858Y592216D01*
X360812Y592319D01*
X360754Y592435D01*
X360697Y592562D01*
X360639Y592723D01*
X360581Y592884D01*
Y592907D01*
X360558Y592965D01*
X360547Y593069D01*
X360524Y593196D01*
X360501Y593346D01*
X360489Y593530D01*
X360466Y593726D01*
Y593934D01*
Y593945D01*
Y593968D01*
Y594003D01*
Y594049D01*
X360477Y594176D01*
X360489Y594349D01*
X360512Y594533D01*
X360547Y594729D01*
X360593Y594937D01*
X360650Y595133D01*
Y595144D01*
X360662Y595156D01*
X360685Y595214D01*
X360731Y595306D01*
X360789Y595433D01*
X360869Y595559D01*
X360962Y595698D01*
X361065Y595848D01*
X361192Y595974D01*
X361204Y595986D01*
X361250Y596032D01*
X361331Y596090D01*
X361423Y596159D01*
X361550Y596240D01*
X361688Y596320D01*
X361838Y596401D01*
X362011Y596470D01*
X362034Y596482D01*
X362092Y596493D01*
X362195Y596516D01*
X362322Y596551D01*
X362472Y596586D01*
X362645Y596609D01*
X362841Y596620D01*
X363049Y596632D01*
X363164D01*
X363279Y596620D01*
X363418Y596597D01*
X363452D01*
X363487Y596586D01*
X363533D01*
X363648Y596562D01*
X363763Y596539D01*
Y598499D01*
X364963D01*
Y591535D01*
D02*
G37*
G36*
X435422Y598073D02*
X435572Y598061D01*
X435607D01*
X435653Y598050D01*
X435711D01*
X435838Y598038D01*
X435987Y598015D01*
X436022D01*
X436068Y598004D01*
X436114D01*
X436241Y597981D01*
X436379Y597946D01*
X436414D01*
X436449Y597935D01*
X436495Y597923D01*
X436610Y597900D01*
X436737Y597877D01*
Y596770D01*
X436725D01*
X436714Y596782D01*
X436679Y596793D01*
X436633Y596805D01*
X436518Y596839D01*
X436391Y596874D01*
X436379D01*
X436356Y596885D01*
X436322D01*
X436276Y596897D01*
X436149Y596932D01*
X435999Y596954D01*
X435987D01*
X435964Y596966D01*
X435930D01*
X435872Y596978D01*
X435745Y597001D01*
X435595Y597024D01*
X435561D01*
X435526Y597035D01*
X435480D01*
X435353Y597047D01*
X435100D01*
X435030Y597035D01*
X434857Y597024D01*
X434673Y596989D01*
X434661D01*
X434638Y596978D01*
X434592Y596966D01*
X434546Y596954D01*
X434431Y596908D01*
X434315Y596851D01*
X434293Y596839D01*
X434235Y596793D01*
X434166Y596712D01*
X434108Y596620D01*
Y596609D01*
X434096Y596597D01*
X434085Y596528D01*
X434062Y596436D01*
X434050Y596320D01*
Y596309D01*
Y596286D01*
X434062Y596251D01*
Y596205D01*
X434108Y596090D01*
X434131Y596032D01*
X434177Y595974D01*
X434189Y595963D01*
X434200Y595951D01*
X434235Y595928D01*
X434269Y595894D01*
X434385Y595801D01*
X434535Y595709D01*
X434546D01*
X434581Y595686D01*
X434627Y595663D01*
X434685Y595640D01*
X434765Y595606D01*
X434846Y595571D01*
X435042Y595490D01*
X435053D01*
X435088Y595479D01*
X435146Y595456D01*
X435226Y595433D01*
X435307Y595398D01*
X435411Y595363D01*
X435618Y595283D01*
X435630D01*
X435665Y595260D01*
X435734Y595237D01*
X435803Y595202D01*
X435895Y595167D01*
X435987Y595121D01*
X436195Y595017D01*
X436206Y595006D01*
X436241Y594994D01*
X436299Y594960D01*
X436368Y594914D01*
X436529Y594798D01*
X436702Y594649D01*
X436714Y594637D01*
X436737Y594614D01*
X436783Y594568D01*
X436841Y594510D01*
X436898Y594441D01*
X436956Y594349D01*
X437071Y594153D01*
X437083Y594141D01*
X437094Y594107D01*
X437117Y594037D01*
X437140Y593957D01*
X437163Y593864D01*
X437186Y593749D01*
X437210Y593611D01*
Y593472D01*
Y593449D01*
Y593380D01*
X437198Y593288D01*
X437186Y593161D01*
X437163Y593011D01*
X437129Y592861D01*
X437083Y592700D01*
X437013Y592550D01*
X437002Y592538D01*
X436979Y592492D01*
X436933Y592412D01*
X436875Y592331D01*
X436795Y592227D01*
X436702Y592124D01*
X436587Y592020D01*
X436460Y591916D01*
X436449Y591904D01*
X436403Y591870D01*
X436322Y591824D01*
X436230Y591778D01*
X436103Y591708D01*
X435964Y591651D01*
X435803Y591593D01*
X435630Y591535D01*
X435607D01*
X435549Y591512D01*
X435445Y591501D01*
X435319Y591478D01*
X435157Y591455D01*
X434984Y591443D01*
X434788Y591420D01*
X434396D01*
X434269Y591432D01*
X434120D01*
X433958Y591443D01*
X433601Y591478D01*
X433578D01*
X433520Y591489D01*
X433428Y591501D01*
X433312Y591524D01*
X433162Y591547D01*
X433013Y591581D01*
X432667Y591674D01*
Y592873D01*
X432678D01*
X432701Y592861D01*
X432747Y592850D01*
X432805Y592827D01*
X432955Y592781D01*
X433128Y592723D01*
X433140D01*
X433174Y592711D01*
X433220Y592700D01*
X433289Y592677D01*
X433439Y592642D01*
X433624Y592596D01*
X433635D01*
X433670Y592585D01*
X433716D01*
X433785Y592573D01*
X433935Y592538D01*
X434120Y592516D01*
X434166D01*
X434212Y592504D01*
X434281D01*
X434431Y592492D01*
X434731D01*
X434811Y592504D01*
X434996Y592516D01*
X435192Y592550D01*
X435203D01*
X435238Y592562D01*
X435273Y592573D01*
X435330Y592596D01*
X435457Y592642D01*
X435584Y592711D01*
X435595D01*
X435607Y592735D01*
X435676Y592781D01*
X435745Y592861D01*
X435814Y592954D01*
Y592965D01*
X435826Y592977D01*
X435849Y593046D01*
X435872Y593150D01*
X435884Y593277D01*
Y593288D01*
Y593311D01*
X435872Y593357D01*
Y593415D01*
X435826Y593542D01*
X435791Y593611D01*
X435745Y593669D01*
X435734Y593680D01*
X435722Y593691D01*
X435688Y593726D01*
X435653Y593761D01*
X435538Y593853D01*
X435388Y593945D01*
X435376Y593957D01*
X435353Y593968D01*
X435307Y593991D01*
X435238Y594026D01*
X435169Y594061D01*
X435077Y594095D01*
X434880Y594164D01*
X434869D01*
X434834Y594187D01*
X434777Y594199D01*
X434696Y594233D01*
X434615Y594268D01*
X434512Y594303D01*
X434304Y594383D01*
X434293D01*
X434258Y594406D01*
X434200Y594429D01*
X434120Y594464D01*
X434039Y594499D01*
X433935Y594545D01*
X433728Y594637D01*
X433716Y594649D01*
X433681Y594660D01*
X433624Y594695D01*
X433555Y594741D01*
X433393Y594856D01*
X433220Y594994D01*
X433209Y595006D01*
X433186Y595029D01*
X433140Y595075D01*
X433093Y595144D01*
X433036Y595214D01*
X432978Y595306D01*
X432863Y595502D01*
Y595513D01*
X432840Y595559D01*
X432828Y595617D01*
X432805Y595698D01*
X432782Y595801D01*
X432759Y595928D01*
X432747Y596055D01*
X432736Y596205D01*
Y596228D01*
Y596274D01*
X432747Y596343D01*
Y596436D01*
X432770Y596551D01*
X432794Y596666D01*
X432817Y596793D01*
X432863Y596920D01*
X432874Y596932D01*
X432886Y596978D01*
X432920Y597047D01*
X432967Y597127D01*
X433036Y597220D01*
X433105Y597324D01*
X433197Y597416D01*
X433301Y597519D01*
X433312Y597531D01*
X433358Y597566D01*
X433416Y597612D01*
X433508Y597669D01*
X433624Y597727D01*
X433751Y597796D01*
X433900Y597865D01*
X434062Y597923D01*
X434085Y597935D01*
X434143Y597946D01*
X434246Y597969D01*
X434373Y598004D01*
X434535Y598038D01*
X434731Y598061D01*
X434938Y598073D01*
X435180Y598084D01*
X435296D01*
X435422Y598073D01*
D02*
G37*
G36*
X372676Y582607D02*
X374417Y584728D01*
X375916D01*
X373898Y582445D01*
X376089Y579724D01*
X374521D01*
X372676Y582226D01*
Y579724D01*
X371477D01*
Y586689D01*
X372676D01*
Y582607D01*
D02*
G37*
G36*
X385751Y596632D02*
X385843D01*
X385947Y596609D01*
X386051Y596586D01*
X386166Y596562D01*
X386281Y596516D01*
X386293D01*
X386328Y596493D01*
X386385Y596459D01*
X386455Y596424D01*
X386604Y596309D01*
X386754Y596159D01*
X386766Y596147D01*
X386789Y596113D01*
X386824Y596067D01*
X386870Y596009D01*
X386916Y595928D01*
X386962Y595825D01*
X387008Y595721D01*
X387042Y595606D01*
Y595594D01*
X387054Y595548D01*
X387077Y595479D01*
X387100Y595398D01*
X387112Y595294D01*
X387135Y595167D01*
X387146Y595029D01*
Y594891D01*
Y591535D01*
X385947D01*
Y594787D01*
Y594798D01*
Y594822D01*
Y594868D01*
X385936Y594914D01*
X385913Y595052D01*
X385866Y595202D01*
X385797Y595352D01*
X385682Y595490D01*
X385613Y595536D01*
X385532Y595582D01*
X385440Y595606D01*
X385325Y595617D01*
X385278D01*
X385209Y595606D01*
X385140Y595582D01*
X385048Y595559D01*
X384956Y595513D01*
X384840Y595444D01*
X384736Y595363D01*
X384725Y595352D01*
X384690Y595317D01*
X384633Y595260D01*
X384564Y595190D01*
X384471Y595098D01*
X384379Y594983D01*
X384275Y594844D01*
X384160Y594695D01*
Y591535D01*
X382961D01*
Y596539D01*
X383987D01*
X384022Y595790D01*
X384033Y595801D01*
X384045Y595825D01*
X384079Y595859D01*
X384114Y595905D01*
X384218Y596021D01*
X384333Y596136D01*
X384345Y596147D01*
X384368Y596159D01*
X384402Y596194D01*
X384448Y596228D01*
X384552Y596320D01*
X384690Y596401D01*
X384702D01*
X384725Y596424D01*
X384760Y596436D01*
X384817Y596470D01*
X384944Y596528D01*
X385105Y596574D01*
X385117D01*
X385152Y596586D01*
X385198Y596597D01*
X385255Y596609D01*
X385336Y596620D01*
X385417Y596632D01*
X385613Y596643D01*
X385682D01*
X385751Y596632D01*
D02*
G37*
%LPC*%
G36*
X412662Y596966D02*
X411901D01*
Y594602D01*
X412685D01*
X412754Y594614D01*
X412939Y594637D01*
X413123Y594683D01*
X413135D01*
X413169Y594695D01*
X413204Y594718D01*
X413262Y594741D01*
X413400Y594822D01*
X413527Y594925D01*
X413539Y594937D01*
X413550Y594960D01*
X413585Y594994D01*
X413619Y595041D01*
X413711Y595167D01*
X413781Y595317D01*
Y595329D01*
X413792Y595363D01*
X413815Y595409D01*
X413827Y595467D01*
X413850Y595548D01*
X413861Y595629D01*
X413873Y595836D01*
Y595848D01*
Y595882D01*
Y595928D01*
X413861Y595986D01*
X413838Y596136D01*
X413781Y596297D01*
Y596309D01*
X413769Y596332D01*
X413746Y596367D01*
X413723Y596424D01*
X413642Y596539D01*
X413539Y596655D01*
X413527Y596666D01*
X413515Y596678D01*
X413469Y596712D01*
X413423Y596735D01*
X413366Y596782D01*
X413296Y596816D01*
X413123Y596885D01*
X413112D01*
X413077Y596897D01*
X413031Y596908D01*
X412950Y596932D01*
X412870Y596943D01*
X412766Y596954D01*
X412662Y596966D01*
D02*
G37*
G36*
X429023Y596954D02*
X428493D01*
Y595144D01*
X429081D01*
X429150Y595156D01*
X429323Y595167D01*
X429496Y595202D01*
X429507D01*
X429531Y595214D01*
X429577Y595225D01*
X429634Y595248D01*
X429761Y595294D01*
X429888Y595375D01*
X429900D01*
X429911Y595398D01*
X429980Y595456D01*
X430061Y595548D01*
X430142Y595663D01*
Y595675D01*
X430153Y595698D01*
X430176Y595732D01*
X430188Y595779D01*
X430222Y595905D01*
X430234Y596067D01*
Y596090D01*
Y596147D01*
X430222Y596228D01*
X430199Y596332D01*
X430153Y596436D01*
X430107Y596551D01*
X430026Y596655D01*
X429923Y596747D01*
X429911Y596759D01*
X429865Y596782D01*
X429796Y596816D01*
X429704Y596851D01*
X429577Y596885D01*
X429415Y596920D01*
X429231Y596943D01*
X429023Y596954D01*
D02*
G37*
G36*
X445938Y596966D02*
X445177D01*
Y594602D01*
X445961D01*
X446030Y594614D01*
X446214Y594637D01*
X446399Y594683D01*
X446411D01*
X446445Y594695D01*
X446480Y594718D01*
X446537Y594741D01*
X446676Y594822D01*
X446803Y594925D01*
X446814Y594937D01*
X446826Y594960D01*
X446860Y594994D01*
X446895Y595041D01*
X446987Y595167D01*
X447056Y595317D01*
Y595329D01*
X447068Y595363D01*
X447091Y595409D01*
X447102Y595467D01*
X447125Y595548D01*
X447137Y595629D01*
X447148Y595836D01*
Y595848D01*
Y595882D01*
Y595928D01*
X447137Y595986D01*
X447114Y596136D01*
X447056Y596297D01*
Y596309D01*
X447045Y596332D01*
X447022Y596367D01*
X446999Y596424D01*
X446918Y596539D01*
X446814Y596655D01*
X446803Y596666D01*
X446791Y596678D01*
X446745Y596712D01*
X446699Y596735D01*
X446641Y596782D01*
X446572Y596816D01*
X446399Y596885D01*
X446387D01*
X446353Y596897D01*
X446307Y596908D01*
X446226Y596932D01*
X446145Y596943D01*
X446041Y596954D01*
X445938Y596966D01*
D02*
G37*
G36*
X358206Y593749D02*
X357353D01*
X357284Y593738D01*
X357111Y593726D01*
X356938Y593680D01*
X356926D01*
X356903Y593669D01*
X356869Y593657D01*
X356822Y593634D01*
X356707Y593588D01*
X356592Y593519D01*
X356569Y593496D01*
X356523Y593449D01*
X356465Y593369D01*
X356407Y593277D01*
Y593265D01*
X356396Y593253D01*
X356384Y593184D01*
X356361Y593092D01*
X356350Y592988D01*
Y592977D01*
Y592942D01*
X356361Y592884D01*
X356373Y592815D01*
X356396Y592735D01*
X356430Y592654D01*
X356476Y592585D01*
X356546Y592516D01*
X356557Y592504D01*
X356580Y592492D01*
X356626Y592469D01*
X356684Y592446D01*
X356765Y592412D01*
X356857Y592389D01*
X356961Y592377D01*
X357076Y592366D01*
X357122D01*
X357168Y592377D01*
X357238Y592389D01*
X357318Y592412D01*
X357399Y592435D01*
X357491Y592481D01*
X357595Y592538D01*
X357606Y592550D01*
X357641Y592573D01*
X357699Y592619D01*
X357779Y592677D01*
X357872Y592746D01*
X357975Y592838D01*
X358079Y592942D01*
X358206Y593069D01*
Y593749D01*
D02*
G37*
G36*
X368479Y595744D02*
X368398D01*
X368318Y595732D01*
X368214Y595709D01*
X368099Y595663D01*
X367972Y595617D01*
X367845Y595536D01*
X367730Y595433D01*
X367718Y595421D01*
X367684Y595375D01*
X367637Y595306D01*
X367580Y595214D01*
X367522Y595098D01*
X367465Y594948D01*
X367419Y594787D01*
X367384Y594591D01*
X369471D01*
Y594602D01*
Y594637D01*
Y594695D01*
X369459Y594764D01*
X369436Y594925D01*
X369390Y595098D01*
Y595110D01*
X369379Y595133D01*
X369356Y595179D01*
X369332Y595225D01*
X369263Y595340D01*
X369171Y595456D01*
Y595467D01*
X369148Y595479D01*
X369090Y595536D01*
X368987Y595617D01*
X368860Y595675D01*
X368848D01*
X368825Y595686D01*
X368791Y595698D01*
X368744Y595709D01*
X368629Y595732D01*
X368479Y595744D01*
D02*
G37*
G36*
X401697Y595606D02*
X401651D01*
X401582Y595594D01*
X401513D01*
X401340Y595548D01*
X401248Y595525D01*
X401167Y595479D01*
X401155D01*
X401132Y595456D01*
X401086Y595433D01*
X401040Y595386D01*
X400925Y595283D01*
X400798Y595133D01*
Y595121D01*
X400775Y595098D01*
X400752Y595052D01*
X400717Y594994D01*
X400682Y594925D01*
X400648Y594833D01*
X400590Y594637D01*
Y594626D01*
X400579Y594591D01*
X400567Y594533D01*
Y594452D01*
X400556Y594360D01*
X400544Y594256D01*
X400533Y594026D01*
Y594014D01*
Y593991D01*
Y593957D01*
Y593899D01*
X400544Y593761D01*
X400567Y593588D01*
X400613Y593392D01*
X400660Y593196D01*
X400740Y593011D01*
X400844Y592850D01*
X400855Y592838D01*
X400902Y592792D01*
X400971Y592723D01*
X401063Y592654D01*
X401190Y592585D01*
X401340Y592516D01*
X401501Y592469D01*
X401697Y592458D01*
X401743D01*
X401801Y592469D01*
X401870D01*
X402043Y592504D01*
X402216Y592573D01*
X402227D01*
X402251Y592596D01*
X402297Y592619D01*
X402354Y592654D01*
X402470Y592758D01*
X402585Y592907D01*
X402597Y592919D01*
X402608Y592942D01*
X402631Y592988D01*
X402666Y593057D01*
X402700Y593127D01*
X402735Y593219D01*
X402793Y593415D01*
Y593426D01*
X402804Y593461D01*
X402816Y593519D01*
X402827Y593599D01*
X402839Y593691D01*
X402850Y593795D01*
X402862Y594037D01*
Y594049D01*
Y594072D01*
Y594118D01*
Y594164D01*
X402850Y594303D01*
X402827Y594476D01*
X402793Y594672D01*
X402735Y594868D01*
X402666Y595052D01*
X402562Y595214D01*
X402550Y595225D01*
X402504Y595271D01*
X402435Y595340D01*
X402343Y595409D01*
X402227Y595479D01*
X402078Y595548D01*
X401905Y595594D01*
X401697Y595606D01*
D02*
G37*
G36*
X356350Y585144D02*
X355739D01*
Y580739D01*
X356350D01*
X356419Y580751D01*
X356488D01*
X356580Y580762D01*
X356776Y580808D01*
X356984Y580866D01*
X357214Y580958D01*
X357434Y581097D01*
X357526Y581177D01*
X357618Y581269D01*
Y581281D01*
X357641Y581292D01*
X357664Y581327D01*
X357687Y581373D01*
X357733Y581431D01*
X357768Y581500D01*
X357814Y581581D01*
X357860Y581673D01*
X357895Y581788D01*
X357941Y581915D01*
X357987Y582054D01*
X358021Y582203D01*
X358045Y582365D01*
X358068Y582538D01*
X358091Y582734D01*
Y582941D01*
Y582953D01*
Y582964D01*
Y583034D01*
Y583126D01*
X358079Y583253D01*
X358068Y583391D01*
X358056Y583552D01*
X357998Y583864D01*
Y583887D01*
X357987Y583933D01*
X357964Y584014D01*
X357929Y584106D01*
X357895Y584221D01*
X357849Y584336D01*
X357779Y584452D01*
X357710Y584555D01*
X357699Y584567D01*
X357676Y584602D01*
X357629Y584659D01*
X357572Y584717D01*
X357491Y584786D01*
X357399Y584867D01*
X357295Y584936D01*
X357180Y584994D01*
X357168Y585005D01*
X357122Y585017D01*
X357053Y585040D01*
X356949Y585074D01*
X356834Y585097D01*
X356684Y585120D01*
X356523Y585132D01*
X356350Y585144D01*
D02*
G37*
G36*
X441360Y583264D02*
X438951Y581535D01*
X438962Y581512D01*
X438985Y581454D01*
X439020Y581373D01*
X439066Y581269D01*
X439135Y581143D01*
X439204Y581027D01*
X439296Y580912D01*
X439400Y580820D01*
X439412Y580808D01*
X439446Y580785D01*
X439515Y580751D01*
X439596Y580704D01*
X439688Y580658D01*
X439804Y580624D01*
X439919Y580601D01*
X440058Y580589D01*
X440104D01*
X440161Y580601D01*
X440230Y580612D01*
X440392Y580647D01*
X440484Y580681D01*
X440576Y580727D01*
X440588Y580739D01*
X440622Y580751D01*
X440657Y580785D01*
X440715Y580831D01*
X440784Y580889D01*
X440853Y580970D01*
X440922Y581050D01*
X440991Y581154D01*
X441003Y581166D01*
X441026Y581212D01*
X441049Y581269D01*
X441095Y581350D01*
X441130Y581454D01*
X441176Y581581D01*
X441222Y581719D01*
X441268Y581881D01*
Y581904D01*
X441280Y581961D01*
X441303Y582054D01*
X441326Y582180D01*
X441337Y582330D01*
X441360Y582515D01*
X441372Y582711D01*
Y582930D01*
Y582941D01*
Y582976D01*
Y583034D01*
X441360Y583091D01*
Y583103D01*
Y583149D01*
Y583207D01*
Y583264D01*
D02*
G37*
G36*
X440069Y585293D02*
X440023D01*
X439965Y585282D01*
X439896Y585270D01*
X439735Y585236D01*
X439642Y585190D01*
X439550Y585144D01*
X439539Y585132D01*
X439515Y585120D01*
X439469Y585086D01*
X439412Y585040D01*
X439343Y584982D01*
X439273Y584901D01*
X439204Y584821D01*
X439135Y584717D01*
X439123Y584705D01*
X439112Y584671D01*
X439077Y584602D01*
X439031Y584521D01*
X438997Y584417D01*
X438951Y584290D01*
X438904Y584152D01*
X438858Y583990D01*
Y583967D01*
X438847Y583910D01*
X438835Y583818D01*
X438812Y583702D01*
X438801Y583541D01*
X438778Y583368D01*
X438766Y583172D01*
Y582953D01*
Y582941D01*
Y582895D01*
Y582826D01*
Y582757D01*
Y582745D01*
Y582711D01*
Y582653D01*
Y582595D01*
X441187Y584336D01*
X441176Y584360D01*
X441153Y584417D01*
X441118Y584498D01*
X441061Y584613D01*
X441003Y584728D01*
X440922Y584844D01*
X440830Y584959D01*
X440726Y585051D01*
X440715Y585063D01*
X440680Y585086D01*
X440622Y585132D01*
X440542Y585178D01*
X440449Y585213D01*
X440334Y585259D01*
X440207Y585282D01*
X440069Y585293D01*
D02*
G37*
G36*
X384206Y585144D02*
X383676D01*
Y583333D01*
X384264D01*
X384333Y583345D01*
X384506Y583356D01*
X384679Y583391D01*
X384690D01*
X384714Y583402D01*
X384760Y583414D01*
X384817Y583437D01*
X384944Y583483D01*
X385071Y583564D01*
X385082D01*
X385094Y583587D01*
X385163Y583645D01*
X385244Y583737D01*
X385325Y583852D01*
Y583864D01*
X385336Y583887D01*
X385359Y583921D01*
X385371Y583967D01*
X385405Y584094D01*
X385417Y584256D01*
Y584279D01*
Y584336D01*
X385405Y584417D01*
X385382Y584521D01*
X385336Y584625D01*
X385290Y584740D01*
X385209Y584844D01*
X385105Y584936D01*
X385094Y584947D01*
X385048Y584971D01*
X384979Y585005D01*
X384886Y585040D01*
X384760Y585074D01*
X384598Y585109D01*
X384414Y585132D01*
X384206Y585144D01*
D02*
G37*
G36*
X363141Y595686D02*
X362933D01*
X362876Y595675D01*
X362807D01*
X362645Y595629D01*
X362553Y595606D01*
X362461Y595559D01*
X362449D01*
X362426Y595536D01*
X362380Y595513D01*
X362322Y595479D01*
X362195Y595375D01*
X362057Y595225D01*
X362046Y595214D01*
X362034Y595190D01*
X361999Y595144D01*
X361965Y595075D01*
X361930Y594994D01*
X361884Y594914D01*
X361838Y594810D01*
X361803Y594695D01*
Y594683D01*
X361792Y594637D01*
X361780Y594579D01*
X361769Y594487D01*
X361746Y594383D01*
X361734Y594268D01*
X361723Y594130D01*
Y593991D01*
Y593968D01*
Y593922D01*
Y593841D01*
X361734Y593749D01*
Y593634D01*
X361746Y593519D01*
X361769Y593277D01*
Y593265D01*
X361780Y593230D01*
X361792Y593173D01*
X361815Y593115D01*
X361861Y592954D01*
X361942Y592804D01*
Y592792D01*
X361965Y592769D01*
X362022Y592700D01*
X362103Y592608D01*
X362218Y592527D01*
X362230D01*
X362253Y592516D01*
X362276Y592504D01*
X362322Y592492D01*
X362438Y592458D01*
X362587Y592446D01*
X362645D01*
X362703Y592458D01*
X362783Y592481D01*
X362864Y592504D01*
X362968Y592550D01*
X363072Y592608D01*
X363175Y592688D01*
X363187Y592700D01*
X363222Y592735D01*
X363279Y592792D01*
X363348Y592861D01*
X363441Y592965D01*
X363544Y593081D01*
X363648Y593219D01*
X363763Y593369D01*
Y595559D01*
X363752D01*
X363740Y595571D01*
X363706Y595582D01*
X363660Y595594D01*
X363544Y595629D01*
X363406Y595652D01*
X363394D01*
X363371Y595663D01*
X363325D01*
X363279Y595675D01*
X363141Y595686D01*
D02*
G37*
%LPD*%
G36*
X377953Y542421D02*
X383465D01*
Y538779D01*
X379724D01*
Y528051D01*
X377953D01*
Y518666D01*
X376987Y518150D01*
X374606Y518623D01*
X374338Y518570D01*
X373425Y519319D01*
Y527140D01*
X373909Y527537D01*
Y530602D01*
X371282D01*
X371428Y529867D01*
X371945Y529093D01*
X371389Y528051D01*
X368717D01*
Y530799D01*
X366634D01*
Y531693D01*
X367914D01*
Y531799D01*
X368717D01*
Y535843D01*
X367913D01*
Y542421D01*
X373425D01*
Y554242D01*
X377953D01*
Y542421D01*
D02*
G37*
%LPC*%
G36*
X377537Y530602D02*
X374909D01*
Y527975D01*
X375644Y528121D01*
X376692Y528820D01*
X377391Y529867D01*
X377537Y530602D01*
D02*
G37*
G36*
X373909Y534230D02*
X373174Y534084D01*
X372127Y533385D01*
X371428Y532338D01*
X371282Y531602D01*
X373909D01*
Y534230D01*
D02*
G37*
G36*
X374909D02*
Y531602D01*
X377537D01*
X377391Y532338D01*
X376692Y533385D01*
X375644Y534084D01*
X374909Y534230D01*
D02*
G37*
%LPD*%
G36*
X262284Y135886D02*
X264665Y135412D01*
X266026Y135683D01*
X266939Y134933D01*
Y25829D01*
X257930Y16821D01*
X152109D01*
X150339Y18591D01*
X149941Y20590D01*
X148592Y22608D01*
X147348Y23440D01*
Y24621D01*
X149173Y25840D01*
X151254Y24450D01*
X154173Y23869D01*
X157092Y24450D01*
X159173Y25840D01*
X161255Y24450D01*
X164173Y23869D01*
X167092Y24450D01*
X169173Y25840D01*
X171255Y24450D01*
X174173Y23869D01*
X177092Y24450D01*
X179566Y26103D01*
X180955Y28182D01*
X182401Y27216D01*
X183673Y26963D01*
Y31496D01*
X184673D01*
Y26963D01*
X185946Y27216D01*
X187449Y28220D01*
X188453Y29723D01*
X188805Y31496D01*
X189541Y32392D01*
X230610D01*
X232377Y32743D01*
X233874Y33744D01*
X258087Y57956D01*
X259088Y59454D01*
X259439Y61221D01*
Y136534D01*
X260481Y137091D01*
X262284Y135886D01*
D02*
G37*
G36*
X178817Y65551D02*
X179291Y63170D01*
X180640Y61152D01*
X182658Y59803D01*
X185039Y59329D01*
X185209Y59363D01*
X186122Y58614D01*
Y51870D01*
X184351D01*
Y49588D01*
X182166Y49154D01*
X181983Y49031D01*
X180825Y49262D01*
X180285Y50069D01*
X179475Y50610D01*
X179706Y51768D01*
X180566Y51940D01*
X181613Y52639D01*
X182312Y53686D01*
X182459Y54421D01*
X176203D01*
X176349Y53686D01*
X176946Y52793D01*
X176290Y51811D01*
X175886Y51891D01*
X175780Y51870D01*
X171177D01*
Y54618D01*
X169094D01*
Y55512D01*
X170374D01*
Y55618D01*
X171177D01*
Y59662D01*
X170374D01*
Y66240D01*
X171949D01*
Y66240D01*
X178252D01*
X178817Y65551D01*
D02*
G37*
G36*
X348130Y318898D02*
X344390D01*
Y308169D01*
X342618D01*
D01*
D01*
X342618Y308169D01*
X342027D01*
Y308169D01*
X337319D01*
Y310917D01*
X335236D01*
Y311811D01*
X336516D01*
Y311917D01*
X337319D01*
Y315961D01*
X336516D01*
Y322539D01*
X342027D01*
Y322539D01*
X342027D01*
X342027Y322539D01*
X342618D01*
Y322539D01*
X348130D01*
Y318898D01*
D02*
G37*
%LPC*%
G36*
X178831Y58049D02*
X178096Y57903D01*
X177049Y57203D01*
X176349Y56156D01*
X176203Y55421D01*
X178831D01*
Y58049D01*
D02*
G37*
G36*
X179831D02*
Y55421D01*
X182459D01*
X182312Y56156D01*
X181613Y57203D01*
X180566Y57903D01*
X179831Y58049D01*
D02*
G37*
%LPD*%
D10*
X194882Y62992D02*
D03*
X198622Y55118D02*
D03*
X191142D02*
D03*
X165354Y62992D02*
D03*
X169094Y55118D02*
D03*
X161614D02*
D03*
X362894Y539173D02*
D03*
X366634Y531299D02*
D03*
X359153D02*
D03*
X388484Y539173D02*
D03*
X392224Y531299D02*
D03*
X384744D02*
D03*
X331496Y319291D02*
D03*
X335236Y311417D02*
D03*
X327756D02*
D03*
X353150Y319291D02*
D03*
X356890Y311417D02*
D03*
X349409Y311417D02*
D03*
D11*
X185039Y72835D02*
D03*
Y80709D02*
D03*
X175197Y72835D02*
D03*
Y80709D02*
D03*
D12*
X199409Y45276D02*
D03*
X190354D02*
D03*
X169882D02*
D03*
X160827D02*
D03*
X116831Y192717D02*
D03*
X107776D02*
D03*
X358366Y549016D02*
D03*
X367421D02*
D03*
X393012D02*
D03*
X383957D02*
D03*
X326969Y329134D02*
D03*
X336023D02*
D03*
X357677D02*
D03*
X348622D02*
D03*
X224213Y446063D02*
D03*
X215157D02*
D03*
X214961Y452756D02*
D03*
X224016D02*
D03*
X357677Y301575D02*
D03*
X348622D02*
D03*
X336023D02*
D03*
X326969D02*
D03*
X393012Y521457D02*
D03*
X383957D02*
D03*
X367421D02*
D03*
X358366D02*
D03*
D13*
X165354Y81299D02*
D03*
Y72244D02*
D03*
X194882Y81299D02*
D03*
Y72244D02*
D03*
D14*
X135925Y215945D02*
D03*
Y232480D02*
D03*
D15*
X96555Y192717D02*
D03*
X88681D02*
D03*
X366831Y558858D02*
D03*
X358957D02*
D03*
X384547D02*
D03*
X392421D02*
D03*
X335433Y339370D02*
D03*
X327559D02*
D03*
X349213Y338976D02*
D03*
X357086D02*
D03*
D16*
X93012Y165158D02*
D03*
X115846D02*
D03*
D17*
X119429Y246358D02*
D03*
X114429D02*
D03*
X109429D02*
D03*
X104429D02*
D03*
X99429D02*
D03*
X94429D02*
D03*
X89429D02*
D03*
X119429Y209941D02*
D03*
X114429D02*
D03*
X109429D02*
D03*
X104429D02*
D03*
X99429D02*
D03*
X94429D02*
D03*
X89429D02*
D03*
D18*
X143799Y283071D02*
D03*
Y259843D02*
D03*
D19*
X155610Y216339D02*
D03*
Y232087D02*
D03*
D20*
X108366Y271457D02*
D03*
X92618D02*
D03*
D21*
X340945Y450984D02*
D03*
Y468701D02*
D03*
X308661Y450984D02*
D03*
Y468701D02*
D03*
X328740Y239173D02*
D03*
Y221457D02*
D03*
X361024Y239173D02*
D03*
Y221457D02*
D03*
D22*
X224331Y438780D02*
D03*
X229016D02*
D03*
D23*
X308858Y468504D02*
X352756D01*
X288301Y146858D02*
X298137Y156693D01*
X299410D01*
X304626Y141240D02*
Y165846D01*
X293307Y177165D02*
X304626Y165846D01*
X264665Y141634D02*
Y153937D01*
X242618Y165547D02*
X244205Y167134D01*
X242618Y99213D02*
Y165547D01*
Y99213D02*
X244193Y97638D01*
X237992Y172047D02*
X240059Y174114D01*
X237992Y74606D02*
Y172047D01*
Y74606D02*
X239764Y72835D01*
X248228Y102362D02*
X250295Y100295D01*
X248228Y102362D02*
Y151074D01*
X248425Y151271D02*
Y153760D01*
X248228Y151074D02*
X248425Y151271D01*
X247748Y154437D02*
X248425Y153760D01*
X308071Y228346D02*
Y260797D01*
X308086Y260812D01*
X317520Y362795D02*
X319685Y360630D01*
X222736Y362795D02*
X317520D01*
X207579Y347638D02*
X222736Y362795D01*
X335236Y311417D02*
X343110Y303543D01*
Y297342D02*
Y303543D01*
Y297342D02*
X345965Y294488D01*
X338484Y287008D02*
X345965Y294488D01*
X325689Y287008D02*
X338484D01*
X313386Y299311D02*
X325689Y287008D01*
X308578Y348245D02*
X313386Y343438D01*
Y299311D02*
Y343438D01*
X196653Y350492D02*
X204035Y343110D01*
Y277067D02*
Y343110D01*
X200787Y273819D02*
X204035Y277067D01*
X200787Y271161D02*
Y273819D01*
X210433Y196358D02*
X214961D01*
X207579Y199213D02*
X210433Y196358D01*
X207579Y199213D02*
Y347638D01*
X188395Y202470D02*
Y220562D01*
X182883Y226074D02*
X188395Y220562D01*
X182883Y226074D02*
Y235838D01*
X181890Y37008D02*
X230610D01*
X175886Y43012D02*
X181890Y37008D01*
X175886Y43012D02*
Y45669D01*
X230610Y37008D02*
X254823Y61221D01*
X251772Y149606D02*
X254823Y146555D01*
Y61221D02*
Y146555D01*
X128422Y592913D02*
X130617Y595108D01*
X31791Y592913D02*
X128422D01*
X17421Y578543D02*
X31791Y592913D01*
X165551Y589468D02*
X167126Y591043D01*
X35728Y589468D02*
X165551D01*
X21457Y575197D02*
X35728Y589468D01*
X43900Y600423D02*
Y601376D01*
X17421Y498425D02*
Y578543D01*
Y498425D02*
X24705Y491142D01*
Y490945D02*
X53937Y461713D01*
X24705Y490945D02*
Y491142D01*
X53937Y461713D02*
X186221D01*
X21457Y508268D02*
Y575197D01*
Y508268D02*
X63878Y465846D01*
X27559Y596850D02*
X77632D01*
X12697Y581988D02*
X27559Y596850D01*
X12697Y493153D02*
Y581988D01*
X8957Y488583D02*
Y587106D01*
X63878Y465846D02*
X191535D01*
X12697Y493153D02*
X48566Y457283D01*
X43876Y453664D02*
X177666D01*
X8957Y488583D02*
X43876Y453664D01*
X248240Y405728D02*
X258158D01*
X265166Y398721D01*
X268102D01*
X270877Y401496D01*
X271765D01*
X257972Y410925D02*
X266634Y402264D01*
X247736Y410925D02*
X257972D01*
X48566Y457283D02*
X181398D01*
X77632Y596850D02*
X79236Y598454D01*
X204429Y373819D02*
X220768Y390158D01*
X263386D01*
X305054D01*
X327772Y367439D01*
X333366Y348327D02*
X335433Y346260D01*
X327772Y353921D02*
X333366Y348327D01*
X327772Y353921D02*
Y367439D01*
X370571Y310827D02*
Y450689D01*
Y294488D02*
Y310827D01*
X369980Y311417D02*
X370571Y310827D01*
X356890Y311417D02*
X369980D01*
X352756Y468504D02*
X370571Y450689D01*
X357086Y329724D02*
X357677Y329134D01*
X357086Y329724D02*
Y338976D01*
X326969Y329134D02*
X327559Y329724D01*
Y339370D01*
X331496Y324606D02*
X336023Y329134D01*
X331496Y319291D02*
Y324606D01*
X348622Y329134D02*
X353150Y324606D01*
Y319291D02*
Y324606D01*
X349409Y302362D02*
Y311417D01*
X348622Y301575D02*
X349409Y302362D01*
X327756D02*
Y311417D01*
X326969Y301575D02*
X327756Y302362D01*
X319094Y300295D02*
Y343504D01*
X197244Y283071D02*
X199213Y281102D01*
X143799Y283071D02*
X197244D01*
X200787Y271161D02*
X203947Y268002D01*
Y210640D02*
Y268002D01*
Y209853D02*
Y210640D01*
X198238Y204144D02*
X203947Y209853D01*
X198238Y184064D02*
Y204144D01*
X216929Y344291D02*
X223917Y337303D01*
Y215748D02*
Y337303D01*
X217717Y141929D02*
X218307Y141339D01*
Y100591D02*
Y141339D01*
X199409Y45276D02*
X225984D01*
X250295Y69587D01*
Y100295D01*
X185039Y65551D02*
X185039Y65551D01*
Y72835D01*
X348819Y339370D02*
X349213Y339764D01*
Y344587D01*
X345472Y348327D02*
X349213Y344587D01*
X333366Y348327D02*
X345472D01*
X348819Y339370D02*
X349213Y338976D01*
X335433Y339370D02*
Y346260D01*
X323917Y348327D02*
X333366D01*
X319094Y343504D02*
X323917Y348327D01*
X319094Y300295D02*
X325281Y294109D01*
X329642D01*
X369980Y294488D02*
X370571D01*
X369783Y294291D02*
X369980Y294488D01*
X369587D02*
X369783Y294291D01*
X345965Y294488D02*
X369587D01*
X336023Y301575D02*
X336221Y301378D01*
Y293799D02*
Y301378D01*
X357677Y301575D02*
X362500D01*
X366535Y305610D01*
X375295Y239173D02*
X375394Y239075D01*
X361024Y239173D02*
X375295D01*
X367027Y221457D02*
X371358Y225787D01*
X361024Y221457D02*
X367027D01*
X328740D02*
X361024D01*
X251772Y349016D02*
X258957Y356201D01*
X258661Y356299D02*
X258760Y356201D01*
X258957D01*
X251772Y149606D02*
Y349016D01*
X247748Y154437D02*
Y352177D01*
X252165Y356594D01*
X276476Y356791D02*
X276575Y356693D01*
Y186319D02*
Y356693D01*
Y186319D02*
X276870Y186024D01*
X271175Y186404D02*
Y357006D01*
Y186404D02*
X271555Y186024D01*
X260827Y7776D02*
X276575Y23524D01*
Y185728D02*
X276870Y186024D01*
X276575Y23524D02*
Y185728D01*
X144980Y7776D02*
X260827D01*
X134547Y18209D02*
X144980Y7776D01*
X144193Y18209D02*
X150197Y12205D01*
X259842D02*
X271555Y23917D01*
X150197Y12205D02*
X259842D01*
X271555Y23917D02*
Y186024D01*
X211811Y203150D02*
Y210433D01*
X149606Y135630D02*
Y185927D01*
X181603Y217924D01*
X211811Y210433D02*
X219587Y218209D01*
X216732Y244193D02*
X219587Y241339D01*
Y218209D02*
Y241339D01*
X217924Y209754D02*
X223917Y215748D01*
X198622Y55118D02*
X199114Y54626D01*
X204921D01*
X174606Y81299D02*
X175197Y80709D01*
X194291D02*
X194882Y81299D01*
X161614Y46063D02*
Y55118D01*
X160827Y45276D02*
X161614Y46063D01*
X191142D02*
Y55118D01*
X190354Y45276D02*
X191142Y46063D01*
X194882Y62992D02*
Y72244D01*
X165354Y81299D02*
X174606D01*
X165354Y62992D02*
Y72244D01*
X185039Y80709D02*
X194291D01*
X352756Y449213D02*
Y468504D01*
X342126Y438583D02*
X352756Y449213D01*
X307480Y438583D02*
X342126D01*
X328740Y239173D02*
X361024D01*
X65945Y573819D02*
X116142D01*
X155512D01*
X205709D01*
X56102Y569882D02*
X106298D01*
X106299Y569881D01*
X145668D01*
X145669Y569882D01*
X195866D01*
X46260Y564961D02*
X134843D01*
X135827Y565945D01*
X36417Y561024D02*
X95472D01*
X125984D01*
X186024D01*
X65945Y531496D02*
X116142D01*
X156496D01*
X205709D01*
X56102Y535433D02*
X106299D01*
X145669D01*
X195866D01*
X46260Y539370D02*
X86614D01*
X135827D01*
X175197D01*
X35433Y544291D02*
X75787D01*
X125984D01*
X165354D01*
X96457Y548228D02*
X135827D01*
X185039D01*
X224035Y445886D02*
X224213Y446063D01*
X215157D02*
Y451969D01*
X358366Y549016D02*
X358957Y549606D01*
X366831Y558858D02*
X384547D01*
X392421Y549606D02*
Y558858D01*
Y549606D02*
X393012Y549016D01*
X383957D02*
X388484Y544488D01*
Y539173D02*
Y544488D01*
X359153Y522244D02*
Y531299D01*
X358366Y521457D02*
X359153Y522244D01*
X384744D02*
Y531299D01*
X383957Y521457D02*
X384744Y522244D01*
X300394Y473228D02*
X348819D01*
X367421Y491831D01*
Y521457D01*
X308661Y468701D02*
X308858Y468504D01*
X366831Y531102D02*
X374409D01*
X366634Y531299D02*
X366831Y531102D01*
X379134Y503150D02*
X387008D01*
X397638Y513780D01*
X392224Y531299D02*
X395079D01*
X397638Y528740D01*
Y513780D02*
Y528740D01*
X293307Y511417D02*
X297638Y515748D01*
X362894Y539173D02*
Y544488D01*
X367421Y549016D01*
X358957Y549606D02*
Y558858D01*
X297638Y515748D02*
X314645D01*
X351181Y552284D01*
Y560630D01*
X355906Y565354D01*
X363780D01*
X366831Y562303D01*
Y558858D02*
Y562303D01*
X224331Y438780D02*
Y445945D01*
X224213Y446063D02*
X224331Y445945D01*
X224016Y452756D02*
X224193D01*
X229243Y447561D02*
Y447705D01*
X224193Y452756D02*
X229243Y447705D01*
X208366Y446063D02*
X215157D01*
X208268Y445965D02*
X208366Y446063D01*
X221083Y442028D02*
X224331Y438780D01*
X204833Y442148D02*
X204953Y442028D01*
X221083D01*
X229211Y438975D02*
X274875D01*
X229016Y438780D02*
X229211Y438975D01*
X284617Y511417D02*
X293307D01*
X274875Y501675D02*
X284617Y511417D01*
X293209Y472736D02*
X297244Y468701D01*
X308661D01*
X281139Y472736D02*
X293209D01*
X278852Y475023D02*
X281139Y472736D01*
X305807Y453839D02*
X308661Y450984D01*
X298917Y453839D02*
X305807D01*
X326381Y239173D02*
X328740D01*
X297837Y210630D02*
X326381Y239173D01*
X293307Y275591D02*
X308086Y260812D01*
X317830Y261430D02*
X328740Y250520D01*
Y239173D02*
Y250520D01*
X374606Y512402D02*
X389370D01*
X393012Y516043D01*
Y521457D01*
X226378Y502362D02*
X251575Y527559D01*
Y541732D01*
X57874Y502362D02*
X138976D01*
X175984D01*
X226378D01*
X251575Y541732D02*
Y562992D01*
Y585433D01*
X8957Y587106D02*
X24213Y602362D01*
X42913D01*
X43900Y601376D01*
D24*
X214961Y451969D02*
X215157D01*
X199409Y41437D02*
Y45276D01*
X198327Y40354D02*
X199409Y41437D01*
X188046Y40354D02*
X198327D01*
X184995Y43406D02*
X188046Y40354D01*
X169094Y55118D02*
X169291Y54921D01*
X179331D01*
X184547Y43406D02*
X184995D01*
X169882Y45276D02*
X170276Y45669D01*
X175886D01*
X169094Y57575D02*
X169875Y58355D01*
X175197Y72835D02*
X185039D01*
X119980Y283071D02*
X143799D01*
X108366Y271457D02*
X119980Y283071D01*
X108366Y271457D02*
X109429Y270394D01*
Y246358D02*
Y270394D01*
X92618Y271457D02*
X94429Y269646D01*
Y246358D02*
Y269646D01*
X143799Y259843D02*
X143898Y259744D01*
X162303D01*
X169488Y252559D01*
Y227756D02*
Y252559D01*
X165748Y224016D02*
X169488Y227756D01*
X143996Y224016D02*
X165748D01*
X135925Y215945D02*
X143996Y224016D01*
X155216Y232480D02*
X155610Y232087D01*
X135925Y232480D02*
X155216D01*
X99429Y246358D02*
X104429D01*
X94429D02*
X99429D01*
X83071Y198327D02*
X88681Y192717D01*
X83071Y198327D02*
Y216437D01*
X94429Y227795D01*
Y246358D01*
X104429Y235531D02*
Y246358D01*
Y235531D02*
X104528Y235433D01*
X137500Y198228D02*
X155610Y216339D01*
X111319Y198228D02*
X137500D01*
X135925Y208661D02*
Y215945D01*
X128839Y201575D02*
X135925Y208661D01*
X111713Y201575D02*
X128839D01*
X109429Y203858D02*
X111713Y201575D01*
X109429Y203858D02*
Y209941D01*
X99429Y200866D02*
Y209941D01*
X111319Y198228D02*
X116831Y192717D01*
X102067Y198228D02*
X111319D01*
X99429Y200866D02*
X102067Y198228D01*
X293307Y177165D02*
X294575Y178433D01*
X214961Y451969D02*
Y452756D01*
X338675Y468701D02*
X340945D01*
X308661Y450984D02*
X340945D01*
X274875Y438975D02*
X295775D01*
X274875D02*
Y501675D01*
D25*
X149606Y94488D02*
Y135630D01*
X104528Y235433D02*
X107480Y232480D01*
X135925D01*
X115846Y165158D02*
X116831Y166142D01*
Y192717D01*
X96555D02*
X107776D01*
X88681Y169488D02*
Y192717D01*
Y169488D02*
X93012Y165158D01*
X142323Y142913D02*
X149606Y135630D01*
X115256Y142913D02*
X142323D01*
X93012Y165158D02*
X115256Y142913D01*
X115846Y165158D02*
X129626Y151378D01*
X135925D01*
X129232Y136417D02*
X135925Y129724D01*
X103248Y136417D02*
X129232D01*
X94587Y127756D02*
X103248Y136417D01*
X114272Y98327D02*
Y127756D01*
Y98327D02*
X118110Y94488D01*
X127756Y104134D01*
X139961D01*
X149606Y94488D01*
X123819Y84449D02*
X133858Y94488D01*
X112402Y84449D02*
X123819D01*
X102362Y94488D02*
X112402Y84449D01*
X94587Y102264D02*
Y127756D01*
Y102264D02*
X102362Y94488D01*
D26*
X114272Y127756D02*
D03*
X94587D02*
D03*
X501969Y9843D02*
D03*
X9843D02*
D03*
Y600394D02*
D03*
X501969D02*
D03*
X468346Y584646D02*
D03*
X344882Y281653D02*
D03*
X354882Y271654D02*
D03*
Y281653D02*
D03*
X364882Y271654D02*
D03*
Y281653D02*
D03*
X300394Y496614D02*
D03*
X310394Y486614D02*
D03*
Y496614D02*
D03*
X320394Y486614D02*
D03*
Y496614D02*
D03*
X298661Y199213D02*
D03*
X296693Y421654D02*
D03*
D27*
X135925Y151378D02*
D03*
Y129724D02*
D03*
X45866Y522362D02*
D03*
X55866D02*
D03*
X65866D02*
D03*
X75866D02*
D03*
X85866D02*
D03*
X95866D02*
D03*
X105866D02*
D03*
X115866D02*
D03*
X125866D02*
D03*
X135866D02*
D03*
X145866D02*
D03*
X155866D02*
D03*
X165866D02*
D03*
X175866D02*
D03*
X185866D02*
D03*
X195866D02*
D03*
X205866D02*
D03*
Y582362D02*
D03*
X195866D02*
D03*
X185866D02*
D03*
X175866D02*
D03*
X165866D02*
D03*
X155866D02*
D03*
X145866D02*
D03*
X135866D02*
D03*
X125866D02*
D03*
X115866D02*
D03*
X105866D02*
D03*
X95866D02*
D03*
X85866D02*
D03*
X75866D02*
D03*
X65866D02*
D03*
X55866D02*
D03*
X45866D02*
D03*
X35866D02*
D03*
D28*
X478346Y584646D02*
D03*
X344882Y271654D02*
D03*
X300394Y486614D02*
D03*
X308662Y199213D02*
D03*
X306693Y421654D02*
D03*
D29*
X114173Y31496D02*
D03*
D30*
X124173D02*
D03*
X134173D02*
D03*
X144173D02*
D03*
X154173D02*
D03*
X164173D02*
D03*
X174173D02*
D03*
X184173D02*
D03*
X218504Y374016D02*
D03*
X230315D02*
D03*
X218504Y275591D02*
D03*
X230315D02*
D03*
X218504Y177165D02*
D03*
X230315D02*
D03*
X218504Y59055D02*
D03*
X230315D02*
D03*
X293307Y374016D02*
D03*
X281496D02*
D03*
X293307Y275591D02*
D03*
X281496D02*
D03*
X293307Y177165D02*
D03*
X281496D02*
D03*
X293307Y59055D02*
D03*
X281496D02*
D03*
D31*
X149606Y94488D02*
D03*
Y59055D02*
D03*
X118110Y94488D02*
D03*
Y59055D02*
D03*
X133858D02*
D03*
Y94488D02*
D03*
X102362Y59055D02*
D03*
Y94488D02*
D03*
D32*
X35866Y522362D02*
D03*
D33*
X39370Y374016D02*
D03*
Y275591D02*
D03*
Y177165D02*
D03*
Y59055D02*
D03*
X472441Y374016D02*
D03*
Y275591D02*
D03*
Y177165D02*
D03*
Y59055D02*
D03*
X295276Y551181D02*
D03*
D34*
X299410Y156693D02*
D03*
X264665Y141634D02*
D03*
Y153937D02*
D03*
X244193Y97638D02*
D03*
X239764Y72835D02*
D03*
X308071Y228346D02*
D03*
X248240Y405728D02*
D03*
X271765Y401496D02*
D03*
X266634Y402264D02*
D03*
X247736Y410925D02*
D03*
X177666Y453664D02*
D03*
X43900Y600423D02*
D03*
X79236Y598454D02*
D03*
X130617Y595108D02*
D03*
X167126Y591043D02*
D03*
X181398Y457283D02*
D03*
X186221Y461713D02*
D03*
X191535Y465846D02*
D03*
X204429Y373819D02*
D03*
X263386Y390158D02*
D03*
X327772Y367439D02*
D03*
X308578Y348245D02*
D03*
X319405Y308184D02*
D03*
X199213Y281102D02*
D03*
X200787Y271161D02*
D03*
X203947Y210640D02*
D03*
X216929Y344291D02*
D03*
X198238Y184064D02*
D03*
X217717Y141929D02*
D03*
X218307Y100591D02*
D03*
X175886Y45669D02*
D03*
X185039Y65551D02*
D03*
X329642Y294109D02*
D03*
X370571Y294488D02*
D03*
X345965D02*
D03*
X336221Y293799D02*
D03*
X366535Y305610D02*
D03*
X375394Y239075D02*
D03*
X371358Y225787D02*
D03*
X258661Y356299D02*
D03*
X252165Y356594D02*
D03*
X276476Y356791D02*
D03*
X271175Y357006D02*
D03*
X134547Y18209D02*
D03*
X144193D02*
D03*
X288301Y146858D02*
D03*
X214961Y196358D02*
D03*
X319685Y360630D02*
D03*
X251772Y149606D02*
D03*
X247748Y154437D02*
D03*
X276870Y186024D02*
D03*
X271555D02*
D03*
X211811Y203150D02*
D03*
X181603Y217924D02*
D03*
X216732Y244193D02*
D03*
X217924Y209754D02*
D03*
X179331Y54921D02*
D03*
X204921Y54626D02*
D03*
X244205Y167134D02*
D03*
X240059Y174114D02*
D03*
X184547Y43406D02*
D03*
X65945Y573819D02*
D03*
X116142D02*
D03*
X155512D02*
D03*
X205709D02*
D03*
X56102Y569882D02*
D03*
X106299Y569881D02*
D03*
X145669Y569882D02*
D03*
X195866D02*
D03*
X46260Y564961D02*
D03*
X135827Y565945D02*
D03*
X36417Y561024D02*
D03*
X95472D02*
D03*
X125984D02*
D03*
X186024D02*
D03*
X65945Y531496D02*
D03*
X116142D02*
D03*
X156496D02*
D03*
X205709D02*
D03*
X56102Y535433D02*
D03*
X106299D02*
D03*
X145669D02*
D03*
X195866D02*
D03*
X46260Y539370D02*
D03*
X86614D02*
D03*
X135827D02*
D03*
X175197D02*
D03*
X35433Y544291D02*
D03*
X75787D02*
D03*
X125984D02*
D03*
X165354D02*
D03*
X96457Y548228D02*
D03*
X185039D02*
D03*
X135827D02*
D03*
X57874Y502362D02*
D03*
X138976D02*
D03*
X175984D02*
D03*
X226378D02*
D03*
X251575Y541732D02*
D03*
Y562992D02*
D03*
Y585433D02*
D03*
X300394Y473228D02*
D03*
X352756Y468504D02*
D03*
X374409Y531102D02*
D03*
X379134Y503150D02*
D03*
X307480Y438583D02*
D03*
X229243Y447561D02*
D03*
X208268Y445965D02*
D03*
X204833Y442148D02*
D03*
X274875Y501675D02*
D03*
X295775Y438975D02*
D03*
X293307Y511417D02*
D03*
X293209Y472736D02*
D03*
X278852Y475023D02*
D03*
X298917Y453839D02*
D03*
X374606Y512402D02*
D03*
X305054Y390158D02*
D03*
X297837Y210630D02*
D03*
X317830Y261430D02*
D03*
X304626Y141240D02*
D03*
X196653Y350492D02*
D03*
X182883Y235838D02*
D03*
X188395Y202470D02*
D03*
M02*
